<?xml version="1.0" encoding="utf-8"?>
<!-- Generator: Adobe Illustrator 21.0.0, SVG Export Plug-In . SVG Version: 6.00 Build 0)  -->
<svg version="1.1" id="Layer_1" xmlns="http://www.w3.org/2000/svg" xmlns:xlink="http://www.w3.org/1999/xlink" x="0px" y="0px"
	 viewBox="0 0 512.72 268.57" style="enable-background:new 0 0 512.72 268.57;" xml:space="preserve">
<style type="text/css">
	.st0{opacity:0.07;fill:#171F24;}
	.st1{fill:#FDDFC0;}
	.st2{fill:#C6E2C0;}
	.st3{fill:#F58E7F;}
	.st4{fill:#FFFFFF;}
	.st5{fill:#F69E8E;}
	.st6{fill:#FBC6A6;}
	.st7{fill:#A2D6BF;}
	.st8{fill:#F27769;}
	.st9{fill:#FFF0DC;}
	.st10{fill:#604C44;}
	.st11{fill:#F7C4AA;}
	.st12{fill:#EAA57F;}
</style>
<g>
	<ellipse class="st0" cx="260.28" cy="181.07" rx="72.7" ry="18.7"/>
	<g>
		<path class="st1" d="M336.87,100.84c-0.38-0.85-3.46-0.89-5.53-0.58c-0.22,0.03-0.45-0.07-0.58-0.25
			c-0.13-0.19-0.14-0.43-0.04-0.63c0.64-1.18,1.96-4.53,0.43-5.85c-1.16-1-3.54,1.17-4.29,2.01c-0.14,0.16-0.36,0.23-0.57,0.19
			c-0.21-0.05-0.38-0.2-0.44-0.4c-0.43-1.34-1.48-3.66-2.5-4.16c-0.2-0.1-0.38-0.12-0.56-0.05c-1.37,0.48-1.77,1.57-2.29,2.95
			c-0.42,1.12-0.9,2.39-2.01,3.38c-0.3,0.27-0.62,0.58-0.98,0.93c-2.44,2.4-6.53,6.4-17.73,10.22c-7.65,8.02-21.42,11.85-42,11.85
			c-21.53,0-34.94-4.4-42.17-14.29c-9.41-3.83-13.01-7.55-15.22-9.84c-0.35-0.36-0.66-0.68-0.95-0.96
			c-1.08-1.02-1.52-2.31-1.91-3.43c-0.48-1.39-0.86-2.49-2.21-3.01c-0.18-0.07-0.36-0.05-0.56,0.04c-1.03,0.48-2.15,2.77-2.61,4.09
			c-0.07,0.2-0.24,0.35-0.46,0.39c-0.21,0.04-0.43-0.04-0.56-0.2c-0.72-0.86-3.05-3.08-4.23-2.13c-1.57,1.27-0.34,4.66,0.27,5.86
			c0.1,0.2,0.08,0.44-0.05,0.62c-0.13,0.18-0.36,0.27-0.58,0.23c-2.07-0.36-5.15-0.41-5.55,0.43c-1.27,2.66,3.73,5.16,3.78,5.19
			c0.25,0.12,0.38,0.4,0.32,0.67c-0.06,0.27-0.3,0.46-0.58,0.47c-0.01,0-1.45,0.02-2.06,0.85c-0.33,0.45-0.37,1.09-0.12,1.92
			c0.65,2.17,3.91,1.88,6.28,1.67c0.91-0.08,1.69-0.15,2.24-0.07c0.67,0.09,1.81,1.04,5.17,3.95c6.19,5.36,17.7,15.34,27.59,17.73
			c0.16,0.04,0.3,0.14,0.38,0.29c0.08,0.15,0.1,0.32,0.04,0.48c-0.04,0.13-2.93,8.96-3.35,19.29c1.3,0.41,2.61,1.04,3.93,1.88
			c4.32,2.76,7.14,7.3,8.92,11.56c5.35,0.69,13.34,1.43,23.24,1.43c9.28,0,18.81-0.64,26.1-1.3c1.78-4.29,4.62-8.9,8.99-11.69
			c1.82-1.16,3.63-1.91,5.4-2.25c-1.21-9.56-4.22-17.54-4.27-17.67c-0.06-0.16-0.05-0.34,0.03-0.5c0.08-0.15,0.23-0.26,0.4-0.3
			c9.96-2.11,21.71-11.68,28.02-16.82c3.43-2.79,4.6-3.7,5.27-3.77c0.55-0.06,1.33,0.03,2.24,0.14c2.37,0.27,5.62,0.65,6.33-1.5
			c0.27-0.82,0.25-1.47-0.07-1.93c-0.58-0.84-2.01-0.91-2.03-0.91c-0.28-0.01-0.51-0.21-0.57-0.48c-0.05-0.27,0.08-0.54,0.34-0.66
			C332.99,105.89,338.06,103.53,336.87,100.84z M259.2,160.22c0,0.33-0.27,0.6-0.6,0.6s-0.6-0.27-0.6-0.6v-2.25
			c0-0.33,0.27-0.6,0.6-0.6s0.6,0.27,0.6,0.6V160.22z"/>
		<path class="st2" d="M261.53,190.93c-0.63-1.58-0.62-3.41,0.05-5.37c1.46-4.25,4.95-5.2,8.03-6.03c2.15-0.58,4.18-1.13,5.33-2.71
			c1.8-2.46,3.95-4.05,5.62-5.03c0.34-1.67,0.92-3.9,1.82-6.3c-7.24,0.64-16.54,1.25-25.61,1.25c-9.56,0-17.36-0.68-22.74-1.35
			c0.92,2.43,1.51,4.7,1.86,6.4c1.69,0.98,3.83,2.58,5.63,5.04c1.16,1.58,3.19,2.13,5.33,2.71c3.08,0.83,6.57,1.78,8.03,6.03
			c0.68,1.98,0.68,3.82,0.03,5.41C257.29,191.09,259.48,191.07,261.53,190.93z"/>
		<path class="st1" d="M217.74,181.65c0.23-0.52,0.7-1.1,1.6-1.45c-0.01-0.01-0.03-0.02-0.04-0.03c-0.94-1.02-1.25-2.9-0.68-4.19
			c0.36-0.82,0.99-1.35,1.86-1.55c-0.4-1.12-0.34-2.52,0.22-3.55c0.53-0.98,1.43-1.51,2.55-1.53c-0.45-1.93,0.03-3.77,1.28-4.71
			c0.83-0.62,1.72-0.94,2.65-0.94c2.75,0,5.08,2.85,5.45,5.4c0.07,0.47,0.06,0.91,0.01,1.32c0.13,0.01,0.26,0.01,0.39,0.02
			c0.1,0.03,0.67,0.22,1.5,0.62c-1.14-4.84-4.14-13.39-10.58-17.5c-2.37-1.52-4.7-2.28-6.91-2.28c-5.37,0-8.84,4.53-9.77,7.38
			c-1.29,3.96,0.68,12.17,6.12,18.53C214.91,178.96,216.33,180.43,217.74,181.65z"/>
		<path class="st1" d="M200.73,69.33c-2.13,2.19-3.16,5.44-3.06,9.67c0.24,9.73,6.82,12.53,12.22,13.18
			c-1.21-6.24-2.04-15.88-1.07-26.13C206.18,66.22,203.02,66.99,200.73,69.33z"/>
		<path class="st1" d="M316.81,69.33c-2.48-2.54-6-3.22-8.74-3.31c0.8,10.6-0.39,20.43-1.16,26.25c5.51-0.49,12.72-3.08,12.97-13.27
			C319.97,74.77,318.94,71.51,316.81,69.33z"/>
		<path class="st1" d="M257.78,119.25c30.63,0,45.38-8.07,47.81-26.15c1.48-11.05,5.42-40.4-10.14-58.18
			c-5.04-5.76-11.73-9.85-19.98-12.28c-3.57,6.46-10.09,7.77-17.03,8.62c-0.02,0-0.05,0-0.07,0c-0.3,0-0.55-0.22-0.59-0.52
			c-0.04-0.33,0.19-0.62,0.52-0.66c6.52-0.8,12.64-2.02,15.99-7.77c-5.63-1.52-11.95-2.29-18.96-2.29c-14.7,0-26.1,4.84-33.88,14.38
			C207.4,51.62,208.6,80.03,211.2,92.64C215.04,111.29,228.97,119.25,257.78,119.25z M280.27,66.02c2.57,0,4.65,2.11,4.65,4.72
			c0,2.61-2.08,4.72-4.65,4.72c-2.57,0-4.65-2.11-4.65-4.72C275.62,68.13,277.7,66.02,280.27,66.02z M246.53,92.25
			c0.53-3.52,7.59-3.9,10.59-3.9c5.77,0,13.01,1.26,15.05,3.6c1.19,1.36,1.33,3.43,0.37,5.67c-1.74,4.08-6.8,8.37-13.1,8.66
			c-0.23,0.01-0.45,0.02-0.67,0.02c-4.66,0-7.56-2.24-9.18-4.12C247.23,99.43,246.03,95.53,246.53,92.25z M239.05,66.02
			c2.57,0,4.65,2.11,4.65,4.72c0,2.61-2.08,4.72-4.65,4.72c-2.57,0-4.65-2.11-4.65-4.72C234.4,68.13,236.48,66.02,239.05,66.02z"/>
		<path class="st3" d="M259.39,105.08c5.75-0.27,10.5-4.29,12.05-7.93c0.45-1.06,1.03-3.04-0.17-4.41
			c-1.54-1.76-7.89-3.19-14.16-3.19c-5.45,0-9.15,1.13-9.41,2.89c-0.45,2.95,0.65,6.47,2.79,8.96
			C252.02,103.16,254.86,105.28,259.39,105.08z"/>
		<ellipse class="st4" cx="237.78" cy="68.9" rx="1.54" ry="1.56"/>
		<ellipse class="st4" cx="279" cy="68.9" rx="1.54" ry="1.56"/>
		<path class="st1" d="M223.63,184.48c-0.07-0.69-0.1-1.41-0.06-2.15c-0.02-0.03-0.03-0.06-0.05-0.09
			c-0.24-0.37-0.57-0.66-0.97-0.85c-0.09,0.01-0.17,0.03-0.26,0.03c-0.55,0-1.09-0.11-1.57-0.3c-0.12,0.01-0.22,0.01-0.35,0.03
			c-0.96,0.16-1.51,0.61-1.65,1.32c-0.2,1.03,0.49,2.3,1.24,2.76c0.4,0.24,0.88,0.37,1.39,0.37
			C222.32,185.59,223.19,185.14,223.63,184.48z"/>
		<path class="st1" d="M224.21,177.03c-1.21-0.07-2.34-0.62-3.09-1.49c-0.68,0.05-1.16,0.35-1.41,0.91
			c-0.42,0.95-0.09,2.29,0.47,2.9c0.5,0.54,1.28,0.86,2.11,0.86c0.64,0,1.22-0.2,1.63-0.54c0.14-0.69,0.32-1.36,0.54-2.02
			c-0.03-0.13-0.05-0.25-0.1-0.38C224.32,177.19,224.26,177.12,224.21,177.03z"/>
		<path class="st1" d="M223.66,170.56c-0.12-0.02-0.25-0.03-0.36-0.03c-0.69,0-1.21,0.31-1.54,0.91c-0.48,0.89-0.45,2.25,0.07,3.05
			c0.54,0.82,1.58,1.36,2.66,1.36c0.27,0,0.51-0.04,0.75-0.1c0.41-0.85,0.88-1.63,1.42-2.32
			C225.2,172.93,224.21,171.78,223.66,170.56z"/>
		<path class="st1" d="M231.46,169.28c-0.3-2.07-2.19-4.38-4.27-4.38c-0.67,0-1.32,0.24-1.94,0.7c-0.96,0.72-1.25,2.35-0.71,3.98
			c0.41,1.24,1.4,2.56,2.98,2.87c1.16-1.14,2.48-1.82,3.91-2C231.53,170.02,231.51,169.61,231.46,169.28z"/>
		<path class="st1" d="M253.75,185.95c-1.26-3.66-4.15-4.44-7.21-5.27c-2.25-0.61-4.58-1.24-5.99-3.15
			c-3.21-4.38-7.73-5.9-7.78-5.92c-0.12-0.01-0.35-0.02-0.57-0.02c-2.1,0-3.62,1.33-4.53,2.45c-2.32,2.87-3.49,7.77-2.72,11.38
			c1.15,5.36,3.4,6.3,14.36,8.74c1.95,0.43,3.81,0.65,5.51,0.65c3.93,0,6.9-1.14,8.38-3.21
			C254.31,190.07,254.5,188.12,253.75,185.95z"/>
		<path class="st1" d="M299.41,151.28c-2.21,0-4.54,0.77-6.91,2.28c-6.43,4.11-9.42,12.62-10.57,17.49
			c0.79-0.38,1.32-0.56,1.38-0.58c0.19-0.03,0.35-0.05,0.5-0.06c-0.05-0.41-0.06-0.85,0.01-1.31c0.37-2.56,2.7-5.4,5.45-5.4
			c0.93,0,1.82,0.32,2.65,0.94c1.25,0.94,1.73,2.78,1.28,4.71c1.11,0.02,2.02,0.55,2.55,1.53c0.56,1.03,0.62,2.44,0.22,3.55
			c0.87,0.2,1.5,0.73,1.86,1.55c0.56,1.29,0.26,3.16-0.68,4.19c-0.01,0.01-0.03,0.02-0.04,0.03c0.9,0.35,1.37,0.93,1.6,1.45
			c1.41-1.22,2.83-2.68,4.34-4.45c5.44-6.36,7.41-14.57,6.12-18.53C308.25,155.81,304.78,151.28,299.41,151.28z"/>
		<path class="st1" d="M297.73,182.47c-0.14-0.72-0.69-1.16-1.65-1.32c-0.12-0.02-0.23-0.02-0.35-0.03c-0.49,0.19-1.02,0.3-1.57,0.3
			c-0.09,0-0.17-0.02-0.26-0.03c-0.39,0.2-0.72,0.48-0.97,0.85c-0.02,0.03-0.03,0.06-0.05,0.09c0.04,0.74,0.01,1.45-0.06,2.15
			c0.44,0.66,1.31,1.11,2.28,1.11c0.51,0,0.99-0.13,1.39-0.37C297.24,184.77,297.93,183.5,297.73,182.47z"/>
		<path class="st1" d="M292.25,177.03c-0.05,0.08-0.11,0.15-0.15,0.24c-0.05,0.12-0.07,0.25-0.1,0.37c0.22,0.66,0.39,1.34,0.54,2.02
			c0.41,0.34,0.99,0.54,1.63,0.54c0.82,0,1.61-0.32,2.11-0.86c0.56-0.61,0.89-1.95,0.47-2.9c-0.25-0.56-0.73-0.86-1.41-0.91
			C294.59,176.42,293.46,176.96,292.25,177.03z"/>
		<path class="st1" d="M293.16,170.53c-0.11,0-0.24,0.01-0.36,0.03c-0.55,1.21-1.55,2.37-3,2.88c0.54,0.68,1.01,1.47,1.42,2.32
			c0.23,0.06,0.48,0.1,0.75,0.1c1.08,0,2.13-0.53,2.66-1.36c0.52-0.8,0.55-2.17,0.07-3.05
			C294.37,170.84,293.85,170.53,293.16,170.53z"/>
		<path class="st1" d="M288.93,172.45c1.58-0.31,2.57-1.63,2.99-2.88c0.54-1.63,0.25-3.26-0.71-3.98c-0.62-0.46-1.27-0.7-1.94-0.7
			c-2.08,0-3.97,2.31-4.27,4.38c-0.05,0.33-0.07,0.74,0.02,1.17C286.43,170.63,287.76,171.31,288.93,172.45z"/>
		<path class="st1" d="M291.49,185.43c0.77-3.61-0.39-8.51-2.72-11.38c-1-1.24-2.79-2.72-5.2-2.41c0.03,0-4.47,1.53-7.67,5.89
			c-1.4,1.91-3.73,2.54-5.98,3.15c-3.06,0.83-5.96,1.61-7.21,5.27c-0.75,2.17-0.56,4.12,0.53,5.65c1.48,2.07,4.46,3.21,8.38,3.21
			c1.71,0,3.56-0.22,5.51-0.65C288.1,191.73,290.34,190.78,291.49,185.43z"/>
		<circle class="st5" cx="283.88" cy="89.8" r="6.59"/>
		<circle class="st5" cx="235.4" cy="89.8" r="6.59"/>
		<path class="st6" d="M302.12,103.66c-7.55,4.68-16.91,6.83-25.87,8.09c-8.62,1.21-17.45,1.86-25.96,0.05
			c-8.51-1.81-16.74-6.34-21.43-13.66c-3.39-5.29-4.74-11.62-5.48-17.86c-1.53-12.8-0.72-26.21,4.78-37.87
			c4.91-10.41,13.99-19.19,24.94-22.34c-13.62,0.47-24.27,5.28-31.65,14.34C207.4,51.62,208.6,80.03,211.2,92.64
			c3.84,18.65,17.77,26.61,46.58,26.61C281.63,119.25,295.84,114.36,302.12,103.66z"/>
		<path class="st6" d="M223.71,132.43c0.85-2.15,1.68-4.58,0.72-6.67c-0.92-1.99-3.14-2.95-5.13-3.85
			c-6.76-3.05-12.98-7.3-18.28-12.49c-3.86-3.78-7.81-8.35-13.19-8.78c-1.72-0.14-3.53,0.17-5.13-0.48
			c-0.78-0.32-1.43-1.01-1.76-1.78c-1.06,2.61,3.77,5.04,3.82,5.06c0.25,0.12,0.38,0.4,0.32,0.67c-0.06,0.27-0.3,0.46-0.58,0.47
			c-0.01,0-1.45,0.02-2.06,0.85c-0.33,0.45-0.37,1.09-0.12,1.92c0.65,2.17,3.91,1.88,6.28,1.67c0.91-0.08,1.69-0.15,2.24-0.07
			c0.67,0.09,1.81,1.04,5.17,3.95c6.19,5.36,17.7,15.34,27.59,17.73c0.16,0.04,0.3,0.14,0.38,0.29c0.08,0.15,0.1,0.32,0.04,0.48
			C224.02,131.42,223.9,131.79,223.71,132.43z"/>
		<path class="st6" d="M326.7,111.25c0.55-0.06,1.33,0.03,2.24,0.14c2.37,0.27,5.62,0.65,6.33-1.5c0.27-0.82,0.25-1.47-0.07-1.93
			c-0.58-0.84-2.01-0.91-2.03-0.91c-0.28-0.01-0.51-0.21-0.57-0.48c-0.05-0.27,0.08-0.54,0.34-0.66c0.05-0.02,5.12-2.39,3.92-5.08
			c-0.01-0.01-0.02-0.02-0.03-0.03c-0.36,0.58-0.9,1.08-1.53,1.33c-1.6,0.65-3.41,0.35-5.13,0.49c-5.39,0.43-9.33,5-13.19,8.78
			c-5.3,5.19-11.51,9.44-18.28,12.49c-1.99,0.9-4.21,1.86-5.13,3.85c-0.59,1.28-0.5,2.7-0.15,4.1l0,0
			c9.96-2.11,21.71-11.68,28.02-16.82C324.87,112.23,326.04,111.32,326.7,111.25z"/>
		<g>
			<path class="st6" d="M233.53,164.12c1.35,0.18,2.88,0.35,4.56,0.52c-0.58-1.26-1.05-2.57-1.65-3.81
				c-3.44-7.11-11.04-11.86-14.91-18.46c-0.4,2.54-0.72,5.36-0.85,8.31c1.3,0.41,2.61,1.04,3.93,1.88
				C228.92,155.32,231.74,159.86,233.53,164.12z"/>
			<path class="st6" d="M291.86,152.56c1.82-1.16,3.63-1.91,5.4-2.25c-0.32-2.49-0.76-4.88-1.23-7.04c-1.2,0.9-2.39,1.81-3.59,2.71
				c-3.78,2.86-7.66,5.83-10.02,9.93c-1.16,2.02-1.95,4.3-3.49,6.05c-1.1,1.24-2.52,2.13-4,2.91c2.83-0.19,5.52-0.41,7.94-0.62
				C284.65,159.95,287.49,155.35,291.86,152.56z"/>
		</g>
		<path class="st6" d="M258.94,163.5c0.59-0.11,1.07-0.58,1.33-1.12c0.26-0.54,0.33-1.16,0.37-1.76c0.04-0.68,0.05-1.37,0.01-2.06
			c-0.04-0.69-0.12-1.4-0.49-1.98c-0.37-0.58-1.09-0.99-1.75-0.8c-0.39,0.12-0.69,0.42-0.92,0.75c-0.62,0.9-0.76,2.04-0.85,3.13
			c-0.06,0.86-0.1,1.77,0.25,2.56C257.25,163.01,258.09,163.65,258.94,163.5z"/>
		<path class="st6" d="M289.92,181.16c-0.45,1.65-1.25,3.33-2.73,4.19c-1.57,0.9-3.56,0.69-5.21,1.42
			c-1.33,0.59-2.32,1.74-3.45,2.67c-2.51,2.04-5.89,2.98-9.1,2.52c-1.99-0.29-3.99-1.16-5.19-2.77c-1.2-1.62-1.39-4.05-0.1-5.6
			l-0.08,0c-0.55,0.62-1.01,1.39-1.35,2.37c-0.75,2.17-0.56,4.12,0.53,5.65c1.48,2.07,4.46,3.21,8.38,3.21
			c1.71,0,3.56-0.22,5.51-0.65c10.96-2.44,13.21-3.38,14.36-8.74c0.5-2.34,0.18-5.2-0.73-7.72
			C290.43,178.84,290.23,180.02,289.92,181.16z"/>
		<path class="st6" d="M291.34,167.94c-0.25,1.02-0.75,2.13-1.74,2.48c-1.17,0.41-2.5-0.54-2.85-1.74c-0.28-0.97-0.07-2,0.33-2.94
			c-1.09,0.86-1.9,2.25-2.08,3.54c-0.05,0.33-0.07,0.74,0.02,1.17c1.42,0.18,2.74,0.87,3.91,2c1.58-0.31,2.57-1.63,2.99-2.88
			c0.44-1.33,0.32-2.65-0.25-3.48C291.6,166.72,291.49,167.33,291.34,167.94z"/>
		<path class="st6" d="M291.38,172.48c-0.45,0.4-0.97,0.75-1.58,0.96c0.54,0.68,1.01,1.47,1.42,2.32c0.23,0.06,0.48,0.1,0.75,0.1
			c1.08,0,2.13-0.53,2.66-1.36c0.41-0.63,0.5-1.61,0.29-2.43c-0.03,0.56-0.2,1.11-0.57,1.53c-0.55,0.62-1.52,0.87-2.24,0.47
			C291.56,173.76,291.27,173.07,291.38,172.48z"/>
		<path class="st6" d="M293.6,179.04c-0.74-0.39-1.07-1.43-0.66-2.12c-0.23,0.05-0.45,0.09-0.69,0.11
			c-0.05,0.08-0.11,0.15-0.15,0.24c-0.05,0.12-0.07,0.25-0.1,0.37c0.22,0.66,0.39,1.34,0.54,2.02c0.41,0.34,0.99,0.54,1.63,0.54
			c0.82,0,1.61-0.32,2.11-0.86c0.37-0.4,0.63-1.13,0.65-1.85c-0.19,0.38-0.43,0.74-0.74,1.03
			C295.5,179.19,294.43,179.48,293.6,179.04z"/>
		<path class="st6" d="M295.79,184.64c-0.59,0.06-1.23-0.09-1.62-0.53c-0.63-0.72-0.35-1.8,0.01-2.7c0,0-0.01,0-0.01,0
			c-0.09,0-0.17-0.02-0.26-0.03c-0.39,0.2-0.72,0.48-0.97,0.85c-0.02,0.03-0.03,0.06-0.05,0.09c0.04,0.74,0.01,1.45-0.06,2.15
			c0.44,0.66,1.31,1.11,2.28,1.11c0.51,0,0.99-0.13,1.39-0.37c0.49-0.3,0.95-0.95,1.15-1.65
			C297.18,184.15,296.53,184.57,295.79,184.64z"/>
		<g>
			<path class="st6" d="M290.38,163.87c0.17-3.83,1.26-7.6,3.17-10.92c-0.35,0.19-0.7,0.39-1.05,0.62
				c-6.43,4.11-9.42,12.62-10.57,17.49c0.79-0.38,1.32-0.56,1.38-0.58c0.19-0.03,0.35-0.05,0.5-0.06c-0.05-0.41-0.06-0.85,0.01-1.31
				c0.37-2.56,2.7-5.4,5.45-5.4C289.65,163.7,290.02,163.77,290.38,163.87z"/>
			<path class="st6" d="M306.39,172.36c-1.83,1.44-3.81,2.63-6.04,3.31c-0.79,0.24-1.63,0.4-2.47,0.45
				c0.49,1.28,0.18,3.06-0.73,4.05c-0.01,0.01-0.03,0.02-0.04,0.03c0.9,0.35,1.37,0.93,1.6,1.45c1.41-1.22,2.83-2.68,4.34-4.45
				C304.37,175.66,305.48,174.02,306.39,172.36z"/>
		</g>
		<path class="st6" d="M239.33,194.16c1.95,0.43,3.81,0.65,5.51,0.65c3.93,0,6.9-1.14,8.38-3.21c0.6-0.85,0.92-1.82,0.96-2.9
			c-1.05,0.91-2.32,1.58-3.66,1.93c-2.48,0.65-5.17,0.31-7.54-0.68c-2.57-1.07-4.96-2.9-7.74-2.92c-0.84-0.01-1.7,0.15-2.51-0.06
			c-0.67-0.17-1.25-0.58-1.76-1.04c-2.01-1.8-3.16-4.46-3.36-7.15c-0.14-1.86,0.16-3.73,0.76-5.5c-0.26,0.25-0.5,0.51-0.7,0.76
			c-2.32,2.87-3.49,7.77-2.72,11.38C226.11,190.78,228.36,191.73,239.33,194.16z"/>
		<path class="st6" d="M230.88,167.58c-0.31,0.88-0.7,1.73-1.34,2.4c-0.83,0.86-2.23,1.31-3.25,0.7c-0.85-0.5-1.2-1.54-1.37-2.51
			c-0.16-0.91-0.16-1.98,0.52-2.61c0.07-0.06,0.13-0.13,0.2-0.2c-0.14,0.08-0.27,0.17-0.41,0.27c-0.95,0.73-1.23,2.36-0.67,3.99
			c0.43,1.24,1.42,2.55,3.01,2.85c1.15-1.15,2.47-1.84,3.9-2.03c0.08-0.43,0.06-0.85,0.01-1.17
			C231.38,168.69,231.17,168.12,230.88,167.58z"/>
		<path class="st6" d="M224.82,173.81c-0.62,0.52-1.52,0.44-2.31,0.34c-0.24-0.03-0.49-0.07-0.68-0.22
			c-0.19-0.15-0.28-0.4-0.33-0.63c-0.03-0.14-0.05-0.28-0.07-0.43c-0.01,0.6,0.12,1.2,0.4,1.63c0.54,0.82,1.58,1.36,2.66,1.36
			c0.27,0,0.51-0.04,0.75-0.1c0.41-0.85,0.88-1.63,1.42-2.32c-0.47-0.16-0.87-0.41-1.24-0.69
			C225.31,173.16,225.14,173.54,224.82,173.81z"/>
		<path class="st6" d="M224.36,177.28c-0.04-0.09-0.1-0.16-0.15-0.24c-0.07,0-0.13-0.03-0.2-0.03c-0.12,0.54-0.33,1.06-0.64,1.52
			c-0.12,0.18-0.25,0.35-0.44,0.45c-0.21,0.11-0.46,0.12-0.69,0.12c-0.69,0.01-1.43,0-1.97-0.42c-0.48-0.37-0.65-0.97-0.71-1.59
			c-0.1,0.84,0.19,1.78,0.63,2.26c0.5,0.54,1.28,0.86,2.11,0.86c0.64,0,1.22-0.2,1.63-0.54c0.14-0.69,0.32-1.36,0.54-2.02
			C224.43,177.53,224.41,177.4,224.36,177.28z"/>
		<path class="st6" d="M223.63,184.48c-0.07-0.69-0.1-1.41-0.06-2.15c-0.02-0.03-0.03-0.06-0.05-0.09
			c-0.24-0.37-0.57-0.66-0.97-0.85c-0.04,0-0.09,0.01-0.13,0.01c0.03,1.29-0.24,2.66-1.5,3.03c-0.85,0.25-1.51-0.09-2.04-0.63
			c0.23,0.61,0.64,1.16,1.08,1.42c0.4,0.24,0.88,0.37,1.39,0.37C222.32,185.59,223.19,185.14,223.63,184.48z"/>
		<g>
			<path class="st6" d="M219.34,180.2c-0.01-0.01-0.03-0.02-0.04-0.03c-0.91-0.99-1.22-2.77-0.73-4.05
				c-0.97-0.22-1.92-0.53-2.83-0.94c-2.83-1.29-5.14-3.43-7.12-5.85c1.08,2.67,2.66,5.41,4.77,7.87c1.51,1.77,2.94,3.24,4.35,4.45
				C217.97,181.12,218.44,180.55,219.34,180.2z"/>
			<path class="st6" d="M226.18,155.27c0.91,2.43,1.71,4.9,2.36,7.41c0.12,0.46,0.23,0.93,0.34,1.4c1.97,0.84,3.48,3.01,3.77,5.02
				c0.07,0.47,0.06,0.91,0.01,1.32c0.13,0.01,0.26,0.01,0.39,0.02c0.1,0.03,0.67,0.22,1.5,0.62
				C233.54,166.82,231.11,159.73,226.18,155.27z"/>
		</g>
		<path class="st6" d="M311.56,84.65c-1.21,0.39-2.54,0.48-3.81,0.28c-0.27,2.83-0.58,5.32-0.85,7.33
			c5.51-0.49,12.72-3.08,12.97-13.27c0.01-0.52,0.01-1.02-0.01-1.51c-0.23,0.31-0.44,0.63-0.68,0.93
			C317.15,81.06,314.73,83.62,311.56,84.65z"/>
		<path class="st6" d="M202.54,83.69c-1.68-0.52-3.22-1.34-4.65-2.34c1.17,7.82,7.07,10.22,12,10.82c-0.43-2.24-0.82-4.92-1.09-7.9
			C206.69,84.45,204.59,84.32,202.54,83.69z"/>
		<path class="st7" d="M282.38,165.49c-1.29,0.11-2.66,0.22-4.07,0.33c-0.2,0.31-0.4,0.62-0.6,0.93
			c-3.36,5.22-7.2,10.83-13.16,12.59c-6.3,1.86-13-1.23-18.35-5.04c-3.26-2.32-6.37-5.08-8.37-8.49c-1.36-0.14-2.65-0.28-3.8-0.43
			c0.92,2.43,1.51,4.7,1.86,6.4c1.69,0.98,3.83,2.58,5.63,5.04c1.16,1.58,3.19,2.13,5.33,2.71c3.08,0.83,6.57,1.78,8.03,6.03
			c0.68,1.98,0.68,3.82,0.03,5.41c2.37,0.12,4.57,0.1,6.61-0.04c-0.63-1.58-0.62-3.41,0.05-5.37c1.46-4.25,4.95-5.2,8.03-6.03
			c2.15-0.58,4.18-1.13,5.33-2.71c1.8-2.46,3.95-4.05,5.62-5.03C280.9,170.12,281.48,167.89,282.38,165.49z"/>
		<path class="st8" d="M257.12,89.54c-5.45,0-9.15,1.13-9.41,2.89c-0.16,1.06-0.11,2.19,0.1,3.32c2.72-1.7,5.83-2.78,9.03-2.95
			c5.18-0.28,10.48,1.92,13.73,5.95c0.35-0.53,0.65-1.07,0.88-1.6c0.45-1.06,1.03-3.04-0.17-4.41
			C269.73,90.98,263.38,89.54,257.12,89.54z"/>
		<path class="st9" d="M296.02,41.12c-1.08-3.57-4.71-6.83-7.36-9.3c-2.43-2.27-5.73-5.55-9.27-5.37c-0.53,0.03-0.65,0.78-0.13,0.93
			c3.43,1,6.3,4.06,8.76,6.54c2.42,2.44,4.1,5.76,6.68,7.96C295.28,42.36,296.27,41.92,296.02,41.12z"/>
		<path class="st9" d="M298.89,46.69c-0.48-0.9-0.99-1.76-1.56-2.6c-0.45-0.66-1.66-0.27-1.36,0.57c0.32,0.92,0.69,1.82,1.11,2.7
			c0.39,0.81,0.76,1.7,1.6,2.13c0.3,0.15,0.79,0.04,0.85-0.35C299.67,48.24,299.31,47.48,298.89,46.69z"/>
		<path class="st9" d="M315.3,102.29c-1.41,0.24-2.6,1.29-3.8,2.03c-1.32,0.81-2.78,1.38-4.08,2.23c-0.5,0.33-0.35,1.25,0.32,1.2
			c1.71-0.12,3.3-0.85,4.82-1.61c1.39-0.69,2.89-1.61,3.48-3.1C316.23,102.56,315.7,102.22,315.3,102.29z"/>
		<path class="st9" d="M292.06,134.29c-0.4-0.52-1.22-0.23-1.07,0.45c0.2,0.96,0.57,1.9,0.82,2.85c0.24,0.91,0.42,1.79,0.97,2.57
			c0.24,0.34,0.78,0.32,0.9-0.12C294.18,138.24,293.16,135.72,292.06,134.29z"/>
		<path class="st9" d="M306.83,156.96c-0.88-1.47-2.46-3.11-4.19-3.48c-0.52-0.11-0.91,0.5-0.53,0.9c1.13,1.18,2.33,2.03,3.21,3.46
			c0.78,1.27,0.72,3,1.59,4.15c0.25,0.33,0.78,0.43,1.01,0C308.77,160.45,307.64,158.32,306.83,156.96z"/>
		<path class="st9" d="M306.57,165.37c-0.4,0.56-0.68,1.24-0.9,1.89c-0.2,0.6-0.45,1.21-0.13,1.81c0.12,0.23,0.41,0.27,0.63,0.16
			c0.6-0.29,0.75-1,0.95-1.58c0.22-0.65,0.37-1.35,0.38-2.04C307.5,165.1,306.84,165,306.57,165.37z"/>
		<path class="st9" d="M209.23,157.71c-1.15,1.32-1.96,4.1-0.68,5.53c0.18,0.2,0.6,0.17,0.72-0.09c0.33-0.76,0.29-1.37,0.35-2.19
			c0.07-0.9,0.45-1.76,0.69-2.62C210.47,157.74,209.66,157.21,209.23,157.71z"/>
		<g>
			<path class="st10" d="M332.24,98.95c0.66-1.6,1.59-4.69-0.31-6.32c-1.71-1.47-4.1,0.34-5.27,1.43c-0.48-1.23-1.46-3.31-2.78-3.96
				c-0.49-0.24-1.01-0.29-1.49-0.11c-1.89,0.66-2.46,2.18-3.01,3.65c-0.39,1.04-0.79,2.11-1.68,2.91c-0.31,0.28-0.65,0.61-1.02,0.97
				c-2.22,2.18-5.85,5.73-15.31,9.24c2.86-3.66,4.63-8.08,5.36-13.29c5.38-0.45,14.04-2.95,14.33-14.44
				c0.11-4.56-1.03-8.1-3.4-10.53c-2.79-2.86-6.71-3.59-9.7-3.67c-0.96-10.68-4.01-22-11.62-30.69
				c-5.15-5.89-11.96-10.08-20.33-12.57c2.52-5.55,1.58-12.45-2.4-17.06c-2.65-3.07-6.3-4.74-9.78-4.46c-3.5,0.28-6.8,3.13-7.86,6.8
				c-0.9,3.11,0.03,5.98,2.56,7.87c1.83,1.37,4.29,1.64,6.13,0.67c2.06-1.08,3.09-3.72,2.24-5.76c-0.13-0.3-0.48-0.44-0.78-0.32
				c-0.3,0.13-0.45,0.48-0.32,0.78c0.61,1.47-0.18,3.45-1.69,4.24c-1.44,0.75-3.39,0.52-4.86-0.57c-2.1-1.57-2.88-3.97-2.12-6.58
				c0.93-3.2,3.79-5.7,6.81-5.94c3.1-0.22,6.38,1.27,8.78,4.05c3.66,4.24,4.51,10.86,2.14,15.95c-5.79-1.59-12.31-2.4-19.53-2.4
				c-15.08,0-26.79,4.99-34.8,14.82c-7.12,8.73-10.4,20.25-11.58,31.2c-2.89,0.17-6.46,1-9.05,3.65c-2.37,2.43-3.51,5.97-3.4,10.53
				c0.27,11.03,8.27,13.78,13.67,14.38c0.91,4.16,2.31,7.8,4.25,10.94c-7.95-3.48-11.13-6.78-13.14-8.86
				c-0.36-0.38-0.69-0.71-0.99-1c-0.87-0.82-1.24-1.91-1.6-2.96c-0.51-1.49-1.04-3.02-2.91-3.74c-0.48-0.18-1-0.16-1.49,0.07
				c-1.33,0.62-2.37,2.67-2.88,3.88c-1.14-1.11-3.49-2.99-5.23-1.57c-1.94,1.58-1.1,4.7-0.48,6.31c-1.8-0.21-5-0.34-5.76,1.24
				c-1.25,2.61,1.27,4.83,2.96,5.97c-0.5,0.19-1.01,0.51-1.38,1c-0.57,0.77-0.67,1.77-0.31,2.98c0.93,3.1,4.9,2.75,7.53,2.52
				c0.8-0.07,1.56-0.14,1.96-0.08c0.47,0.13,2.46,1.85,4.56,3.67c6.14,5.32,17.45,15.13,27.48,17.83
				c-0.66,2.18-2.81,9.88-3.21,18.75c-0.83-0.18-1.64-0.28-2.45-0.28c-6,0-9.87,5.03-10.9,8.21c-1.42,4.36,0.57,12.91,6.35,19.68
				c1.75,2.05,3.39,3.7,5.03,5.05c0.07,1.26,0.78,2.59,1.83,3.22c0.58,0.36,1.28,0.54,2.01,0.54c0.63,0,1.23-0.14,1.76-0.37
				c0.32,0.13,0.64,0.25,0.96,0.36c1.4,5.03,4.49,6.22,15,8.56c2.04,0.45,3.98,0.68,5.77,0.68c4.32,0,7.64-1.32,9.35-3.71
				c0.04-0.05,0.06-0.11,0.1-0.16c1.27,0.07,2.5,0.12,3.67,0.12c1.46,0,2.84-0.06,4.17-0.17c0.04,0.07,0.08,0.14,0.13,0.21
				c1.71,2.39,5.03,3.71,9.35,3.71h0c1.79,0,3.74-0.23,5.77-0.68c10.51-2.33,13.6-3.53,15-8.56c0.32-0.11,0.64-0.23,0.96-0.36
				c0.53,0.24,1.13,0.37,1.76,0.37c0.73,0,1.42-0.19,2.01-0.54c1.04-0.63,1.76-1.97,1.83-3.22c1.63-1.34,3.28-3,5.03-5.05
				c5.78-6.76,7.77-15.31,6.35-19.68c-1.03-3.17-4.91-8.21-10.9-8.21c-0.32,0-0.65,0.02-0.98,0.05c-1.04-8.16-3.35-15.17-4.1-17.28
				c10.08-2.44,21.6-11.82,27.86-16.91c2.15-1.75,4.18-3.4,4.64-3.51c0.42-0.05,1.18,0.04,1.98,0.14c2.62,0.3,6.58,0.76,7.6-2.31
				c0.4-1.2,0.32-2.21-0.22-2.99c-0.36-0.51-0.86-0.83-1.35-1.04c1.73-1.09,4.3-3.24,3.13-5.88
				C337.25,98.75,334.04,98.8,332.24,98.95z M332.94,105.92c-0.25,0.12-0.39,0.39-0.34,0.66c0.05,0.27,0.29,0.47,0.57,0.48
				c0.01,0,1.44,0.07,2.03,0.91c0.32,0.46,0.34,1.11,0.07,1.93c-0.71,2.15-3.96,1.77-6.33,1.5c-0.9-0.1-1.69-0.2-2.24-0.14
				c-0.67,0.07-1.83,0.98-5.27,3.77c-6.31,5.14-18.06,14.7-28.02,16.82c-0.17,0.04-0.32,0.15-0.4,0.3c-0.08,0.15-0.09,0.34-0.03,0.5
				c0.05,0.12,3.06,8.1,4.27,17.67c-1.77,0.34-3.58,1.09-5.4,2.25c-4.37,2.79-7.2,7.39-8.99,11.69c-7.29,0.65-16.82,1.3-26.1,1.3
				c-9.9,0-17.89-0.73-23.24-1.43c-1.79-4.26-4.61-8.8-8.92-11.56c-1.32-0.84-2.63-1.47-3.93-1.88c0.42-10.33,3.31-19.16,3.35-19.29
				c0.05-0.16,0.04-0.33-0.04-0.48c-0.08-0.15-0.22-0.25-0.38-0.29c-9.89-2.39-21.41-12.37-27.59-17.73
				c-3.36-2.91-4.5-3.86-5.17-3.95c-0.55-0.08-1.34-0.01-2.24,0.07c-2.37,0.21-5.63,0.49-6.28-1.67c-0.25-0.83-0.21-1.48,0.12-1.92
				c0.61-0.83,2.04-0.85,2.06-0.85c0.28,0,0.52-0.19,0.58-0.47c0.06-0.27-0.07-0.55-0.32-0.67c-0.05-0.03-5.05-2.52-3.78-5.19
				c0.4-0.84,3.48-0.79,5.55-0.43c0.22,0.04,0.45-0.05,0.58-0.23c0.13-0.18,0.15-0.42,0.05-0.62c-0.61-1.2-1.83-4.59-0.27-5.86
				c1.18-0.96,3.51,1.27,4.23,2.13c0.14,0.16,0.36,0.24,0.56,0.2c0.21-0.04,0.38-0.19,0.46-0.39c0.46-1.33,1.58-3.61,2.61-4.09
				c0.21-0.09,0.39-0.1,0.56-0.04c1.35,0.52,1.73,1.62,2.21,3.01c0.39,1.13,0.83,2.41,1.91,3.43c0.29,0.28,0.6,0.6,0.95,0.96
				c2.21,2.29,5.81,6.01,15.22,9.84c7.23,9.89,20.64,14.29,42.17,14.29c20.58,0,34.35-3.83,42-11.85
				c11.2-3.82,15.29-7.83,17.73-10.22c0.36-0.35,0.68-0.67,0.98-0.93c1.11-1,1.59-2.26,2.01-3.38c0.52-1.38,0.93-2.47,2.29-2.95
				c0.18-0.06,0.36-0.05,0.56,0.05c1.02,0.51,2.07,2.82,2.5,4.16c0.07,0.2,0.23,0.36,0.44,0.4c0.21,0.04,0.43-0.03,0.57-0.19
				c0.75-0.84,3.13-3.01,4.29-2.01c1.53,1.32,0.21,4.67-0.43,5.85c-0.11,0.2-0.09,0.44,0.04,0.63c0.13,0.18,0.35,0.28,0.58,0.25
				c2.08-0.31,5.16-0.27,5.53,0.58C338.06,103.53,332.99,105.89,332.94,105.92z M303.06,177.19c-1.51,1.77-2.94,3.24-4.34,4.45
				c-0.23-0.52-0.7-1.1-1.6-1.45c0.01-0.01,0.03-0.02,0.04-0.03c0.94-1.02,1.25-2.9,0.68-4.19c-0.36-0.82-0.99-1.34-1.86-1.55
				c0.4-1.12,0.34-2.52-0.22-3.55c-0.53-0.98-1.43-1.51-2.55-1.53c0.45-1.93-0.03-3.77-1.28-4.71c-0.83-0.62-1.72-0.94-2.65-0.94
				c-2.75,0-5.08,2.85-5.45,5.4c-0.07,0.46-0.06,0.9-0.01,1.31c-0.15,0.01-0.31,0.03-0.5,0.06c-0.06,0.02-0.59,0.2-1.38,0.58
				c1.15-4.87,4.14-13.38,10.57-17.49c2.37-1.52,4.7-2.28,6.91-2.28c5.37,0,8.84,4.53,9.77,7.38
				C310.47,162.63,308.5,170.84,303.06,177.19z M296.5,185.22c-0.4,0.24-0.88,0.37-1.39,0.37c-0.97,0-1.84-0.45-2.28-1.11
				c0.07-0.69,0.1-1.41,0.06-2.15c0.02-0.03,0.03-0.06,0.05-0.09c0.24-0.37,0.57-0.66,0.97-0.85c0.09,0.01,0.17,0.03,0.26,0.03
				c0.55,0,1.09-0.11,1.57-0.3c0.12,0.01,0.22,0.01,0.35,0.03c0.96,0.16,1.51,0.61,1.65,1.32
				C297.93,183.5,297.24,184.77,296.5,185.22z M271.62,194.82c-3.93,0-6.9-1.14-8.38-3.21c-1.09-1.53-1.28-3.48-0.53-5.65
				c1.25-3.66,4.15-4.44,7.21-5.27c2.25-0.61,4.58-1.24,5.98-3.15c3.2-4.36,7.7-5.89,7.67-5.89c2.41-0.32,4.2,1.17,5.2,2.41
				c2.32,2.87,3.49,7.77,2.72,11.38c-1.15,5.36-3.4,6.3-14.36,8.74C275.18,194.6,273.33,194.82,271.62,194.82z M244.84,194.82
				c-1.71,0-3.56-0.22-5.51-0.65c-10.96-2.44-13.21-3.38-14.36-8.74c-0.77-3.61,0.39-8.51,2.72-11.38c0.9-1.12,2.42-2.45,4.53-2.45
				c0.22,0,0.45,0.01,0.57,0.02c0.05,0.01,4.57,1.54,7.78,5.92c1.4,1.91,3.73,2.54,5.99,3.15c3.06,0.83,5.96,1.61,7.21,5.27
				c0.74,2.17,0.56,4.12-0.53,5.65C251.74,193.67,248.77,194.82,244.84,194.82z M219.96,185.22c-0.75-0.45-1.43-1.73-1.24-2.76
				c0.14-0.72,0.69-1.16,1.65-1.32c0.12-0.02,0.23-0.02,0.35-0.03c0.49,0.19,1.02,0.3,1.57,0.3c0.09,0,0.17-0.02,0.26-0.03
				c0.39,0.2,0.72,0.48,0.97,0.85c0.02,0.03,0.03,0.06,0.05,0.09c-0.04,0.74-0.01,1.45,0.06,2.15c-0.44,0.66-1.31,1.11-2.28,1.11
				C220.84,185.59,220.36,185.47,219.96,185.22z M207.28,158.66c0.93-2.85,4.4-7.38,9.77-7.38c2.21,0,4.54,0.77,6.91,2.28
				c6.45,4.12,9.44,12.66,10.58,17.5c-0.83-0.4-1.4-0.59-1.5-0.62c-0.13-0.02-0.26-0.02-0.39-0.02c0.05-0.41,0.06-0.85-0.01-1.32
				c-0.37-2.56-2.7-5.4-5.45-5.4c-0.93,0-1.82,0.32-2.65,0.94c-1.25,0.94-1.73,2.78-1.28,4.71c-1.11,0.02-2.01,0.55-2.55,1.53
				c-0.56,1.03-0.62,2.43-0.22,3.55c-0.87,0.2-1.5,0.73-1.86,1.55c-0.56,1.29-0.26,3.16,0.68,4.19c0.01,0.01,0.03,0.02,0.04,0.03
				c-0.9,0.35-1.37,0.93-1.6,1.45c-1.41-1.22-2.83-2.68-4.35-4.45C207.96,170.84,205.99,162.63,207.28,158.66z M285,169.28
				c0.3-2.07,2.19-4.38,4.27-4.38c0.67,0,1.32,0.24,1.94,0.7c0.96,0.72,1.25,2.35,0.71,3.98c-0.42,1.24-1.4,2.56-2.99,2.88
				c-1.17-1.14-2.49-1.82-3.91-2C284.93,170.02,284.95,169.6,285,169.28z M294.63,174.5c-0.54,0.82-1.58,1.36-2.66,1.36
				c-0.27,0-0.51-0.04-0.75-0.1c-0.41-0.85-0.88-1.63-1.42-2.32c1.45-0.51,2.45-1.66,3-2.88c0.12-0.02,0.25-0.03,0.36-0.03
				c0.69,0,1.21,0.31,1.54,0.91C295.18,172.33,295.15,173.7,294.63,174.5z M296.74,176.46c0.42,0.95,0.09,2.29-0.47,2.9
				c-0.5,0.54-1.28,0.86-2.11,0.86c-0.64,0-1.22-0.21-1.63-0.54c-0.14-0.69-0.32-1.36-0.54-2.02c0.03-0.13,0.05-0.25,0.1-0.37
				c0.04-0.09,0.1-0.16,0.15-0.24c1.21-0.07,2.34-0.62,3.09-1.49C296.01,175.6,296.5,175.9,296.74,176.46z M225.24,175.75
				c-0.23,0.06-0.48,0.1-0.75,0.1c-1.08,0-2.13-0.53-2.66-1.36c-0.52-0.8-0.55-2.17-0.07-3.05c0.33-0.61,0.85-0.91,1.54-0.91
				c0.11,0,0.24,0.01,0.36,0.03c0.55,1.21,1.55,2.37,3,2.87C226.12,174.12,225.65,174.91,225.24,175.75z M223.92,179.68
				c-0.41,0.34-0.99,0.54-1.63,0.54c-0.82,0-1.61-0.32-2.11-0.86c-0.56-0.61-0.89-1.95-0.47-2.9c0.25-0.56,0.73-0.86,1.41-0.91
				c0.74,0.87,1.87,1.41,3.09,1.49c0.05,0.08,0.11,0.15,0.15,0.24c0.05,0.12,0.07,0.25,0.1,0.38
				C224.24,178.31,224.06,178.99,223.92,179.68z M227.53,172.45c-1.58-0.32-2.57-1.63-2.98-2.87c-0.54-1.63-0.25-3.26,0.71-3.98
				c0.62-0.46,1.27-0.7,1.94-0.7c2.08,0,3.97,2.31,4.27,4.38c0.05,0.33,0.07,0.75-0.02,1.17
				C230.01,170.63,228.69,171.31,227.53,172.45z M254.88,185.56c-1.46-4.25-4.95-5.2-8.03-6.03c-2.15-0.58-4.18-1.13-5.33-2.71
				c-1.8-2.46-3.95-4.05-5.63-5.04c-0.35-1.7-0.93-3.97-1.86-6.4c5.38,0.67,13.18,1.35,22.74,1.35c9.07,0,18.37-0.61,25.61-1.25
				c-0.9,2.4-1.48,4.63-1.82,6.3c-1.67,0.98-3.81,2.58-5.62,5.03c-1.16,1.58-3.19,2.13-5.33,2.71c-3.08,0.83-6.57,1.78-8.03,6.03
				c-0.67,1.96-0.68,3.78-0.05,5.37c-2.04,0.14-4.24,0.16-6.61,0.04C255.56,189.38,255.56,187.54,254.88,185.56z M209.89,92.18
				c-5.39-0.66-11.98-3.45-12.22-13.18c-0.1-4.23,0.93-7.48,3.06-9.67c2.28-2.34,5.45-3.1,8.08-3.28
				C207.85,76.3,208.68,85.93,209.89,92.18z M211.2,92.64c-2.6-12.61-3.8-41.02,10.24-58.25c7.78-9.54,19.18-14.38,33.88-14.38
				c7.01,0,13.33,0.77,18.96,2.29c-3.34,5.76-9.46,6.97-15.99,7.77c-0.33,0.04-0.56,0.34-0.52,0.66c0.04,0.3,0.29,0.52,0.59,0.52
				c0.02,0,0.05,0,0.07,0c6.94-0.85,13.45-2.17,17.03-8.62c8.25,2.43,14.95,6.52,19.98,12.28c15.56,17.79,11.62,47.14,10.14,58.18
				c-2.43,18.09-17.17,26.15-47.81,26.15C228.97,119.25,215.04,111.29,211.2,92.64z M306.9,92.26c0.77-5.82,1.97-15.65,1.16-26.25
				c2.74,0.09,6.27,0.77,8.74,3.31c2.13,2.19,3.16,5.44,3.06,9.67C319.62,89.18,312.41,91.77,306.9,92.26z"/>
			<path class="st10" d="M258.77,106.29c0.22,0,0.45-0.01,0.67-0.02c6.3-0.29,11.36-4.58,13.1-8.66c0.96-2.24,0.82-4.31-0.37-5.67
				c-2.05-2.34-9.28-3.6-15.05-3.6c-3.01,0-10.06,0.38-10.59,3.9c-0.5,3.28,0.71,7.17,3.07,9.92
				C251.21,104.05,254.11,106.29,258.77,106.29z M247.7,92.43c0.27-1.75,3.96-2.89,9.41-2.89c6.27,0,12.62,1.43,14.16,3.19
				c1.2,1.37,0.62,3.35,0.17,4.41c-1.56,3.65-6.31,7.67-12.05,7.93c-4.53,0.2-7.37-1.92-8.89-3.69
				C248.35,98.9,247.26,95.38,247.7,92.43z"/>
			<path class="st10" d="M239.05,75.46c2.57,0,4.65-2.11,4.65-4.72c0-2.61-2.08-4.72-4.65-4.72c-2.57,0-4.65,2.11-4.65,4.72
				C234.4,73.35,236.48,75.46,239.05,75.46z M237.78,67.34c0.85,0,1.54,0.7,1.54,1.56c0,0.86-0.69,1.56-1.54,1.56
				c-0.85,0-1.54-0.7-1.54-1.56C236.25,68.04,236.93,67.34,237.78,67.34z"/>
			<path class="st10" d="M280.27,75.46c2.57,0,4.65-2.11,4.65-4.72c0-2.61-2.08-4.72-4.65-4.72c-2.57,0-4.65,2.11-4.65,4.72
				C275.62,73.35,277.7,75.46,280.27,75.46z M279,67.34c0.85,0,1.54,0.7,1.54,1.56c0,0.86-0.69,1.56-1.54,1.56
				c-0.85,0-1.54-0.7-1.54-1.56C277.47,68.04,278.15,67.34,279,67.34z"/>
			<path class="st10" d="M258.61,157.37c-0.33,0-0.6,0.27-0.6,0.6v2.25c0,0.33,0.27,0.6,0.6,0.6s0.6-0.27,0.6-0.6v-2.25
				C259.2,157.64,258.94,157.37,258.61,157.37z"/>
		</g>
	</g>
</g>
<g>
	<ellipse class="st0" cx="162.75" cy="239.25" rx="122.77" ry="28.75"/>
	<g>
		<path class="st11" d="M98.73,219.01c-1.97,5.41-4.38,10.21-7,13.4c-8.42,10.23-16.46,14.26-20.05,13.41
			c-3.55-0.84-3.59-5.51-3.59-5.71c0-0.43-0.34-0.77-0.76-0.79c-4.44-0.11-9.25-1.09-9.34-2.39c-0.14-1.93,2.85-3.9,4.01-4.5
			c0.26-0.14,0.43-0.41,0.43-0.71c0-0.3-0.17-0.57-0.44-0.7c-1.09-0.53-4.08-2.42-3.51-4.11c0.63-1.88,3.75-2.89,4.9-3.12
			c0.38-0.08,0.65-0.42,0.63-0.81c-0.02-0.39-0.33-0.71-0.72-0.74c-0.41-0.03-1.65-0.27-2.03-0.92c-0.2-0.35-0.15-0.84,0.16-1.47
			c0.22-0.46,0.65-0.89,2.25-0.89c0.54,0,1.12,0.04,1.71,0.09c0.67,0.05,1.36,0.1,2.04,0.1c1.49,0,3.62-0.22,5.02-2.08
			c4.13-5.51,7.25-18.82,8.98-27.8C85.13,198.4,90.5,209.69,98.73,219.01z"/>
		<path class="st11" d="M83.07,189.21c0.03,0,0.06,0,0.09,0c6.18,0,11.85-0.28,17.04-0.85c2.73,6.35,6.05,16.14,6.05,26.08
			c0,3.41-0.11,6.57-0.29,9.48C94.54,214.24,87.6,200.21,83.07,189.21z"/>
		<path class="st11" d="M256.43,228.96c-2.94-6.09-6.28-11.38-9.28-14.03c-2.12-1.87-4.74-2.82-7.81-2.82c-2.22,0-4.55,0.5-6.9,1.26
			c1.87-4.87,3.23-10.5,3.83-16.28c4.92-4.4,10.32-8.71,15.62-8.71c1.41,0,2.78,0.31,4.08,0.93c9.21,4.4,26.37,26.46,27.42,35.22
			c0.09,0.77,0.08,1.79-0.49,2.26c-3.15,2.56-6.42,3.76-10.27,3.76c-2.59,0-5.09-0.53-7.51-1.05c-1.57-0.34-3.04-0.65-4.5-0.82
			c-0.44-0.05-0.87-0.07-1.3-0.07C258.37,228.61,257.41,228.73,256.43,228.96z"/>
		<path class="st2" d="M230.45,214.07c-2.94,1.12-5.88,2.57-8.63,3.93c-3.51,1.74-6.83,3.38-9.35,3.91
			c-3.31,0.68-5.82-2.49-8.72-6.29c-3.81-4.97-8.19-10.69-16.26-9.83c-3.3,0.35-10.07,2.31-16.02,7.06c3.3-8.8,9.89-29.81,8.69-54.7
			c1.62-0.35,6.31-1.22,12.63-1.22c7.56,0,18.93,1.28,30.21,7.38c8.31,4.5,12.68,15.13,12,29.19
			C234.64,200.78,232.92,208.09,230.45,214.07z"/>
		<path class="st11" d="M162.22,232.09c2.51-18.27,19.63-24.13,25.44-24.74c7.22-0.77,11.28,4.56,14.85,9.22c2.75,3.6,5.36,7,9.02,7
			c0.42,0,0.84-0.04,1.27-0.13c2.71-0.56,6.12-2.25,9.73-4.04c5.42-2.69,11.57-5.73,16.83-5.73c2.71,0,4.92,0.79,6.77,2.43
			c7.64,6.76,18.09,32.68,16.69,41.4c-0.12,0.77-0.41,1.75-1.09,2.04c-2.25,0.96-4.39,1.43-6.55,1.43c-4.33,0-7.87-1.89-11.3-3.71
			c-1.41-0.75-2.75-1.46-4.1-2.02c-3.59-1.48-7.87-0.89-14.69,0.32c-4.46,0.79-10.02,1.77-17.54,2.49c-1.38,0.13-2.83,0.2-4.33,0.2
			c-12.41,0-29.07-4.69-36.9-13.67C162.98,240.76,161.6,236.56,162.22,232.09z"/>
		<path class="st11" d="M107.82,214.44c0-9.97-3.25-19.76-6.01-26.27c21.47-2.65,34.41-10.5,40.77-24.69
			c0.74,0.07,1.47,0.11,2.18,0.11c1.15,0,2.23-0.1,3.23-0.28c4.26-0.81,7.93-1.6,11.17-2.29c7.85-1.68,13.39-2.85,19.43-2.72
			c1.33,28-7.28,50.98-9.71,56.85c-3.96,3.96-7.21,9.39-8.21,16.72c-0.26,1.88-0.19,3.72,0.18,5.5c-2.87,0.5-6.53,0.91-10.87,0.91h0
			c-4.53,0-9.12-0.45-13.75-1.31c0.22-1.93,0.5-4.01,0.78-6.14c0.79-5.98,1.6-12.16,1.6-17.11c0-9.62-3.2-29.63-3.23-29.83
			c-0.07-0.43-0.47-0.72-0.9-0.65c-0.43,0.07-0.72,0.47-0.65,0.9c0.03,0.2,3.21,20.09,3.21,29.59c0,4.85-0.81,10.98-1.59,16.91
			c-0.75,5.67-1.45,11.03-1.27,14.28c0.15,2.72,1.51,5.79,2.82,8.75c2.05,4.62,3.16,7.49,1.21,8.39c-3.53,1.63-6.82-4.28-7.45-5.5
			c-0.04-0.08-0.08-0.17-0.12-0.24c-0.2-0.38-0.66-0.52-1.05-0.33c-0.38,0.19-0.54,0.65-0.35,1.04c0.01,0.02,0.04,0.08,0.08,0.17
			c0.38,0.81,2.02,4.88-1.95,7.43c-0.72,0.47-1.38,0.57-2.01,0.3c-2.3-0.95-3.9-6.13-4.31-8.04c-0.09-0.41-0.48-0.67-0.89-0.61
			c-0.41,0.06-0.7,0.44-0.66,0.85c0.18,1.85,0.22,7.1-1.71,9.09c-0.57,0.58-1.25,0.85-2.12,0.79c-4.98-0.31-5.68-6.89-5.71-7.17
			c-0.03-0.27-0.19-0.51-0.43-0.63c-0.24-0.12-0.53-0.11-0.76,0.03c-2.91,1.79-6.76,2.35-9.37,1.37c-1.41-0.53-2.32-1.45-2.71-2.72
			c-0.58-1.89,2.05-3.76,4.59-5.57c2.76-1.96,5.38-3.82,4.72-6.22c-0.47-1.71-0.1-5.1,0.42-9.79
			C107.01,230.93,107.82,223.56,107.82,214.44z"/>
		<path class="st11" d="M158.11,122.05c2.81,2.88,4.16,7.15,4.02,12.7c-0.31,12.79-8.96,16.46-16.05,17.32
			c1.59-8.2,2.68-20.86,1.41-34.33C150.94,117.97,155.11,118.98,158.11,122.05z"/>
		<path class="st11" d="M5.6,122.05c3.26-3.34,7.88-4.23,11.49-4.35c-1.06,13.92,0.51,26.84,1.53,34.49
			c-7.24-0.64-16.71-4.05-17.04-17.44C1.44,129.2,2.79,124.92,5.6,122.05z"/>
		<path class="st11" d="M20.34,153.28c3.19,23.76,22.56,34.36,62.81,34.36c37.85,0,56.16-10.46,61.2-34.97
			c3.41-16.57,4.99-53.89-13.46-76.53c-10.22-12.54-25.2-18.9-44.51-18.9c-9.21,0-17.52,1.02-24.91,3.01
			c4.39,7.56,12.43,9.16,21,10.21c0.43,0.05,0.74,0.44,0.68,0.87c-0.05,0.4-0.39,0.69-0.78,0.69c-0.03,0-0.06,0-0.1-0.01
			c-9.12-1.11-17.67-2.84-22.37-11.33c-10.84,3.19-19.64,8.56-26.26,16.13C13.22,100.2,18.39,138.76,20.34,153.28z M113.87,123.91
			c0,3.43-2.73,6.21-6.11,6.21c-3.37,0-6.11-2.78-6.11-6.21c0-3.43,2.73-6.21,6.11-6.21C111.14,117.7,113.87,120.48,113.87,123.91z
			 M64.24,151.77c2.69-3.07,12.2-4.73,19.78-4.73c3.95,0,13.22,0.5,13.92,5.13c0.65,4.31-0.93,9.42-4.03,13.03
			c-2.12,2.47-5.94,5.41-12.06,5.41c-0.29,0-0.59-0.01-0.89-0.02c-8.28-0.38-14.92-6.01-17.21-11.37
			C62.5,156.27,62.68,153.56,64.24,151.77z M47.5,123.91c0-3.43,2.73-6.21,6.11-6.21s6.11,2.78,6.11,6.21
			c0,3.43-2.73,6.21-6.11,6.21S47.5,127.34,47.5,123.91z"/>
		<path class="st3" d="M84.02,148.61c7.17,0,12.02,1.49,12.37,3.79c0.59,3.88-0.85,8.5-3.67,11.77c-2,2.33-5.71,5.12-11.68,4.85
			c-7.55-0.35-13.79-5.63-15.84-10.43c-0.59-1.39-1.35-4,0.22-5.8C67.45,150.49,75.79,148.61,84.02,148.61z"/>
		<ellipse class="st4" cx="109.43" cy="121.49" rx="2.02" ry="2.05"/>
		<ellipse class="st4" cx="55.27" cy="121.49" rx="2.02" ry="2.05"/>
		<circle class="st5" cx="112.43" cy="147.1" r="8.66"/>
		<circle class="st5" cx="48.15" cy="147.1" r="8.66"/>
		<path class="st12" d="M40.2,180.56c17.07,6.48,36.71,5.91,53.35-1.6c16.65-7.51,30.08-21.89,36.41-39.02
			c9.29-25.16,1.93-55.86-18.46-73.28c-3.62-3.1-7.58-5.76-11.65-8.25c12.93,2.35,23.34,8.29,31.05,17.74
			c18.45,22.64,16.87,59.96,13.46,76.53c-5.05,24.51-23.35,34.97-61.2,34.97C64.51,187.64,50.35,185.36,40.2,180.56z"/>
		<path class="st12" d="M147.74,138.71c3.52-0.74,7.1-1.65,9.89-3.89c1.79-1.44,3.08-3.3,4.1-5.34c0.3,1.6,0.45,3.35,0.4,5.27
			c-0.31,12.79-8.96,16.46-16.05,17.32C146.78,148.4,147.39,143.84,147.74,138.71z"/>
		<path class="st12" d="M1.58,134.75c-0.06-2.37,0.17-4.49,0.65-6.39c3.78,6.66,9.14,12.44,15.52,16.69c0.29,2.69,0.6,5.1,0.87,7.13
			C11.37,151.54,1.91,148.13,1.58,134.75z"/>
		<path class="st12" d="M166.31,244.58c-3.33-3.82-4.71-8.02-4.1-12.49c0.92-6.73,3.84-11.76,7.43-15.48
			c0.85,3.36,2.01,6.62,3.58,9.71c3.87,7.59,10.24,14.06,18.18,17.13c11.49,4.44,24.43,1.39,36.05-2.69
			c3.56-1.25,7.34-2.61,11.01-1.75c5.49,1.28,10.03,7.32,15.44,5.74c2.69-0.78,4.39-3.36,4.91-6.17c2.84,7.58,4.62,15,3.98,18.93
			c-0.12,0.77-0.41,1.75-1.09,2.04c-2.25,0.96-4.39,1.43-6.55,1.43c-4.33,0-7.87-1.89-11.3-3.71c-1.41-0.75-2.75-1.46-4.1-2.02
			c-3.59-1.48-7.87-0.89-14.69,0.32c-4.46,0.79-10.02,1.77-17.54,2.49c-1.38,0.13-2.83,0.2-4.33,0.2
			C190.8,258.24,174.14,253.55,166.31,244.58z"/>
		<path class="st12" d="M241.03,209.26c5.62-0.8,11.83-3.21,16.6-0.13c2.38,1.53,3.81,4.14,5.62,6.32c1.81,2.18,4.53,4.11,7.29,3.43
			c4.08-1,4.75-6.31,4.46-10.6c4.51,6.24,7.96,12.48,8.41,16.26c0.09,0.77,0.08,1.79-0.49,2.26c-3.15,2.56-6.42,3.76-10.27,3.76
			c-2.59,0-5.09-0.53-7.51-1.05c-1.57-0.34-3.04-0.65-4.5-0.82c-0.44-0.05-0.87-0.07-1.3-0.07c-0.96,0-1.91,0.13-2.9,0.35
			c-2.94-6.09-6.28-11.38-9.28-14.03c-2.12-1.87-4.74-2.82-7.81-2.82c-2.22,0-4.55,0.5-6.9,1.26c0.5-1.3,0.96-2.66,1.38-4.06
			C236.21,209.6,238.64,209.6,241.03,209.26z"/>
		<path class="st12" d="M105.81,197.46c-0.2,0.15-0.37,0.31-0.55,0.47c-1.06-3.67-2.29-7.02-3.45-9.76
			c14.59-1.8,25.24-6.01,32.56-12.98c3.6,2.04,6.93,4.77,10.25,7.27c8.91,6.73,19.26,12.34,30.08,14.44
			c-2.19,9-4.68,15.5-5.82,18.25c-3.96,3.96-7.21,9.39-8.21,16.72c-0.26,1.88-0.19,3.72,0.18,5.5c-2.87,0.5-6.53,0.91-10.87,0.91h0
			c-4.53,0-9.12-0.45-13.75-1.31c0.22-1.93,0.5-4.01,0.78-6.14c0.79-5.98,1.6-12.16,1.6-17.11c0-9.62-3.2-29.63-3.23-29.83
			c-0.07-0.43-0.47-0.72-0.9-0.65c-0.43,0.07-0.72,0.47-0.65,0.9c0.03,0.2,3.21,20.09,3.21,29.59c0,4.85-0.81,10.98-1.59,16.91
			c-0.75,5.67-1.45,11.03-1.27,14.28c0.15,2.72,1.51,5.79,2.82,8.75c2.05,4.62,3.16,7.49,1.21,8.39c-3.53,1.63-6.82-4.28-7.45-5.5
			c-0.04-0.08-0.08-0.17-0.12-0.24c-0.2-0.38-0.66-0.52-1.05-0.33c-0.38,0.19-0.54,0.65-0.35,1.04c0.01,0.02,0.04,0.08,0.08,0.17
			c0.38,0.81,2.02,4.88-1.95,7.43c-0.29,0.19-0.57,0.3-0.84,0.37c0.8-2.26,1.52-4.52,1.62-6.9c0.03-0.8-0.01-1.62-0.39-2.33
			c-0.45-0.84-1.3-1.37-2.06-1.95c-6.92-5.23-7.84-15.23-6.93-23.86c0.91-8.62,3-17.62-0.02-25.74c-0.98-2.64-2.57-5.17-4.96-6.66
			C111.39,196.06,108.1,195.81,105.81,197.46z"/>
		<path class="st12" d="M57.99,236.94c-0.01-0.11,0.03-0.22,0.04-0.33c8.09,0.47,16.36-1.91,22.85-6.79
			c5.9-4.44,10.22-10.87,12.31-17.94c1.69,2.45,3.53,4.85,5.54,7.13c-1.97,5.41-4.38,10.21-7,13.4
			c-8.42,10.23-16.46,14.26-20.05,13.41c-3.55-0.84-3.59-5.51-3.59-5.71c0-0.43-0.34-0.77-0.76-0.79
			C62.89,239.22,58.08,238.24,57.99,236.94z"/>
		<path class="st7" d="M228.77,191.13c2.11-1,4.27-2.29,6.17-3.82c0.13,1.98,0.16,4.03,0.05,6.18c-0.36,7.29-2.08,14.6-4.54,20.58
			c-2.94,1.12-5.88,2.57-8.63,3.93c-3.51,1.74-6.83,3.38-9.35,3.91c-3.31,0.68-5.82-2.49-8.72-6.29
			c-3.81-4.97-8.19-10.69-16.26-9.83c-3.3,0.35-10.07,2.31-16.02,7.06c1.36-3.62,3.27-9.33,4.97-16.5
			C193.82,200.47,212.61,198.8,228.77,191.13z"/>
		<path class="st8" d="M84.02,148.61c7.17,0,12.02,1.49,12.37,3.79c0.29,1.93,0.08,4.05-0.55,6.09c-8.79-4.56-20.06-4.21-28.4,1.2
			c-0.4,0.26-0.81,0.54-1.22,0.82c-0.41-0.64-0.76-1.28-1.03-1.91c-0.59-1.39-1.35-4,0.22-5.8
			C67.45,150.49,75.79,148.61,84.02,148.61z"/>
		<path class="st9" d="M37.34,78.04c3.61-4.07,8.7-9.11,14.14-10.46c0.6-0.15,0.97,0.56,0.58,1c-3.42,3.91-8.11,6.64-11.73,10.41
			c-2.24,2.33-4.21,4.91-6.04,7.57c-1.26,1.84-1.94,3.59-3.81,4.82c-0.44,0.29-1.03-0.09-1.03-0.59
			C29.46,86.19,34.42,81.33,37.34,78.04z"/>
		<path class="st9" d="M12.84,121.41c0.82,0.3,0.78,1.32,0,1.63c-1.09,0.43-2.24,0.6-3.29,1.17c-0.99,0.54-1.75,1.4-2.78,1.89
			c-0.64,0.31-1.21-0.19-1.12-0.86C6.04,122.49,10.35,120.5,12.84,121.41z"/>
		<path class="st9" d="M232.21,219.94c0.94-2.84,4.33-3.39,7-3.05c2.06,0.26,6.34,2.06,5.59,4.78c-0.11,0.38-0.44,0.6-0.82,0.62
			c-0.08,0.01-0.16,0.01-0.23,0.02c-0.35,0.02-0.71-0.27-0.79-0.6c-0.02-0.07-0.03-0.14-0.05-0.21c-0.04-0.19,0.01-0.37,0.1-0.53
			c-0.66-1.27-3.97-1.9-4.89-1.94c-1.88-0.08-3.55,0.98-5.27,1.55C232.48,220.69,232.09,220.3,232.21,219.94z"/>
		<path class="st9" d="M154.38,166.32c1.91-1.51,4.22-1.81,6.55-2.33c2.6-0.58,5.24-1.25,7.92-1.11c0.55,0.03,0.81,0.78,0.29,1.07
			c-2.33,1.3-4.96,1.86-7.54,2.47c-2.33,0.56-4.59,1.34-6.98,0.82C154.25,167.16,154.05,166.58,154.38,166.32z"/>
		<path class="st9" d="M109.46,230.74c0.13-0.88,1.64-0.88,1.77,0c0.54,3.67,0.47,7.77-0.18,11.41c-0.12,0.7-1.29,0.7-1.42,0
			C108.99,238.51,108.91,234.41,109.46,230.74z"/>
		<path class="st9" d="M71.18,221.94c0.46-1.62,2.12-2.85,3.17-4.12c1.39-1.7,2.29-3.69,3.62-5.41c0.43-0.56,1.27-0.24,1.14,0.48
			c-0.36,2.08-1.63,3.96-2.83,5.65c-1.05,1.48-2.6,3.71-4.52,3.99C71.42,222.57,71.07,222.32,71.18,221.94z"/>
		<g>
			<path class="st10" d="M4.48,120.95c-3.11,3.19-4.61,7.84-4.47,13.84c0.37,15.1,11.75,18.39,18.82,18.98
				c3.3,23.51,22.72,34.81,61.01,35.42c-1.77,9.05-4.87,21.89-8.67,26.96c-0.76,1.02-1.89,1.45-3.77,1.45
				c-0.64,0-1.29-0.05-1.93-0.09c-0.63-0.05-1.25-0.09-1.82-0.09c-1.31,0-2.9,0.2-3.66,1.78c-0.54,1.13-0.58,2.12-0.1,2.94
				c0.22,0.37,0.51,0.66,0.84,0.89c-1.46,0.62-3.17,1.69-3.75,3.41c-0.79,2.36,1.56,4.33,3.1,5.33c-1.51,0.99-3.83,2.92-3.66,5.3
				c0.21,3.06,7.09,3.69,10.14,3.82c0.17,1.68,0.96,5.58,4.75,6.47c0.43,0.1,0.9,0.15,1.39,0.15c5.24,0,13.18-5.53,20.23-14.1
				c2.59-3.15,4.98-7.81,6.96-13.1c1.84,1.97,3.81,3.83,5.93,5.55c-0.28,3.96-0.66,7.41-0.97,10.28c-0.55,5.04-0.92,8.37-0.37,10.37
				c0.37,1.35-1.91,2.96-4.11,4.53c-2.86,2.03-6.1,4.33-5.19,7.31c0.54,1.74,1.8,3.03,3.66,3.73c2.78,1.05,6.56,0.66,9.73-0.94
				c0.6,2.94,2.57,7.15,7,7.42c0.11,0.01,0.22,0.01,0.32,0.01c1.19,0,2.2-0.43,3.02-1.27c1.28-1.32,1.84-3.51,2.08-5.53
				c0.85,1.94,2.09,3.91,3.76,4.6c0.77,0.32,2,0.5,3.46-0.43c2.31-1.49,3.17-3.47,3.31-5.33c1.75,2.16,4.36,4.24,7.33,2.87
				c3.49-1.61,1.59-5.91-0.43-10.45c-1.26-2.83-2.56-5.76-2.69-8.2c-0.09-1.6,0.06-3.79,0.31-6.29c4.69,0.86,9.34,1.32,13.92,1.32h0
				c4.53,0,8.32-0.43,11.27-0.95c0.74,2.34,2.03,4.58,3.89,6.7c8.13,9.32,25.31,14.2,38.08,14.2c1.54,0,3.05-0.07,4.48-0.2
				c7.59-0.72,13.18-1.71,17.67-2.5c3.99-0.71,6.88-1.22,9.35-1.22c1.71,0,3.13,0.25,4.46,0.8c1.28,0.53,2.58,1.22,3.96,1.95
				c3.43,1.83,7.32,3.9,12.04,3.9c2.38,0,4.72-0.51,7.16-1.56c1.07-0.46,1.75-1.54,2.02-3.23c0.89-5.56-2.57-17.29-7.23-27.33
				c1.13-0.22,2.22-0.31,3.33-0.18c1.38,0.15,2.82,0.46,4.34,0.79c2.5,0.53,5.08,1.09,7.84,1.09c4.18,0,7.86-1.34,11.26-4.11
				c0.9-0.73,1.26-1.96,1.05-3.66c-1.11-9.31-18.56-31.8-28.3-36.45c-1.51-0.72-3.11-1.09-4.75-1.09c-5.4,0-10.63,3.83-15.44,8.02
				c0.03-0.42,0.07-0.84,0.09-1.26c0.72-14.68-3.96-25.85-12.82-30.64c-11.56-6.25-23.21-7.57-30.95-7.57
				c-7.56,0-12.73,1.19-13.54,1.39c-6.48-0.23-12.2,0.98-20.42,2.74c-3.23,0.69-6.89,1.47-11.13,2.28c-0.9,0.17-1.88,0.26-2.93,0.26
				c-0.5,0-1.01-0.02-1.53-0.06c1.03-2.56,1.86-5.33,2.51-8.29c7.09-0.78,17.6-4.4,17.96-18.89c0.15-5.99-1.36-10.65-4.47-13.84
				c-3.41-3.49-8.1-4.58-11.9-4.8c-1.55-14.39-5.86-29.52-15.21-40.99c-10.53-12.92-25.92-19.48-45.73-19.48
				c-9.49,0-18.05,1.07-25.66,3.16c-3.13-6.69-2-15.38,2.81-20.95c3.16-3.66,7.47-5.63,11.53-5.33c3.97,0.32,7.73,3.6,8.95,7.8
				c0.99,3.43-0.03,6.58-2.79,8.65c-1.93,1.44-4.5,1.75-6.39,0.75c-1.99-1.04-3.03-3.65-2.22-5.57c0.17-0.4-0.02-0.86-0.42-1.03
				c-0.4-0.16-0.86,0.02-1.03,0.42c-1.11,2.68,0.23,6.14,2.94,7.56c2.41,1.26,5.65,0.91,8.05-0.89c3.32-2.48,4.54-6.25,3.36-10.34
				c-1.39-4.81-5.73-8.57-10.33-8.93c-4.56-0.35-9.36,1.83-12.85,5.86c-5.23,6.06-6.45,15.13-3.15,22.41
				c-11,3.28-19.95,8.79-26.72,16.52c-9.99,11.42-14,26.29-15.26,40.33C13.29,116.23,8.15,117.19,4.48,120.95z M20.34,153.28
				c-1.95-14.52-7.12-53.08,13.32-76.45c6.62-7.57,15.41-12.94,26.26-16.13c4.69,8.48,13.25,10.21,22.37,11.33
				c0.03,0,0.06,0.01,0.1,0.01c0.39,0,0.73-0.29,0.78-0.69c0.05-0.43-0.25-0.82-0.68-0.87c-8.57-1.05-16.61-2.65-21-10.21
				c7.39-1.99,15.7-3.01,24.91-3.01c19.32,0,34.29,6.36,44.51,18.9c18.45,22.64,16.87,59.96,13.46,76.53
				c-5.05,24.51-23.35,34.97-61.2,34.97C42.9,187.64,23.53,177.05,20.34,153.28z M72.42,217.08c4.13-5.51,7.25-18.82,8.98-27.8
				c3.73,9.11,9.09,20.41,17.32,29.72c-1.97,5.41-4.38,10.21-7,13.4c-8.42,10.23-16.46,14.26-20.05,13.41
				c-3.55-0.84-3.59-5.51-3.59-5.71c0-0.43-0.34-0.77-0.76-0.79c-4.44-0.11-9.25-1.09-9.34-2.39c-0.14-1.93,2.85-3.9,4.01-4.5
				c0.26-0.14,0.43-0.41,0.43-0.71c0-0.3-0.17-0.57-0.44-0.7c-1.09-0.53-4.08-2.42-3.51-4.11c0.63-1.88,3.75-2.89,4.9-3.12
				c0.38-0.08,0.65-0.42,0.63-0.81c-0.02-0.39-0.33-0.71-0.72-0.74c-0.41-0.03-1.65-0.27-2.03-0.92c-0.2-0.35-0.15-0.84,0.16-1.47
				c0.22-0.46,0.65-0.89,2.25-0.89c0.54,0,1.12,0.04,1.71,0.09c0.67,0.05,1.36,0.1,2.04,0.1C68.89,219.16,71.02,218.95,72.42,217.08
				z M106.42,236.31c0.59-5.38,1.4-12.75,1.4-21.86c0-9.97-3.25-19.76-6.01-26.27c21.47-2.65,34.41-10.5,40.77-24.69
				c0.74,0.07,1.47,0.11,2.18,0.11c1.15,0,2.23-0.1,3.23-0.28c4.26-0.81,7.93-1.6,11.17-2.29c7.85-1.68,13.39-2.85,19.43-2.72
				c1.33,28-7.28,50.98-9.71,56.85c-3.96,3.96-7.21,9.39-8.21,16.72c-0.26,1.88-0.19,3.72,0.18,5.5c-2.87,0.5-6.53,0.91-10.87,0.91
				h0c-4.53,0-9.12-0.45-13.75-1.31c0.22-1.93,0.5-4.01,0.78-6.14c0.79-5.98,1.6-12.16,1.6-17.11c0-9.62-3.2-29.63-3.23-29.83
				c-0.07-0.43-0.47-0.72-0.9-0.65c-0.43,0.07-0.72,0.47-0.65,0.9c0.03,0.2,3.21,20.09,3.21,29.59c0,4.85-0.81,10.98-1.59,16.91
				c-0.75,5.67-1.45,11.03-1.27,14.28c0.15,2.72,1.51,5.79,2.82,8.75c2.05,4.62,3.16,7.49,1.21,8.39c-3.53,1.63-6.82-4.28-7.45-5.5
				c-0.04-0.08-0.08-0.17-0.12-0.24c-0.2-0.38-0.66-0.52-1.05-0.33c-0.38,0.19-0.54,0.65-0.35,1.04c0.01,0.02,0.04,0.08,0.08,0.17
				c0.38,0.81,2.02,4.88-1.95,7.43c-0.72,0.47-1.38,0.57-2.01,0.3c-2.3-0.95-3.9-6.13-4.31-8.04c-0.09-0.41-0.48-0.67-0.89-0.61
				c-0.41,0.06-0.7,0.44-0.66,0.85c0.18,1.85,0.22,7.1-1.71,9.09c-0.57,0.58-1.25,0.85-2.12,0.79c-4.98-0.31-5.68-6.89-5.71-7.17
				c-0.03-0.27-0.19-0.51-0.43-0.63c-0.24-0.12-0.53-0.11-0.76,0.03c-2.91,1.79-6.76,2.35-9.37,1.37c-1.41-0.53-2.32-1.45-2.71-2.72
				c-0.58-1.89,2.05-3.76,4.59-5.57c2.76-1.96,5.38-3.82,4.72-6.22C105.53,244.38,105.9,240.99,106.42,236.31z M166.31,244.58
				c-3.33-3.82-4.71-8.02-4.1-12.49c2.51-18.27,19.63-24.13,25.44-24.74c7.22-0.77,11.28,4.56,14.85,9.22c2.75,3.6,5.36,7,9.02,7
				c0.42,0,0.84-0.04,1.27-0.13c2.71-0.56,6.12-2.25,9.73-4.04c5.42-2.69,11.57-5.73,16.83-5.73c2.71,0,4.92,0.79,6.77,2.43
				c7.64,6.76,18.09,32.68,16.69,41.4c-0.12,0.77-0.41,1.75-1.09,2.04c-2.25,0.96-4.39,1.43-6.55,1.43c-4.33,0-7.87-1.89-11.3-3.71
				c-1.41-0.75-2.75-1.46-4.1-2.02c-3.59-1.48-7.87-0.89-14.69,0.32c-4.46,0.79-10.02,1.77-17.54,2.49c-1.38,0.13-2.83,0.2-4.33,0.2
				C190.8,258.24,174.14,253.55,166.31,244.58z M260.63,228.68c-0.44-0.05-0.87-0.07-1.3-0.07c-0.96,0-1.91,0.13-2.9,0.35
				c-2.94-6.09-6.28-11.38-9.28-14.03c-2.12-1.87-4.74-2.82-7.81-2.82c-2.22,0-4.55,0.5-6.9,1.26c1.87-4.87,3.23-10.5,3.83-16.28
				c4.92-4.4,10.32-8.71,15.62-8.71c1.41,0,2.78,0.31,4.08,0.93c9.21,4.4,26.37,26.46,27.42,35.22c0.09,0.77,0.08,1.79-0.49,2.26
				c-3.15,2.56-6.42,3.76-10.27,3.76c-2.59,0-5.09-0.53-7.51-1.05C263.56,229.16,262.08,228.85,260.63,228.68z M230.45,214.07
				c-2.94,1.12-5.88,2.57-8.63,3.93c-3.51,1.74-6.83,3.38-9.35,3.91c-3.31,0.68-5.82-2.49-8.72-6.29
				c-3.81-4.97-8.19-10.69-16.26-9.83c-3.3,0.35-10.07,2.31-16.02,7.06c3.3-8.8,9.89-29.81,8.69-54.7
				c1.62-0.35,6.31-1.22,12.63-1.22c7.56,0,18.93,1.28,30.21,7.38c8.31,4.5,12.68,15.13,12,29.19
				C234.64,200.78,232.92,208.09,230.45,214.07z M105.96,223.92c-11.42-9.69-18.36-23.71-22.89-34.71c0.03,0,0.06,0,0.09,0
				c6.18,0,11.85-0.28,17.04-0.85c2.73,6.35,6.05,16.14,6.05,26.08C106.25,217.85,106.13,221.02,105.96,223.92z M147.49,117.74
				c3.46,0.23,7.62,1.23,10.62,4.31c2.81,2.88,4.16,7.15,4.02,12.7c-0.31,12.79-8.96,16.46-16.05,17.32
				C147.66,143.87,148.76,131.21,147.49,117.74z M1.58,134.75c-0.14-5.55,1.22-9.83,4.02-12.7c3.26-3.34,7.88-4.23,11.49-4.35
				c-1.06,13.92,0.51,26.84,1.53,34.49C11.37,151.54,1.91,148.13,1.58,134.75z"/>
			<path class="st10" d="M64.24,151.77c-1.56,1.79-1.74,4.5-0.49,7.45c2.29,5.36,8.93,10.99,17.21,11.37
				c0.3,0.01,0.6,0.02,0.89,0.02c6.12,0,9.94-2.94,12.06-5.41c3.1-3.61,4.68-8.72,4.03-13.03c-0.7-4.63-9.97-5.13-13.92-5.13
				C76.44,147.05,66.93,148.7,64.24,151.77z M65.42,152.81c2.02-2.31,10.37-4.19,18.6-4.19c7.17,0,12.02,1.49,12.37,3.79
				c0.59,3.88-0.85,8.5-3.67,11.77c-2,2.33-5.71,5.12-11.68,4.85c-7.55-0.35-13.79-5.63-15.84-10.43
				C64.61,157.21,63.85,154.61,65.42,152.81z"/>
			<path class="st10" d="M113.87,123.91c0-3.43-2.73-6.21-6.11-6.21c-3.37,0-6.11,2.78-6.11,6.21c0,3.43,2.73,6.21,6.11,6.21
				C111.14,130.11,113.87,127.34,113.87,123.91z M111.45,121.49c0,1.13-0.9,2.05-2.02,2.05s-2.02-0.92-2.02-2.05
				c0-1.13,0.9-2.05,2.02-2.05S111.45,120.36,111.45,121.49z"/>
			<path class="st10" d="M47.5,123.91c0,3.43,2.73,6.21,6.11,6.21s6.11-2.78,6.11-6.21c0-3.43-2.73-6.21-6.11-6.21
				S47.5,120.48,47.5,123.91z M53.25,121.49c0-1.13,0.9-2.05,2.02-2.05c1.12,0,2.02,0.92,2.02,2.05c0,1.13-0.9,2.05-2.02,2.05
				C54.15,123.54,53.25,122.62,53.25,121.49z"/>
		</g>
	</g>
</g>
<g>
	<ellipse class="st0" cx="397.06" cy="207.78" rx="115.66" ry="27.82"/>
	<g>
		<path class="st1" d="M444.94,179.1c-1.43,9.26-4.58,18.65-10.55,25.98c-1.64,2.01-3.44,3.79-5.4,5.37
			c0.11,0.21,0.26,0.37,0.52,0.49c1.64,0.78,5.46-0.33,6.79-0.83c0.24-0.09,0.51-0.04,0.71,0.12c0.2,0.17,0.29,0.42,0.25,0.68
			c-0.01,0.06-1.02,6.03,1.56,6.55c2.83,0.57,5.41-3.81,6.16-5.54c0.11-0.25,0.35-0.42,0.62-0.43c0.28-0.03,0.53,0.12,0.66,0.36
			c1.41,2.47,4.13,5.98,5.5,5.62c3.42-0.85,2.73-6.36,2.41-8.18c-1.05-2.88-2.23-6.94-3.74-12.25
			C448.87,191.62,447.08,185.35,444.94,179.1z"/>
		<path class="st1" d="M362.07,204.62c-7.22-8.25-10.14-18.99-11.07-29.13c-0.27-0.01-0.55-0.03-0.84-0.05
			c-2.72,7.42-4.92,15.11-6.77,21.6c-1.45,5.07-2.58,8.98-3.6,11.83c-0.23,1.12-1.42,7.67,2.33,8.6c1.38,0.38,4.09-3.15,5.5-5.62
			c0.13-0.24,0.39-0.39,0.66-0.36c0.27,0.01,0.51,0.18,0.62,0.43c0.76,1.73,3.34,6.09,6.16,5.54c2.17-0.43,1.85-4.99,1.56-6.55
			c-0.05-0.25,0.05-0.51,0.24-0.68c0.2-0.17,0.47-0.21,0.71-0.12c1.33,0.49,5.15,1.6,6.79,0.83c0.31-0.15,0.5-0.35,0.6-0.64
			c0.35-1.04,0.26-1.94-0.06-2.81C363.92,206.59,362.96,205.64,362.07,204.62z"/>
		<path class="st1" d="M350.85,173.6c-0.06,0.15-0.11,0.29-0.17,0.44c0.07,0,0.13,0.01,0.2,0.01
			C350.87,173.9,350.87,173.75,350.85,173.6z"/>
		<path class="st1" d="M405.67,217.62c11.78-0.9,21.06-5.4,27.61-13.44c6.39-7.84,9.44-18.12,10.63-28.01
			c-4.26-11.78-9.84-23-17.46-27.8c-0.42,0.48-0.84,0.91-1.29,1.26c-1.94,1.51-8.12,2.5-15.55,3.04c0.21,1.17,0.25,2.35,0.09,3.45
			c-0.51,3.34-6.62,3.84-10.22,3.84c-5.52,0-12.45-1.22-14.42-3.47c-0.82-0.93-1.12-2.2-0.92-3.62c-6.3-0.36-11.14-1.05-13.64-1.99
			c-1.49-0.56-2.79-1.21-3.96-1.96c-5.97,4.2-10.65,12.35-14.41,21.48c0.36,11.26,2.86,23.96,11.02,33.29
			c5.63,6.43,13.43,10.69,23.29,12.72c-1.95-4.25-1.95-9.39,0.23-13.59c3.38-6.52,9.74-7.8,16.5-8.63c0.39-0.06,0.75,0.23,0.8,0.62
			c0.05,0.39-0.23,0.75-0.62,0.8c-6.37,0.78-12.34,1.97-15.4,7.87c-2.1,4.05-1.89,9.25,0.31,13.26c4,0.7,8.3,1.06,12.93,1.06
			c0.99,0,1.96-0.03,2.91-0.08c0.06-0.17,0.14-0.34,0.19-0.52c0.7-2.42-0.02-4.64-1.96-6.1c-1.35-1.01-3.15-1.22-4.46-0.53
			c-1.37,0.72-2.09,2.52-1.54,3.84c0.15,0.37-0.02,0.79-0.39,0.94c-0.36,0.15-0.78-0.02-0.94-0.39c-0.84-2.01,0.17-4.6,2.2-5.66
			c1.8-0.94,4.2-0.68,5.99,0.65c2.45,1.83,3.36,4.62,2.48,7.64C405.67,217.6,405.67,217.61,405.67,217.62z M416.65,172.04
			c2.44,0,4.42,2.01,4.42,4.49c0,2.48-1.98,4.49-4.42,4.49s-4.42-2.01-4.42-4.49C412.24,174.05,414.21,172.04,416.65,172.04z
			 M377.47,181.02c-2.44,0-4.42-2.01-4.42-4.49c0-2.48,1.98-4.49,4.42-4.49c2.44,0,4.42,2.01,4.42,4.49
			C381.89,179.01,379.91,181.02,377.47,181.02z"/>
		<path class="st8" d="M395.18,153.15c-3.45,0-6.67-0.08-9.62-0.22c-0.15,0.87-0.09,1.84,0.57,2.6c1.41,1.62,7.52,2.98,13.34,2.98
			c5.11,0,8.56-1.03,8.8-2.62c0.15-1,0.11-2.07-0.1-3.14C404,153.02,399.51,153.15,395.18,153.15L395.18,153.15z"/>
		<ellipse class="st4" cx="417.86" cy="178.28" rx="1.46" ry="1.49"/>
		<ellipse class="st4" cx="378.67" cy="178.28" rx="1.46" ry="1.49"/>
		<path class="st1" d="M342.02,196.65c4.62-16.18,11.35-39.76,23.3-48.62c-4.5-3.52-6.95-9.24-11.36-19.48
			c-0.8-1.85-1.66-3.86-2.61-6.04c-3.5-8-9.94-15.06-15.63-21.29c-4.61-5.06-8.61-9.44-10.15-13.32
			c-4.89,12.72-23.69,70.11-22.27,100.95c0.06,1.29-1.53,2.58-4.83,5.15c-4.92,3.82-11.67,9.06-9.61,14.32
			c1.87,4.79,16.86,6.97,29.99,6.97h0c8.2,0,15.05-0.81,17.06-2.02C337.56,212.27,339.72,204.69,342.02,196.65z"/>
		<path class="st1" d="M495.34,193.99c-3.31-2.57-4.89-3.86-4.83-5.15c1.1-23.93-9.98-63.85-17.28-86.48c-2,2.56-4.82,4.1-8.66,6.16
			c-4.13,2.22-9.27,4.98-16.11,10.3c-9.6,7.47-14.27,16.16-17.67,22.51c-1.25,2.32-2.33,4.34-3.44,5.91
			c12.68,8.15,19.7,32.72,24.46,49.42c2.29,8.04,4.46,15.62,6.09,16.61c2.01,1.21,8.87,2.02,17.06,2.02
			c13.13,0,28.12-2.18,29.99-6.97C507,203.05,500.26,197.81,495.34,193.99z"/>
		<path class="st2" d="M327.05,82.27c-2.69,4.37,2.79,10.38,9.72,17.98c5.76,6.31,12.29,13.47,15.88,21.69
			c0.95,2.18,1.82,4.19,2.62,6.05c5.83,13.57,8.01,18.64,15.72,21.54c3.61,1.35,12.87,2.19,24.18,2.19
			c14.46,0,26.69-1.36,29.09-3.22c1.75-1.36,3.29-4.22,5.23-7.85c3.47-6.46,8.21-15.3,18.06-22.96c6.94-5.4,12.36-8.31,16.32-10.43
			c4.88-2.62,7.83-4.2,9.6-8.05c0.64-1.38,0.03-5.1-3.77-11.04c-8.47-13.24-32.99-35.65-71.13-35.65
			C363.77,52.5,339.04,62.8,327.05,82.27z"/>
		<path class="st6" d="M365.32,148.03c-4.5-3.52-6.95-9.24-11.36-19.48c-0.8-1.85-1.66-3.86-2.61-6.04
			c-1.02-2.34-2.32-4.59-3.76-6.78c0.06,5.49-0.4,10.93-2.31,16.03c-1.38,3.68-3.47,7.03-5.37,10.47
			c-7.04,12.79-11.46,27.02-12.88,41.56c-0.45,4.54-0.64,9.23-2.62,13.34c-2.37,4.92-7.14,8.42-12.34,10.11
			c-5.2,1.69-10.8,1.74-16.23,1.11c-2.57-0.3-5.37-0.97-7.33-2.5c-0.07,0.81,0.02,1.63,0.34,2.44c1.87,4.79,16.86,6.97,29.99,6.97h0
			c8.2,0,15.05-0.81,17.06-2.02c1.64-0.98,3.8-8.57,6.09-16.61C346.63,180.47,353.36,156.89,365.32,148.03z"/>
		<path class="st6" d="M504.94,208.31c0.37-0.94,0.45-1.88,0.31-2.82c-1.96,1.81-5.02,2.55-7.79,2.87
			c-5.43,0.63-11.03,0.59-16.23-1.11c-5.2-1.69-9.96-5.19-12.34-10.11c-1.98-4.11-2.17-8.8-2.62-13.34
			c-1.43-14.53-5.84-28.76-12.88-41.56c-1.89-3.44-3.99-6.8-5.37-10.47c-1.3-3.47-1.91-7.11-2.16-10.81
			c-7.88,6.94-12.01,14.61-15.09,20.36c-1.25,2.32-2.33,4.34-3.44,5.91c12.68,8.15,19.7,32.72,24.46,49.42
			c2.29,8.04,4.46,15.62,6.09,16.61c2.01,1.21,8.87,2.02,17.06,2.02C488.08,215.27,503.07,213.09,504.94,208.31z"/>
		<path class="st6" d="M364.91,207.5c-0.99-0.91-1.95-1.86-2.84-2.88c-7.22-8.25-10.14-18.99-11.07-29.13
			c-0.27-0.01-0.55-0.03-0.84-0.05c-1.37,3.74-2.61,7.54-3.74,11.23c2.13,6.42,5.19,12.68,10.25,17.14
			c2.62,2.32,5.83,4.26,7.66,7.15c0.01,0,0.02,0,0.03-0.01c0.31-0.15,0.5-0.35,0.6-0.64C365.32,209.27,365.23,208.37,364.91,207.5z"
			/>
		<path class="st6" d="M444.94,179.1c-1.43,9.26-4.58,18.65-10.55,25.98c-1.64,2.01-3.44,3.79-5.4,5.37
			c0.11,0.21,0.26,0.37,0.52,0.49c0.91,0.43,2.49,0.28,3.94-0.03c5.72-6.21,10.78-13.01,15.13-20.24
			C447.48,186.95,446.28,183.03,444.94,179.1z"/>
		<g>
			<path class="st6" d="M357.4,190.51c-0.13-4.5,0.77-9,2.27-13.25c3.65-10.36,11.11-19.42,20.69-24.68
				c-4.45-0.39-7.89-0.97-9.86-1.71c-1.49-0.56-2.79-1.21-3.96-1.96c-5.97,4.2-10.65,12.35-14.41,21.48
				c0.28,8.52,1.78,17.87,6.03,25.95C357.72,194.43,357.46,192.48,357.4,190.51z"/>
			<path class="st6" d="M443.9,176.16c-4.26-11.78-9.84-23-17.46-27.8c-0.42,0.48-0.84,0.91-1.29,1.26
				c-1.25,0.97-4.27,1.73-8.24,2.29c1.86,0.96,3.65,2.07,5.31,3.36c12.5,9.71,17.11,27.06,15.14,42.78
				C441.04,191.35,443.01,183.65,443.9,176.16z"/>
		</g>
		<path class="st7" d="M463.41,97.12c-7.83,3.8-17.53,2.51-25.05,6.91c-8.53,4.99-11.72,15.67-18.46,22.89
			c-5.85,6.26-14.5,9.73-23.06,9.51c-8.56-0.23-16.93-4.08-22.86-10.26c-8.55-8.92-12.28-22.34-22.72-28.95
			c-3.42-2.16-7.34-3.42-10.76-5.58c-4.98-3.14-8.68-8.22-10.26-13.89c-1.14,1.46-2.22,2.95-3.19,4.53
			c-2.69,4.37,2.79,10.38,9.72,17.98c5.76,6.31,12.29,13.47,15.88,21.69c0.95,2.18,1.82,4.19,2.62,6.05
			c5.83,13.57,8.01,18.64,15.72,21.54c3.61,1.35,12.87,2.19,24.18,2.19c14.46,0,26.69-1.36,29.09-3.22
			c1.75-1.36,3.29-4.22,5.23-7.85c3.47-6.46,8.21-15.3,18.06-22.96c6.94-5.4,12.36-8.31,16.32-10.43c4.88-2.62,7.83-4.2,9.6-8.05
			c0.53-1.14,0.18-3.89-2.08-8.13C469.03,93.48,466.46,95.64,463.41,97.12z"/>
		<path class="st9" d="M473.83,121.27c-0.49-0.68-1.42-0.11-1.1,0.64c2.14,5.01,4.38,9.87,6,15.1c1.44,4.61,1.82,9.44,3.51,13.96
			c0.14,0.36,0.79,0.49,0.86,0C484.51,141.27,479.45,129.05,473.83,121.27z"/>
		<path class="st9" d="M484.64,160.87c-0.21-1.57-0.31-3.16-0.93-4.63c-0.23-0.53-1.09-0.36-1.21,0.16
			c-0.38,1.7-0.13,3.47-0.05,5.19c0.08,1.6,0.16,3.2,1,4.61c0.29,0.49,0.95,0.34,1.13-0.15C485.2,164.36,484.87,162.6,484.64,160.87
			z"/>
		<path class="st9" d="M316.98,121.44c-3.97,7.09-7.68,17.3-6.35,25.51c0.04,0.27,0.48,0.33,0.59,0.08
			c1.52-3.44,2.02-7.17,2.86-10.82c1.11-4.83,2.77-9.5,4.04-14.29C318.31,121.24,317.33,120.81,316.98,121.44z"/>
		<path class="st9" d="M310.65,151.2c-0.11-0.99-1.32-1.14-1.69-0.23c-0.57,1.38-0.76,3.02-1.08,4.48
			c-0.27,1.23-0.81,2.54-0.43,3.79c0.14,0.45,0.63,0.52,0.97,0.26c1.03-0.81,1.29-2.24,1.6-3.46
			C310.39,154.56,310.82,152.73,310.65,151.2z"/>
		<path class="st9" d="M426.94,204.35c-1.95,0.84-3.54,2.67-5.23,3.93c-1.78,1.34-3.9,2.4-5.51,3.93c-0.46,0.43,0.02,1.1,0.58,0.99
			c2.17-0.44,4.18-1.89,6-3.09c1.84-1.21,4.14-2.79,5.09-4.83C428.18,204.64,427.58,204.08,426.94,204.35z"/>
		<circle class="st5" cx="421.5" cy="160.63" r="6.96"/>
		<circle class="st5" cx="373.54" cy="160.63" r="6.96"/>
		<g>
			<path class="st10" d="M416.65,181.02c2.44,0,4.42-2.01,4.42-4.49c0-2.48-1.98-4.49-4.42-4.49s-4.42,2.01-4.42,4.49
				C412.24,179.01,414.21,181.02,416.65,181.02z M417.86,176.8c0.81,0,1.46,0.67,1.46,1.49c0,0.82-0.65,1.49-1.46,1.49
				c-0.81,0-1.46-0.66-1.46-1.49C416.39,177.46,417.05,176.8,417.86,176.8z"/>
			<path class="st10" d="M377.47,172.04c-2.44,0-4.42,2.01-4.42,4.49c0,2.48,1.98,4.49,4.42,4.49c2.44,0,4.42-2.01,4.42-4.49
				C381.89,174.05,379.91,172.04,377.47,172.04z M378.67,179.77c-0.81,0-1.46-0.66-1.46-1.49c0-0.82,0.65-1.49,1.46-1.49
				c0.81,0,1.46,0.67,1.46,1.49C380.13,179.1,379.48,179.77,378.67,179.77z"/>
			<path class="st10" d="M496.22,192.86c-1.8-1.4-4.28-3.32-4.28-3.95c1.12-24.45-10.37-65.47-17.71-88.07
				c0.19-0.34,0.39-0.67,0.56-1.04c1.07-2.32-0.37-6.96-3.86-12.42c-10.72-16.75-36.1-36.32-72.34-36.32
				c-35.34,0-60.5,10.53-72.75,30.45c-0.79,1.29-1.04,2.64-0.87,4.06c-3.48,8.13-24.6,70.6-23.09,103.33c0,0.63-2.47,2.55-4.28,3.95
				c-5.28,4.1-12.51,9.72-10.06,15.97c2.27,5.81,18.3,7.88,31.33,7.88h0c8.57,0,15.55-0.87,17.8-2.22c0.47-0.28,0.91-0.8,1.36-1.55
				c0.11,2.5,0.92,5.22,3.76,5.93c2.35,0.58,5.09-3.11,6.41-5.17c1.03,1.87,3.32,5.26,6.35,5.26c0.26,0,0.54-0.03,0.81-0.08
				c3.06-0.61,3.05-4.91,2.85-7.04c1.72,0.52,4.93,1.29,6.79,0.41c0.66-0.31,1.12-0.82,1.34-1.47c0.21-0.63,0.3-1.22,0.3-1.78
				c5.51,4.47,12.42,7.49,20.67,9.03c0.4,0.65,0.85,1.27,1.35,1.85c2.37,2.74,5.57,4.32,8.7,4.32c0.24,0,0.48-0.01,0.72-0.03
				c2.89-0.23,5.63-2.28,7.01-5.07c9-0.57,16.62-3.16,22.77-7.74c0.25,0.37,0.6,0.68,1.04,0.89c1.86,0.89,5.08,0.12,6.79-0.41
				c-0.2,2.12-0.21,6.43,2.85,7.04c0.28,0.05,0.55,0.08,0.81,0.08c3.03,0,5.32-3.39,6.35-5.26c1.32,2.07,4.06,5.75,6.41,5.17
				c2.8-0.7,3.62-3.36,3.75-5.83c0.43,0.69,0.85,1.18,1.3,1.45c2.25,1.35,9.24,2.22,17.8,2.22c13.03,0,29.05-2.06,31.33-7.88
				C508.73,202.57,501.5,196.96,496.22,192.86z M504.94,208.31c-1.87,4.79-16.86,6.97-29.99,6.97c-8.2,0-15.05-0.81-17.06-2.02
				c-1.64-0.98-3.8-8.57-6.09-16.61c-4.76-16.7-11.78-41.27-24.46-49.42c1.11-1.57,2.2-3.59,3.44-5.91
				c3.41-6.35,8.07-15.04,17.67-22.51c6.84-5.32,11.98-8.08,16.11-10.3c3.84-2.06,6.66-3.59,8.66-6.16
				c7.3,22.63,18.38,62.55,17.28,86.48c-0.06,1.29,1.53,2.58,4.83,5.15C500.26,197.81,507,203.05,504.94,208.31z M451.75,217.48
				c-1.37,0.36-4.09-3.15-5.5-5.62c-0.13-0.24-0.38-0.39-0.66-0.36c-0.27,0.01-0.51,0.18-0.62,0.43c-0.75,1.73-3.33,6.11-6.16,5.54
				c-2.58-0.52-1.57-6.49-1.56-6.55c0.05-0.25-0.05-0.51-0.25-0.68c-0.2-0.17-0.47-0.21-0.71-0.12c-1.33,0.49-5.15,1.6-6.79,0.83
				c-0.25-0.12-0.41-0.29-0.52-0.49c1.96-1.58,3.76-3.37,5.4-5.37c5.97-7.33,9.12-16.72,10.55-25.98
				c2.14,6.25,3.93,12.52,5.47,17.94c1.52,5.31,2.69,9.37,3.74,12.25C454.48,211.11,455.17,216.62,451.75,217.48z M403.19,209.95
				c-1.78-1.33-4.19-1.6-5.99-0.65c-2.03,1.06-3.03,3.66-2.2,5.66c0.15,0.37,0.58,0.53,0.94,0.39c0.37-0.15,0.54-0.57,0.39-0.94
				c-0.55-1.33,0.17-3.12,1.54-3.84c1.32-0.69,3.11-0.48,4.46,0.53c1.95,1.46,2.66,3.68,1.96,6.1c-0.05,0.18-0.13,0.35-0.19,0.52
				c-0.96,0.05-1.93,0.08-2.91,0.08c-4.63,0-8.94-0.36-12.93-1.06c-2.2-4.01-2.41-9.21-0.31-13.26c3.06-5.9,9.03-7.09,15.4-7.87
				c0.39-0.05,0.67-0.41,0.62-0.8c-0.05-0.39-0.4-0.68-0.8-0.62c-6.77,0.83-13.12,2.11-16.5,8.63c-2.18,4.2-2.18,9.34-0.23,13.59
				c-9.86-2.03-17.66-6.29-23.29-12.72c-8.16-9.33-10.66-22.03-11.02-33.29c3.76-9.13,8.44-17.29,14.41-21.48
				c1.17,0.76,2.47,1.4,3.96,1.96c2.5,0.94,7.33,1.63,13.64,1.99c-0.2,1.42,0.1,2.69,0.92,3.62c1.97,2.26,8.9,3.47,14.42,3.47
				c3.6,0,9.71-0.5,10.22-3.84c0.17-1.1,0.12-2.27-0.09-3.45c7.43-0.54,13.61-1.53,15.55-3.04c0.45-0.35,0.87-0.78,1.29-1.26
				c7.62,4.8,13.2,16.02,17.46,27.8c-1.18,9.9-4.24,20.18-10.63,28.01c-6.55,8.04-15.83,12.55-27.61,13.44
				c0-0.01,0.01-0.02,0.01-0.02C406.55,214.57,405.64,211.79,403.19,209.95z M364.97,210.31c-0.1,0.28-0.29,0.49-0.6,0.64
				c-1.64,0.78-5.46-0.33-6.79-0.83c-0.24-0.09-0.51-0.04-0.71,0.12c-0.2,0.17-0.29,0.42-0.24,0.68c0.28,1.56,0.61,6.11-1.56,6.55
				c-2.83,0.54-5.41-3.81-6.16-5.54c-0.11-0.25-0.35-0.41-0.62-0.43c-0.27-0.03-0.53,0.12-0.66,0.36c-1.41,2.47-4.12,5.99-5.5,5.62
				c-3.74-0.94-2.56-7.48-2.33-8.6c1.01-2.85,2.15-6.76,3.6-11.83c1.85-6.48,4.05-14.18,6.77-21.6c0.29,0.02,0.57,0.04,0.84,0.05
				c0.93,10.14,3.85,20.88,11.07,29.13c0.89,1.02,1.84,1.97,2.84,2.88C365.23,208.37,365.32,209.27,364.97,210.31z M335.92,213.26
				c-2.01,1.21-8.87,2.02-17.06,2.02h0c-13.13,0-28.12-2.18-29.99-6.97c-2.06-5.26,4.68-10.49,9.61-14.32
				c3.31-2.57,4.89-3.86,4.83-5.15c-1.42-30.83,17.38-88.22,22.27-100.95c1.53,3.88,5.53,8.26,10.15,13.32
				c5.69,6.23,12.13,13.3,15.63,21.29c0.95,2.18,1.82,4.19,2.61,6.04c4.4,10.24,6.86,15.96,11.36,19.48
				c-11.95,8.86-18.69,32.43-23.3,48.62C339.72,204.69,337.56,212.27,335.92,213.26z M469.72,88.16c3.8,5.94,4.41,9.66,3.77,11.04
				c-1.78,3.85-4.72,5.43-9.6,8.05c-3.96,2.13-9.38,5.03-16.32,10.43c-9.84,7.66-14.59,16.5-18.06,22.96
				c-1.95,3.62-3.48,6.49-5.23,7.85c-2.4,1.87-14.64,3.22-29.09,3.22c-11.31,0-20.57-0.84-24.18-2.19
				c-7.71-2.89-9.89-7.97-15.72-21.54c-0.8-1.86-1.66-3.87-2.62-6.05c-3.59-8.22-10.12-15.37-15.88-21.69
				c-6.94-7.6-12.42-13.61-9.72-17.98c11.98-19.47,36.72-29.77,71.53-29.77C436.73,52.5,461.24,74.92,469.72,88.16z M350.85,173.6
				c0.01,0.15,0.02,0.3,0.03,0.45c-0.07,0-0.13,0-0.2-0.01C350.74,173.89,350.8,173.75,350.85,173.6z M408.28,155.89
				c-0.24,1.59-3.7,2.62-8.8,2.62c-5.82,0-11.93-1.37-13.34-2.98c-0.66-0.76-0.72-1.73-0.57-2.6c2.95,0.14,6.17,0.22,9.62,0.22h0
				c4.33,0,8.82-0.13,13-0.4C408.39,153.82,408.43,154.89,408.28,155.89z M397.96,222.73c-2.89,0.22-5.97-1.19-8.22-3.8
				c-0.15-0.18-0.27-0.38-0.41-0.56c3.7,0.57,7.66,0.86,11.86,0.86c0.75,0,1.48-0.02,2.21-0.05
				C402.16,221.16,400.1,222.56,397.96,222.73z"/>
		</g>
	</g>
</g>
<g>
</g>
<g>
</g>
<g>
</g>
<g>
</g>
<g>
</g>
<g>
</g>
<g>
</g>
<g>
</g>
<g>
</g>
<g>
</g>
<g>
</g>
<g>
</g>
<g>
</g>
<g>
</g>
<g>
</g>
</svg>
