<?xml version="1.0" encoding="utf-8"?>
<!-- Generator: Adobe Illustrator 21.0.0, SVG Export Plug-In . SVG Version: 6.00 Build 0)  -->
<svg version="1.1" id="Layer_1" xmlns="http://www.w3.org/2000/svg" xmlns:xlink="http://www.w3.org/1999/xlink" x="0px" y="0px"
	 viewBox="0 0 1400 299.5" style="enable-background:new 0 0 1400 299.5;" xml:space="preserve">
<style type="text/css">
	.st0{fill:#F0F4FC;}
</style>
<path class="st0" d="M36.6,112c27.8,6.2,52.5,19.1,72.5,36.6c38.1-47.8,101.4-72.5,165.1-58.3c58.7,13.1,103,55.9,120.7,109
	c41.5-47.5,107-71.5,172.9-56.8c70.7,15.8,122.1,71.6,135.7,138.3c22.3-47.6,57.6-89.8,104.7-120.8c68.5-45,148.8-57.8,223-42
	c-5.9-38.4,10.3-78.5,44.9-101.2c47.2-31,110.6-17.9,141.7,29.3c3.6,5.4,6.5,11.1,8.9,16.9c8-7.1,16.5-13.6,25.7-19.7
	c45.3-29.8,97.5-41,147.5-35.4v291.5H0V108.1C12.1,108,24.3,109.3,36.6,112z"/>
</svg>
