<svg id="Layer_1" data-name="Layer 1" xmlns="http://www.w3.org/2000/svg" viewBox="0 0 988.27 626.98"><defs><style>.cls-1{opacity:0.05;}.cls-2{fill:#676b6e;}</style></defs><title>cloud</title><g class="cls-1"><path class="cls-2" d="M1496.28,779.64c-37.18-57.31-113-94.1-179.55-91.49-36.27,1.42-73.18,13.61-104.24,33.38-4.49-2.44-9.05-4.77-13.77-6.9-43.09-19.47-91.52-24.47-138.18-18.84a373.31,373.31,0,0,0-163.82,31.58c-89.9,39.44-159.13,114-178.61,207.65a340.69,340.69,0,0,0-54.45,11.46c-47.61,14-86.15,46.52-116.77,84.89-29.3,36.72-42.5,102.63-38,149.55L1496.28,1315Z" transform="translate(-508.01 -688.02)"/></g></svg>