<?xml version="1.0" encoding="utf-8"?>
<!-- Generator: Adobe Illustrator 21.0.0, SVG Export Plug-In . SVG Version: 6.00 Build 0)  -->
<svg version="1.1" id="Layer_1" xmlns="http://www.w3.org/2000/svg" xmlns:xlink="http://www.w3.org/1999/xlink" x="0px" y="0px"
	 viewBox="0 0 1400 92.99" style="enable-background:new 0 0 1400 92.99;" xml:space="preserve">
<style type="text/css">
	.st0{fill:#0070FE;}
</style>
<path class="st0" d="M47.07,44.04c42.31,0,80.25,18.71,105.99,48.32c14.01-8.14,30.28-12.8,47.64-12.8
	c17.81,0,34.47,4.91,48.71,13.43c24.6-21.24,56.65-34.08,91.7-34.08c16.54,0,32.41,2.87,47.15,8.12
	c31.65-28.66,73.64-46.12,119.7-46.12c24.14,0,47.15,4.8,68.15,13.49c15.55,0.95,30.41,4.43,44.18,10.03
	c16.32-6.64,34.16-10.3,52.86-10.3c30.77,0,59.23,9.91,82.37,26.7C785.26,30.1,826.92,11,873.04,11c42.45,0,81.13,16.18,110.2,42.7
	c28.33-21.6,63.7-34.44,102.08-34.44c34.32,0,66.24,10.27,92.86,27.89c17.97-8.35,37.99-13.02,59.12-13.02
	c36.85,0,70.39,14.21,95.44,37.43c19.48-13.24,42.46-21.7,67.26-23.73V0H0v52.13C14.71,46.9,30.55,44.04,47.07,44.04z"/>
<g>
</g>
<g>
</g>
<g>
</g>
<g>
</g>
<g>
</g>
<g>
</g>
<g>
</g>
<g>
</g>
<g>
</g>
<g>
</g>
<g>
</g>
<g>
</g>
<g>
</g>
<g>
</g>
<g>
</g>
</svg>
