<?xml version="1.0" encoding="utf-8"?>
<!-- Generator: Adobe Illustrator 21.0.0, SVG Export Plug-In . SVG Version: 6.00 Build 0)  -->
<svg version="1.1" id="Layer_1" xmlns="http://www.w3.org/2000/svg" xmlns:xlink="http://www.w3.org/1999/xlink" x="0px" y="0px"
	 viewBox="0 0 31.91 37.31" style="enable-background:new 0 0 31.91 37.31;" xml:space="preserve">
<style type="text/css">
	.st0{fill:#0070FE;}
</style>
<path class="st0" d="M17.57,27.46c0.21,3.28-0.74,6.14-2.51,8.75c-0.74,1.09-1.24,1.25-2.39,0.96c-0.56-0.78-0.42-1.54,0.05-2.29
	c1.4-2.21,2.06-4.67,2.52-7.21c0.01-0.05,0-0.1-0.01-0.21c-0.19,0.2-0.34,0.36-0.49,0.51c-3.31,3.42-7.29,5.31-12.11,5.28
	c-1.04-0.01-1.39-0.45-0.99-1.41C2,31.01,2.46,30.18,3,29.44c0.94-1.29,2.21-2.23,3.51-2.96c-0.96-0.65-2.01-1.19-2.87-1.97
	c-3.05-2.77-4.18-6.25-3.4-10.29c0.59-3.05,2.93-5.13,6.19-5.72c0.14-0.03,0.28-0.06,0.4-0.08c0.08-0.66,0.11-1.3,0.24-1.91
	c0.44-1.94,1.56-3.42,3.16-4.56c3.64-2.6,8.58-2.61,11.85,0c1.37,1.1,2.32,2.5,2.89,4.16c0.05,0.16,0.1,0.31,0.16,0.49
	c2.27-0.17,3.88,0.97,5.19,2.64c1.31,1.66,1.79,3.57,1.5,5.66c-0.42,3.02-1.69,5.54-4.36,7.17c-1.47,0.9-3.03,0.93-4.57,0.13
	c-0.18-0.09-0.29-0.31-0.43-0.47c0.04-0.05,0.08-0.11,0.11-0.16c0.14,0,0.29-0.02,0.42,0c1.57,0.31,2.96-0.13,4.05-1.22
	c2.16-2.14,3.19-4.74,2.61-7.8c-0.35-1.86-2.13-3.63-3.69-3.87c-0.23-0.03-0.47,0-0.71,0c-0.39,2.95-1.88,5.11-4.33,6.62
	c-0.46,0.29-1.01,0.45-1.54,0.61c-0.42,0.13-0.78-0.05-0.97-0.45c-0.18-0.38-0.08-0.74,0.24-1c0.36-0.29,0.74-0.57,1.13-0.82
	c1.18-0.76,2.15-1.71,2.77-2.99c1.17-2.42,0.6-5.01-1.46-6.74c-2.13-1.79-4.56-2.19-7.17-1.44c-2.74,0.78-4.88,2.33-5.93,5.1
	C7.9,7.82,7.85,8.07,7.77,8.36c2.64,0.17,4.23,1.77,5.48,3.85c0.2,0.33,0.3,0.66-0.03,0.95c-0.32,0.27-0.61,0.12-0.9-0.1
	c-0.68-0.52-1.38-1.01-2.04-1.56c-2.46-2.08-6.53-0.28-7.53,2.05c-0.93,2.16-0.81,4.31-0.08,6.47c0.95,2.82,2.88,4.92,5.3,5.78
	c1.79-0.67,3.64-0.91,5.62-0.4c-0.05-0.17-0.08-0.27-0.12-0.36c-1.16-2.93-0.81-5.79,0.45-8.59c0.35-0.78,0.76-0.8,1.25-0.12
	c1.42,1.97,2.64,4.05,3.07,6.49c0.07,0.38,0.09,0.77,0.13,1.2c0.58-0.15,1.12-0.33,1.68-0.43c1.91-0.34,3.69,0.01,5.35,1.02
	c1.22,0.74,2.28,1.66,3.16,2.79c0.53,0.68,0.49,0.95-0.23,1.44c-2.27,1.55-4.7,1.82-7.28,0.92C19.72,29.29,18.6,28.52,17.57,27.46z"
	/>
<g>
</g>
<g>
</g>
<g>
</g>
<g>
</g>
<g>
</g>
<g>
</g>
<g>
</g>
<g>
</g>
<g>
</g>
<g>
</g>
<g>
</g>
<g>
</g>
<g>
</g>
<g>
</g>
<g>
</g>
</svg>
