<?xml version="1.0" encoding="utf-8"?>
<!-- Generator: Adobe Illustrator 21.0.0, SVG Export Plug-In . SVG Version: 6.00 Build 0)  -->
<svg version="1.1" id="Layer_1" xmlns="http://www.w3.org/2000/svg" xmlns:xlink="http://www.w3.org/1999/xlink" x="0px" y="0px"
	 viewBox="0 0 200 39.51" style="enable-background:new 0 0 200 39.51;" xml:space="preserve">
<style type="text/css">
	.st0{fill:#788E9B;}
	.st1{fill:#FAFAFA;}
</style>
<g id="Logo_10_">
	<g>
		<g>
			<path class="st0" d="M92.34,17.24c0,2.23-0.37,4.28-1.12,6.15c-0.74,1.87-1.79,3.47-3.14,4.82c-1.35,1.35-2.97,2.39-4.86,3.14
				c-1.89,0.75-3.99,1.12-6.29,1.12H65.31V2.02h11.62c2.3,0,4.4,0.38,6.29,1.13c1.89,0.75,3.51,1.8,4.86,3.14
				c1.35,1.34,2.39,2.94,3.14,4.81C91.97,12.96,92.34,15.01,92.34,17.24z M86.55,17.24c0-1.67-0.22-3.17-0.67-4.49
				s-1.09-2.45-1.91-3.37c-0.83-0.92-1.84-1.62-3.02-2.12c-1.19-0.49-2.52-0.74-4.01-0.74h-5.92v21.43h5.92
				c1.49,0,2.82-0.24,4.01-0.74c1.19-0.49,2.19-1.2,3.02-2.12c0.83-0.92,1.47-2.04,1.91-3.37C86.32,20.41,86.55,18.91,86.55,17.24z"
				/>
			<path class="st0" d="M102.8,4.57c0,0.45-0.09,0.87-0.27,1.26c-0.18,0.39-0.43,0.74-0.73,1.03c-0.3,0.29-0.66,0.53-1.06,0.7
				c-0.41,0.18-0.84,0.26-1.31,0.26c-0.45,0-0.87-0.09-1.27-0.26c-0.4-0.17-0.75-0.41-1.04-0.7c-0.3-0.3-0.53-0.64-0.71-1.03
				c-0.17-0.39-0.26-0.81-0.26-1.26c0-0.46,0.09-0.9,0.26-1.31c0.17-0.41,0.41-0.76,0.71-1.05c0.29-0.3,0.64-0.53,1.04-0.7
				c0.4-0.18,0.82-0.26,1.27-0.26c0.46,0,0.9,0.09,1.31,0.26c0.41,0.17,0.76,0.41,1.06,0.7c0.3,0.29,0.54,0.65,0.73,1.05
				C102.71,3.67,102.8,4.11,102.8,4.57z M102.02,10.87v21.59h-5.2V10.87H102.02z"/>
			<path class="st0" d="M124.82,32.46h-2.34c-0.49,0-0.88-0.07-1.16-0.22c-0.28-0.15-0.49-0.45-0.63-0.9l-0.46-1.54
				c-0.55,0.49-1.08,0.92-1.61,1.29c-0.53,0.37-1.07,0.68-1.63,0.94s-1.16,0.44-1.79,0.57c-0.63,0.13-1.33,0.19-2.11,0.19
				c-0.91,0-1.75-0.12-2.53-0.37c-0.77-0.25-1.44-0.62-1.99-1.11c-0.55-0.49-0.99-1.11-1.29-1.84c-0.31-0.73-0.46-1.58-0.46-2.55
				c0-0.82,0.21-1.62,0.64-2.42c0.43-0.8,1.14-1.51,2.13-2.15c1-0.64,2.32-1.17,3.98-1.59c1.66-0.42,3.71-0.63,6.17-0.63v-1.27
				c0-1.46-0.31-2.54-0.91-3.23c-0.61-0.7-1.5-1.05-2.66-1.05c-0.84,0-1.54,0.1-2.11,0.3c-0.56,0.2-1.05,0.42-1.46,0.66
				c-0.41,0.25-0.8,0.47-1.15,0.66c-0.35,0.2-0.74,0.3-1.16,0.3c-0.35,0-0.65-0.09-0.91-0.27c-0.25-0.18-0.46-0.41-0.61-0.67
				l-0.95-1.66c2.48-2.27,5.48-3.41,8.99-3.41c1.26,0,2.39,0.21,3.38,0.62c0.99,0.41,1.83,0.99,2.52,1.73s1.21,1.62,1.57,2.64
				c0.36,1.02,0.54,2.15,0.54,3.37V32.46z M114.71,29.22c0.53,0,1.02-0.05,1.47-0.15s0.87-0.24,1.27-0.43
				c0.4-0.19,0.79-0.43,1.16-0.72c0.37-0.28,0.75-0.62,1.12-1.01V23.3c-1.52,0-2.78,0.1-3.8,0.29c-1.02,0.19-1.84,0.44-2.45,0.73
				c-0.62,0.3-1.05,0.64-1.32,1.04c-0.26,0.39-0.39,0.83-0.39,1.29c0,0.92,0.27,1.58,0.81,1.97
				C113.14,29.02,113.84,29.22,114.71,29.22z"/>
			<path class="st0" d="M129.93,39.51V10.87h3.18c0.34,0,0.62,0.08,0.86,0.23c0.24,0.15,0.39,0.39,0.46,0.72l0.42,2
				c0.87-1,1.87-1.8,3-2.42c1.13-0.62,2.45-0.92,3.97-0.92c1.18,0,2.26,0.24,3.23,0.74c0.97,0.49,1.82,1.2,2.53,2.14
				c0.71,0.93,1.26,2.08,1.64,3.45c0.38,1.37,0.58,2.94,0.58,4.7c0,1.61-0.22,3.11-0.65,4.48c-0.43,1.38-1.06,2.57-1.86,3.58
				c-0.81,1.01-1.78,1.8-2.93,2.37c-1.14,0.57-2.42,0.85-3.84,0.85c-1.22,0-2.26-0.19-3.1-0.56c-0.85-0.37-1.61-0.89-2.28-1.55v8.84
				H129.93z M140.03,14.57c-1.08,0-2,0.23-2.77,0.68c-0.76,0.46-1.48,1.1-2.14,1.92v9.68c0.59,0.73,1.23,1.24,1.93,1.53
				c0.69,0.29,1.44,0.43,2.24,0.43c0.79,0,1.5-0.15,2.14-0.44c0.64-0.3,1.18-0.74,1.62-1.35c0.44-0.6,0.78-1.37,1.02-2.28
				c0.24-0.92,0.36-2,0.36-3.25c0-1.26-0.1-2.33-0.31-3.21c-0.2-0.88-0.49-1.59-0.87-2.14c-0.38-0.55-0.84-0.95-1.38-1.2
				C141.33,14.7,140.72,14.57,140.03,14.57z"/>
			<path class="st0" d="M153.73,32.46V10.87h3.05c0.53,0,0.91,0.1,1.12,0.29c0.21,0.2,0.35,0.53,0.42,1.01l0.31,2.61
				c0.77-1.33,1.68-2.38,2.72-3.16c1.04-0.77,2.2-1.16,3.49-1.16c1.07,0,1.95,0.24,2.65,0.74l-0.67,3.9
				c-0.04,0.25-0.14,0.43-0.27,0.54c-0.14,0.1-0.33,0.16-0.57,0.16c-0.21,0-0.5-0.05-0.86-0.15c-0.36-0.1-0.85-0.15-1.45-0.15
				c-1.08,0-2.01,0.3-2.78,0.89c-0.77,0.6-1.42,1.47-1.96,2.62v13.45H153.73z"/>
			<path class="st0" d="M180.15,10.53c1.61,0,3.08,0.26,4.39,0.78c1.31,0.52,2.43,1.26,3.36,2.21c0.92,0.95,1.64,2.12,2.15,3.49
				s0.76,2.91,0.76,4.61c0,1.71-0.25,3.26-0.76,4.63c-0.51,1.37-1.22,2.55-2.15,3.51c-0.93,0.97-2.05,1.71-3.36,2.23
				c-1.31,0.52-2.77,0.78-4.39,0.78c-1.61,0-3.08-0.26-4.4-0.78c-1.32-0.52-2.45-1.26-3.38-2.23c-0.93-0.97-1.66-2.14-2.17-3.51
				c-0.51-1.38-0.77-2.92-0.77-4.63c0-1.7,0.26-3.24,0.77-4.61c0.51-1.37,1.23-2.54,2.17-3.49c0.93-0.95,2.06-1.69,3.38-2.21
				C177.07,10.79,178.54,10.53,180.15,10.53z M180.15,28.78c1.8,0,3.13-0.6,3.99-1.81c0.86-1.21,1.29-2.98,1.29-5.3
				s-0.43-4.11-1.29-5.33c-0.86-1.22-2.19-1.83-3.99-1.83c-1.82,0-3.17,0.61-4.04,1.84c-0.87,1.23-1.31,3-1.31,5.32
				s0.44,4.08,1.31,5.29C176.98,28.17,178.33,28.78,180.15,28.78z"/>
			<path class="st1" d="M193.62,29.6c0-0.44,0.08-0.85,0.24-1.24c0.16-0.39,0.38-0.73,0.67-1.01c0.29-0.28,0.63-0.51,1.02-0.67
				c0.39-0.17,0.81-0.25,1.26-0.25c0.43,0,0.85,0.09,1.24,0.25c0.39,0.17,0.73,0.39,1.01,0.67c0.28,0.28,0.51,0.62,0.67,1.01
				c0.17,0.39,0.25,0.81,0.25,1.24c0,0.45-0.08,0.87-0.25,1.25c-0.17,0.39-0.39,0.72-0.67,1c-0.28,0.28-0.62,0.5-1.01,0.66
				c-0.39,0.16-0.81,0.24-1.24,0.24c-0.45,0-0.87-0.08-1.26-0.24c-0.39-0.16-0.73-0.38-1.02-0.66c-0.29-0.28-0.51-0.61-0.67-1
				C193.7,30.46,193.62,30.05,193.62,29.6z"/>
		</g>
		<g>
			<g>
				<path class="st0" d="M24.96,39.25c-10.27-0.52-17.4-4.72-21.79-12.83c-4.44-8.2-4.21-16.57,0.71-24.88
					C4.61,0.31,5.3,0.05,6.1,0.05c0.27,0,0.56,0.03,0.89,0.1c5.86,1.2,11.81,1.8,17.67,1.8c6,0,12.08-0.63,18.06-1.89
					C42.94,0.02,43.14,0,43.33,0c0.86,0,1.37,0.5,1.87,1.25c4.43,6.69,5.21,15.19,2.1,22.73c-3.11,7.53-9.65,13-17.49,14.62
					c-1.21,0.25-2.44,0.38-3.53,0.5C25.79,39.15,25.35,39.2,24.96,39.25z M12.57,19.52l0.31,0.29c4.53,4.2,7.09,9.34,7.84,15.71
					l0.07,0.58h7.72l0.07-0.58c0.71-6.32,3.25-11.45,7.76-15.67l0.32-0.3l-0.97-2.59l-0.72,0.88c-0.25,0.31-0.45,0.54-0.66,0.75
					c-0.85,0.84-1.88,1.3-2.9,1.3c-0.91,0-1.76-0.36-2.45-1.04c-0.68-0.68-1.06-1.56-1.06-2.48c0-1.03,0.45-2.05,1.27-2.86
					c0.9-0.9,1.83-1.77,2.73-2.61c0.32-0.3,0.65-0.61,0.97-0.91l0.31-0.29l-1.76-5.03H17.79L12.57,19.52z M45.12,17.19
					c-7.09,2.14-13.26,9.64-14.06,17.08l-0.1,0.95l0.92-0.25c7.08-1.92,13.52-9.75,14.08-17.11l0.07-0.95L45.12,17.19z M3.3,17.87
					c0.63,8.11,7.79,15.39,14.08,17.09l0.92,0.25l-0.1-0.95c-0.82-7.49-7-14.98-14.06-17.07l-0.91-0.27L3.3,17.87z M31.49,13.92
					c-1.33,0-2.34,1-2.36,2.33c-0.01,1.33,0.97,2.36,2.29,2.39h0c1.36,0,2.38-0.95,2.43-2.26c0.05-1.34-0.91-2.39-2.23-2.46
					L31.49,13.92z M38.64,5.67c0.93,0,1.82,0.39,2.49,1.1c1.42,1.49,1.28,3.74-0.35,5.34c-0.74,0.73-1.52,1.43-2.27,2.11
					c-0.24,0.22-1.05,0.96-1.05,0.96l0.97,2.63l7.9-3.71l-0.02-0.44c-0.19-3.78-1.26-7.24-3.16-10.26l-0.23-0.36l-9.21,1.42
					l1.15,3.26l0.73-0.65c0.04-0.03,0.07-0.06,0.11-0.1C36.57,6.13,37.62,5.67,38.64,5.67z M6.11,3.39
					C4.21,6.45,3.15,9.9,2.95,13.64l-0.02,0.44l7.88,3.71L15.5,4.42L6.34,3.03L6.11,3.39z M32.23,12.27l3.3,3.25l2.24-2.2
					l-3.17-3.19L32.23,12.27z M38.46,6.87C37.18,6.91,36.11,8,36.11,9.25c0,0.62,0.25,1.21,0.7,1.67c0.45,0.46,1.07,0.72,1.69,0.72
					c1.35-0.04,2.39-1.09,2.39-2.39c0-1.34-1.05-2.38-2.38-2.38h0L38.46,6.87z"/>
			</g>
		</g>
	</g>
</g>
<g>
</g>
<g>
</g>
<g>
</g>
<g>
</g>
<g>
</g>
<g>
</g>
<g>
</g>
<g>
</g>
<g>
</g>
<g>
</g>
<g>
</g>
<g>
</g>
<g>
</g>
<g>
</g>
<g>
</g>
</svg>
