<?xml version="1.0" encoding="utf-8"?>
<!-- Generator: Adobe Illustrator 21.0.0, SVG Export Plug-In . SVG Version: 6.00 Build 0)  -->
<svg version="1.1" id="Layer_1" xmlns="http://www.w3.org/2000/svg" xmlns:xlink="http://www.w3.org/1999/xlink" x="0px" y="0px"
	 viewBox="0 0 134.06 29.18" style="enable-background:new 0 0 134.06 29.18;" xml:space="preserve">
<style type="text/css">
	.st0{fill:#FAFAFA;}
</style>
<g>
	<g>
		<path class="st0" d="M61.42,14c0,1.48-0.25,2.85-0.74,4.09c-0.49,1.24-1.19,2.31-2.09,3.21s-1.97,1.59-3.23,2.09
			s-2.66,0.74-4.19,0.74h-7.73V3.88h7.73c1.53,0,2.93,0.25,4.19,0.75c1.26,0.5,2.34,1.19,3.23,2.09c0.9,0.89,1.59,1.96,2.09,3.2
			S61.42,12.52,61.42,14z M57.57,14c0-1.11-0.15-2.11-0.45-2.99c-0.3-0.88-0.72-1.63-1.27-2.24c-0.55-0.61-1.22-1.08-2.01-1.41
			s-1.68-0.49-2.67-0.49h-3.93v14.25h3.93c0.99,0,1.88-0.16,2.67-0.49c0.79-0.33,1.46-0.8,2.01-1.41c0.55-0.61,0.98-1.36,1.27-2.24
			C57.42,16.11,57.57,15.11,57.57,14z"/>
		<path class="st0" d="M68.37,5.57c0,0.3-0.06,0.58-0.18,0.84c-0.12,0.26-0.28,0.49-0.48,0.69c-0.2,0.2-0.44,0.35-0.71,0.47
			c-0.27,0.12-0.56,0.18-0.87,0.18c-0.3,0-0.58-0.06-0.85-0.18c-0.27-0.12-0.5-0.27-0.69-0.47c-0.2-0.2-0.35-0.42-0.47-0.69
			s-0.17-0.54-0.17-0.84c0-0.31,0.06-0.6,0.17-0.87c0.12-0.27,0.27-0.5,0.47-0.7c0.2-0.2,0.43-0.35,0.69-0.47s0.55-0.18,0.85-0.18
			c0.31,0,0.6,0.06,0.87,0.18c0.27,0.12,0.51,0.27,0.71,0.47c0.2,0.2,0.36,0.43,0.48,0.7C68.31,4.98,68.37,5.26,68.37,5.57z
			 M67.86,9.76v14.36H64.4V9.76H67.86z"/>
		<path class="st0" d="M83.02,24.12h-1.55c-0.33,0-0.58-0.05-0.77-0.15c-0.19-0.1-0.33-0.3-0.42-0.59l-0.31-1.02
			c-0.36,0.33-0.72,0.61-1.07,0.86c-0.35,0.25-0.71,0.46-1.08,0.62c-0.37,0.17-0.77,0.29-1.19,0.38s-0.89,0.13-1.4,0.13
			c-0.61,0-1.17-0.08-1.68-0.25c-0.51-0.16-0.95-0.41-1.32-0.74c-0.37-0.33-0.66-0.74-0.86-1.22c-0.21-0.49-0.31-1.05-0.31-1.7
			c0-0.54,0.14-1.08,0.43-1.61c0.28-0.53,0.76-1.01,1.42-1.43s1.54-0.78,2.65-1.06c1.1-0.28,2.47-0.42,4.1-0.42v-0.85
			c0-0.97-0.2-1.69-0.61-2.15c-0.41-0.47-1-0.7-1.77-0.7c-0.56,0-1.03,0.07-1.4,0.2c-0.37,0.13-0.7,0.28-0.97,0.44
			c-0.28,0.16-0.53,0.31-0.76,0.44c-0.23,0.13-0.49,0.2-0.77,0.2c-0.23,0-0.43-0.06-0.6-0.18c-0.17-0.12-0.3-0.27-0.41-0.45
			l-0.63-1.11c1.65-1.51,3.64-2.27,5.98-2.27c0.84,0,1.59,0.14,2.25,0.41s1.21,0.66,1.67,1.15c0.46,0.49,0.8,1.08,1.04,1.76
			c0.24,0.68,0.36,1.43,0.36,2.24V24.12z M76.3,21.97c0.35,0,0.68-0.03,0.98-0.1c0.3-0.06,0.58-0.16,0.85-0.29s0.52-0.29,0.77-0.47
			c0.25-0.19,0.5-0.41,0.75-0.67v-2.4c-1.01,0-1.85,0.06-2.53,0.19c-0.68,0.13-1.22,0.29-1.63,0.49s-0.7,0.43-0.88,0.69
			c-0.17,0.26-0.26,0.55-0.26,0.86c0,0.61,0.18,1.05,0.54,1.31S75.72,21.97,76.3,21.97z"/>
		<path class="st0" d="M86.42,28.81V9.76h2.11c0.22,0,0.42,0.05,0.57,0.15c0.16,0.1,0.26,0.26,0.31,0.48l0.28,1.33
			c0.58-0.66,1.24-1.2,2-1.61c0.75-0.41,1.63-0.62,2.64-0.62c0.78,0,1.5,0.16,2.15,0.49c0.65,0.33,1.21,0.8,1.68,1.42
			c0.47,0.62,0.84,1.39,1.09,2.3c0.26,0.91,0.38,1.95,0.38,3.13c0,1.07-0.15,2.07-0.43,2.98c-0.29,0.91-0.7,1.71-1.24,2.38
			c-0.54,0.67-1.19,1.2-1.95,1.58c-0.76,0.38-1.61,0.57-2.55,0.57c-0.81,0-1.5-0.12-2.07-0.37c-0.56-0.25-1.07-0.59-1.52-1.03v5.88
			H86.42z M93.14,12.22c-0.72,0-1.33,0.15-1.84,0.46c-0.51,0.3-0.98,0.73-1.42,1.28v6.44c0.39,0.48,0.82,0.82,1.28,1.01
			c0.46,0.19,0.96,0.29,1.49,0.29c0.52,0,1-0.1,1.42-0.29c0.43-0.2,0.79-0.49,1.08-0.9c0.29-0.4,0.52-0.91,0.68-1.52
			c0.16-0.61,0.24-1.33,0.24-2.16c0-0.84-0.07-1.55-0.2-2.14c-0.14-0.58-0.33-1.06-0.58-1.42c-0.25-0.36-0.56-0.63-0.92-0.8
			S93.6,12.22,93.14,12.22z"/>
		<path class="st0" d="M102.25,24.12V9.76h2.03c0.35,0,0.6,0.06,0.74,0.2c0.14,0.13,0.23,0.35,0.28,0.67l0.21,1.74
			c0.51-0.89,1.12-1.59,1.81-2.1s1.47-0.77,2.32-0.77c0.71,0,1.3,0.16,1.76,0.49l-0.45,2.59c-0.03,0.17-0.09,0.29-0.18,0.36
			c-0.09,0.07-0.22,0.1-0.38,0.1c-0.14,0-0.33-0.03-0.57-0.1c-0.24-0.06-0.56-0.1-0.97-0.1c-0.72,0-1.33,0.2-1.85,0.6
			c-0.51,0.4-0.95,0.98-1.3,1.74v8.95H102.25z"/>
		<path class="st0" d="M119.82,9.53c1.07,0,2.05,0.17,2.92,0.52s1.62,0.84,2.23,1.47c0.62,0.63,1.09,1.41,1.43,2.32
			s0.5,1.94,0.5,3.07c0,1.14-0.17,2.17-0.5,3.08s-0.81,1.69-1.43,2.34c-0.62,0.64-1.36,1.14-2.23,1.48
			c-0.87,0.34-1.85,0.52-2.92,0.52s-2.05-0.17-2.93-0.52c-0.88-0.35-1.63-0.84-2.25-1.48s-1.1-1.42-1.44-2.34
			c-0.34-0.91-0.51-1.94-0.51-3.08c0-1.13,0.17-2.15,0.51-3.07c0.34-0.91,0.82-1.69,1.44-2.32c0.62-0.63,1.37-1.12,2.25-1.47
			C117.77,9.71,118.75,9.53,119.82,9.53z M119.82,21.67c1.19,0,2.08-0.4,2.65-1.2s0.86-1.98,0.86-3.53c0-1.55-0.29-2.73-0.86-3.54
			s-1.46-1.22-2.65-1.22c-1.21,0-2.11,0.41-2.69,1.23c-0.58,0.82-0.87,1.99-0.87,3.53c0,1.54,0.29,2.71,0.87,3.52
			C117.71,21.27,118.61,21.67,119.82,21.67z"/>
		<path class="st0" d="M128.78,22.22c0-0.29,0.05-0.57,0.16-0.83c0.11-0.26,0.26-0.49,0.45-0.67c0.19-0.19,0.42-0.34,0.68-0.45
			c0.26-0.11,0.54-0.17,0.84-0.17c0.29,0,0.56,0.06,0.83,0.17c0.26,0.11,0.49,0.26,0.67,0.45c0.19,0.19,0.34,0.41,0.45,0.67
			c0.11,0.26,0.17,0.54,0.17,0.83c0,0.3-0.06,0.58-0.17,0.83c-0.11,0.26-0.26,0.48-0.45,0.67c-0.19,0.19-0.41,0.33-0.67,0.44
			c-0.26,0.11-0.54,0.16-0.83,0.16c-0.3,0-0.58-0.05-0.84-0.16c-0.26-0.11-0.49-0.25-0.68-0.44c-0.19-0.19-0.34-0.41-0.45-0.67
			C128.84,22.79,128.78,22.52,128.78,22.22z"/>
	</g>
	<path class="st0" d="M16.6,28.64C9.77,28.29,5.03,25.5,2.1,20.1c-2.96-5.45-2.8-11.02,0.47-16.55c0.49-0.82,0.94-0.99,1.48-0.99
		c0.18,0,0.37,0.02,0.59,0.07c3.9,0.79,7.85,1.2,11.75,1.2c3.99,0,8.03-0.42,12.01-1.25c0.14-0.03,0.28-0.05,0.4-0.05
		c0.57,0,0.91,0.33,1.24,0.83c2.94,4.45,3.47,10.1,1.4,15.12c-2.07,5.01-6.42,8.65-11.63,9.72c-0.8,0.17-1.63,0.26-2.35,0.33
		C17.15,28.57,16.86,28.61,16.6,28.64z M8.36,15.51l0.21,0.19c3.01,2.79,4.72,6.21,5.21,10.45l0.04,0.38h5.13L19,26.15
		c0.47-4.2,2.16-7.61,5.16-10.42l0.21-0.2l-0.65-1.72l-0.48,0.59c-0.17,0.2-0.3,0.36-0.44,0.5c-0.56,0.56-1.25,0.87-1.93,0.87
		c-0.61,0-1.17-0.24-1.63-0.69c-0.45-0.45-0.7-1.04-0.71-1.65c0-0.68,0.3-1.36,0.84-1.9c0.6-0.6,1.22-1.18,1.82-1.74
		c0.22-0.2,0.43-0.4,0.65-0.61l0.2-0.19l-1.17-3.34h-9.05L8.36,15.51z M30.01,13.96c-4.71,1.42-8.82,6.41-9.35,11.36l-0.07,0.63
		l0.61-0.17c4.71-1.28,8.99-6.49,9.36-11.38l0.05-0.63L30.01,13.96z M2.2,14.42c0.42,5.39,5.18,10.23,9.36,11.37l0.61,0.17
		l-0.07-0.63c-0.55-4.98-4.65-9.97-9.35-11.35l-0.6-0.18L2.2,14.42z M20.95,11.79c-0.88,0-1.56,0.67-1.57,1.55
		c-0.01,0.89,0.64,1.57,1.52,1.59h0c0.91,0,1.58-0.63,1.62-1.5c0.03-0.89-0.6-1.59-1.48-1.63L20.95,11.79z M25.7,6.3
		c0.62,0,1.21,0.26,1.66,0.73c0.95,0.99,0.85,2.49-0.23,3.55c-0.49,0.49-1.01,0.95-1.51,1.4c-0.16,0.15-0.7,0.64-0.7,0.64l0.65,1.75
		l5.26-2.47l-0.01-0.29c-0.13-2.52-0.84-4.81-2.1-6.83l-0.15-0.24l-6.13,0.94l0.76,2.17l0.48-0.44c0.02-0.02,0.05-0.04,0.07-0.06
		C24.32,6.61,25.02,6.3,25.7,6.3z M4.06,4.79C2.8,6.82,2.1,9.12,1.96,11.61L1.95,11.9l5.24,2.47l3.12-8.89L4.22,4.55L4.06,4.79z
		 M21.44,10.69l2.2,2.16l1.49-1.46l-2.11-2.12L21.44,10.69z M25.58,7.1c-0.85,0.02-1.56,0.75-1.56,1.58c0,0.41,0.16,0.81,0.47,1.11
		c0.3,0.3,0.71,0.48,1.13,0.48c0.9-0.03,1.59-0.73,1.59-1.59c0-0.89-0.7-1.58-1.58-1.58h0L25.58,7.1z"/>
</g>
<g>
</g>
<g>
</g>
<g>
</g>
<g>
</g>
<g>
</g>
<g>
</g>
<g>
</g>
<g>
</g>
<g>
</g>
<g>
</g>
<g>
</g>
<g>
</g>
<g>
</g>
<g>
</g>
<g>
</g>
</svg>
