<?xml version="1.0" encoding="utf-8"?>
<!-- Generator: Adobe Illustrator 21.0.0, SVG Export Plug-In . SVG Version: 6.00 Build 0)  -->
<svg version="1.1" id="Layer_1" xmlns="http://www.w3.org/2000/svg" xmlns:xlink="http://www.w3.org/1999/xlink" x="0px" y="0px"
	 viewBox="0 0 196.85 149.17" style="enable-background:new 0 0 196.85 149.17;" xml:space="preserve">
<style type="text/css">
	.st0{fill:#004F90;}
	.st1{fill:#2688D1;}
	.st2{fill:#0074BA;}
	.st3{fill:#006AAE;}
</style>
<g>
	<path class="st0" d="M56.11,125.21c7.16-19.64,0.24-43.54-16.3-56.33c-2.69-2.08-5.73-3.93-9.11-4.31
		c-1.53-0.17-3.07-0.03-4.6,0.11c-2.53,0.23-5.06,0.46-7.58,0.69c-1.57,0.14-3.42,0.47-4.07,1.91c-0.48,1.05-0.09,2.28,0.32,3.37
		c7.65,20.29,20.56,38.57,37.11,52.57C53.1,124.25,54.51,125.32,56.11,125.21z"/>
	<path class="st0" d="M146.38,127.6c-7.16-19.64-0.25-43.54,16.3-56.33c2.69-2.08,5.73-3.93,9.11-4.31c1.53-0.17,3.07-0.03,4.6,0.11
		c2.53,0.23,5.06,0.46,7.58,0.69c1.57,0.14,3.42,0.47,4.07,1.91c0.48,1.05,0.09,2.28-0.32,3.37c-7.65,20.29-20.56,38.57-37.11,52.57
		C149.39,126.65,147.97,127.72,146.38,127.6z"/>
	<g>
		<path class="st1" d="M53.32,109.37C51.96,87.69,33.57,68.33,12,65.86c-1.96-0.23-4.07-0.38-5.62-1.6
			c-1.87-1.49-2.35-4.08-2.69-6.45C1.81,44.4,0.58,30.9,0.02,17.37c-0.04-0.96-0.05-2,0.5-2.79c0.5-0.72,1.37-1.07,2.19-1.38
			c31.2-11.65,65.72-9.45,98.79-5.41c32.5,3.97,65.14,9.64,95.36,22.25c-0.73,14.58-2.37,29.11-4.9,43.49
			c-10.74,2.5-21.67,5.42-30.73,11.71c-9.06,6.29-16.05,16.63-15.47,27.64L53.32,109.37z"/>
		<path class="st2" d="M70.33,146.13c20.77,3.92,42.25,4.05,63.06,0.37c3.07-0.54,6.27-1.24,8.61-3.3c2.59-2.29,3.64-5.82,4.45-9.18
			c7.75-31.83,5.9-65.11,4-97.81c-0.36-6.24-0.82-12.78-4.19-18.05C141.3,10.4,131.5,7.55,122.53,5.34
			C104.6,0.91,85.19-3.27,68.11,3.77c-3.06,1.26-6.04,2.92-8.25,5.39c-1.75,1.96-2.93,4.36-3.86,6.82
			c-2.97,7.82-3.51,16.32-3.96,24.68c-1.42,26.12-2.3,52.27-2.64,78.43c-0.09,6.75,0.07,14.12,4.36,19.34
			C57.71,143.23,64.22,144.98,70.33,146.13z"/>
		<path class="st3" d="M137.22,77.66c-4.54,22.68-20.41,36.29-43.09,43.09c-2.27,0-9.07,4.54-9.07,9.07
			c-1,4.98-0.24,9.97,1.89,14.37c14.62,1.32,29.41,0.72,43.86-1.83c2.9-0.51,5.94-1.17,8.15-3.12c2.46-2.16,3.44-5.51,4.22-8.69
			c4.92-20.2,5.74-41.02,5.22-61.88C143.35,69.15,138.6,72.13,137.22,77.66z"/>
		<path class="st2" d="M6.03,12.94c-0.23,0.12-0.07,0.47,0.17,0.41c17.22-4.58,34.32,5,35.94,23.49
			c1.78,20.28-17.67,26.72-33.74,25.36c-1.62-0.14-2.27,2.36-0.83,3.07c19.41,9.64,38.73-9.5,38.69-28.43
			C46.23,16.36,23.51,4.2,6.03,12.94z"/>
		<path class="st2" d="M190.73,29.87c0.17,0.08,0.31-0.15,0.15-0.26c-12.27-8.4-31.81-1.46-32.77,14.68
			c-0.9,15.09,11.8,34.06,29.12,29.84c1.04-0.25,1.11-1.96,0-2.17c-5.67-1.06-10.7-1.16-15.99-3.83
			c-7.29-3.68-10.9-11.21-11.42-19.02C158.75,32.89,177.36,23.51,190.73,29.87z"/>
		<path class="st1" d="M88.12,5.52c-7.5-3.95-17.32-0.1-23,5.35c-6.65,6.39-8.28,18.7-6.21,27.23c0.21,0.87,1.5,0.84,1.73,0
			c2.05-7.58,1.35-15.08,5.73-22.02c5.16-8.16,13.53-4.76,21.16-6.05C89.65,9.68,89.91,6.46,88.12,5.52z"/>
		<path class="st1" d="M96.72,5.48c-4.22,0-4.22,5.24,0,5.24C98.83,10.72,98.83,5.48,96.72,5.48z"/>
	</g>
</g>
<g>
</g>
<g>
</g>
<g>
</g>
<g>
</g>
<g>
</g>
<g>
</g>
<g>
</g>
<g>
</g>
<g>
</g>
<g>
</g>
<g>
</g>
<g>
</g>
<g>
</g>
<g>
</g>
<g>
</g>
</svg>
