<?xml version="1.0" encoding="utf-8"?>
<!-- Generator: Adobe Illustrator 21.0.0, SVG Export Plug-In . SVG Version: 6.00 Build 0)  -->
<svg version="1.1" id="Layer_1" xmlns="http://www.w3.org/2000/svg" xmlns:xlink="http://www.w3.org/1999/xlink" x="0px" y="0px"
	 viewBox="0 0 368.31 616.2" style="enable-background:new 0 0 368.31 616.2;" xml:space="preserve">
<style type="text/css">
	.st0{opacity:0.1;fill:#171F24;}
	.st1{fill-rule:evenodd;clip-rule:evenodd;fill:#F7C196;}
	.st2{fill-rule:evenodd;clip-rule:evenodd;fill:#EF8337;}
	.st3{fill-rule:evenodd;clip-rule:evenodd;fill:#EF8200;}
	.st4{fill-rule:evenodd;clip-rule:evenodd;fill:#009B7A;}
	.st5{fill-rule:evenodd;clip-rule:evenodd;fill:#E6AD7F;}
	.st6{fill-rule:evenodd;clip-rule:evenodd;fill:#FFFFFF;}
	.st7{fill-rule:evenodd;clip-rule:evenodd;fill:#58382C;}
	.st8{fill-rule:evenodd;clip-rule:evenodd;fill:#3E3A39;}
	.st9{fill-rule:evenodd;clip-rule:evenodd;fill:#C06B1A;}
	.st10{fill-rule:evenodd;clip-rule:evenodd;fill:#684852;}
	.st11{fill-rule:evenodd;clip-rule:evenodd;fill:#D13E3A;}
	.st12{fill-rule:evenodd;clip-rule:evenodd;fill:#D07C30;}
	.st13{fill-rule:evenodd;clip-rule:evenodd;fill:#EB6D6C;}
	.st14{fill-rule:evenodd;clip-rule:evenodd;fill:#F3AB88;}
	.st15{fill-rule:evenodd;clip-rule:evenodd;fill:#86746B;}
	.st16{fill-rule:evenodd;clip-rule:evenodd;fill:#9E4C35;}
	.st17{fill-rule:evenodd;clip-rule:evenodd;fill:#F6B67F;}
	.st18{fill-rule:evenodd;clip-rule:evenodd;fill:#E7E5E4;}
	.st19{fill-rule:evenodd;clip-rule:evenodd;fill:#F4AB84;}
	.st20{fill-rule:evenodd;clip-rule:evenodd;fill:#FFFBDA;}
	.st21{fill-rule:evenodd;clip-rule:evenodd;fill:#D97309;}
	.st22{fill-rule:evenodd;clip-rule:evenodd;fill:#353131;}
	.st23{fill-rule:evenodd;clip-rule:evenodd;fill:#F0F1F1;}
	.st24{fill-rule:evenodd;clip-rule:evenodd;fill:#008B6F;}
	.st25{fill-rule:evenodd;clip-rule:evenodd;fill:#503226;}
	.st26{fill-rule:evenodd;clip-rule:evenodd;fill:#BC631D;}
	.st27{fill-rule:evenodd;clip-rule:evenodd;fill:#77635B;}
</style>
<g>
	<ellipse class="st0" cx="183.69" cy="604.14" rx="183.69" ry="12.06"/>
	<path class="st1" d="M261.9,474.5c0.15,3.22,6.56,110.93,6.56,110.93s-20.89,13.18-18.91,13.32c1.07,0.08,9.17,4.03,16.47,3.84
		c6.22-0.17,11.89-4.48,11.89-4.53l0.61-123.8L261.9,474.5z"/>
	<path class="st2" d="M267.65,599.68c-0.23-0.75,0.14-14.58-10.15-11.43c-10.29,3.15-18.49,17.58-7.95,20.26
		c10.54,2.68,28.74-9.02,28.74-9.71c0-0.69,0.72-0.62-0.36-6.02C275.25,597.15,272.61,599.9,267.65,599.68z"/>
	<path class="st3" d="M171.4,204.65c0-3.22,12.73-36.91,12.73-36.91l73.17,87.43c0,0,0.13,25.84-13.65,18.49
		C229.87,266.32,171.4,204.65,171.4,204.65z"/>
	<path class="st1" d="M305.84,473.94c-0.15,3.22-6.56,110.93-6.56,110.93s20.89,13.18,18.91,13.32c-1.07,0.08-9.17,4.03-16.47,3.84
		c-6.22-0.17-11.89-4.48-11.89-4.53l-0.61-123.8L305.84,473.94z"/>
	<path class="st2" d="M300.09,599.12c0.23-0.75-0.14-14.58,10.15-11.42c10.29,3.15,18.49,17.58,7.95,20.26
		c-10.54,2.68-28.74-9.02-28.74-9.71c0-0.69-0.72-0.62,0.36-6.02C292.49,596.59,295.13,599.34,300.09,599.12z"/>
	<path class="st4" d="M280.78,214.99c0,0-50.47-3.59-53.32,17.83c-11.21,84.34-19.07,234.24-16.99,255.69
		c0.84,8.72,36.76,14.69,73.96,15.68c37.19-0.99,73.11-6.96,73.96-15.68c2.08-21.45-5.78-171.35-16.99-255.69
		c-2.85-21.42-53.32-17.83-53.32-17.83l-3.64,0.26L280.78,214.99z"/>
	<path class="st1" d="M244.47,252.69c-1.31-3.5-17.65-24.64-17.65-24.64c-33.29,76.41-47.73,127.33,37.27,171.23l0.09-8.67
		C202.63,341.34,217.01,298.67,244.47,252.69z"/>
	<path class="st5" d="M247.2,389.64c-10.18-10.95-33.67-38.17-35.21-57.87c-1.96-25.2,7.33-50.02,7.33-50.02l-8.49-13.93
		C193.3,318.1,194.39,356.18,247.2,389.64z"/>
	<path class="st4" d="M234.55,291.59c0,0-30.09-6.5-30.55-12.32s6.66-36.06,14.47-45.7c7.81-9.63,22.51-14.34,22.51-14.34
		s8.73,17.7,7.81,34.5C247.87,270.54,234.55,291.59,234.55,291.59z"/>
	<path class="st1" d="M264.18,390.61c0.97-0.32,7.26-1.82,7.26-1.82s15.33-0.6,14.28,1.33c-1.05,1.94-6.78,4.03-6.78,4.03
		s15.17,9.36,12.83,11.86c-2.34,2.5-12.18,2.42-17.34,0.32c-5.16-2.1-12.23-8.76-12.23-8.76L264.18,390.61z"/>
	<path class="st1" d="M304.85,390.53c-0.97-0.32-7.26-1.82-7.26-1.82s-15.33-0.6-14.28,1.33c1.05,1.94,6.78,4.03,6.78,4.03
		s-15.17,9.36-12.83,11.86c2.34,2.5,12.18,2.42,17.34,0.32c5.16-2.1,12.23-8.76,12.23-8.76L304.85,390.53z"/>
	<path class="st1" d="M324.52,252.64c1.31-3.5,17.65-24.64,17.65-24.64c33.29,76.41,47.73,127.33-37.27,171.23l-0.09-8.67
		C366.35,341.29,351.97,298.63,324.52,252.64z"/>
	<path class="st4" d="M334.48,291.48c0,0,30.09-6.5,30.55-12.32c0.46-5.82-6.66-36.06-14.47-45.7
		c-7.81-9.63-22.51-14.34-22.51-14.34s-8.73,17.7-7.81,34.5C321.16,270.42,334.48,291.48,334.48,291.48z"/>
	<path class="st6" d="M241.33,219.97c-2.26,4.31-1.62,14.77,12.4,16.38c0,0-5.74,8.73-1.72,11.94c4.02,3.22,11.6-0.69,11.6-0.69
		s-1.38,10.34,4.59,11.6c5.97,1.26,11.14-4.59,11.14-4.59s2.92,6.32,4.94,7.39c2.02-1.07,4.94-7.39,4.94-7.39s5.17,5.86,11.14,4.59
		c5.97-1.26,4.59-11.6,4.59-11.6s7.58,3.9,11.6,0.69c4.02-3.22-1.72-11.94-1.72-11.94c14.02-1.61,14.32-10.23,12.4-16.38
		c-2.07-6.65-39.46-4.98-41.27-4.85c-0.57,0.04-1.17,4.72-1.68,10.02c-0.5-5.3-1.11-9.98-1.68-10.02
		C280.79,214.99,244.56,213.8,241.33,219.97z"/>
	<path class="st7" d="M82.73,578.59c-1.72,1.49-8.2,7-8.2,7s-25.11,15.05-24.3,18.15c0.8,3.1,29.05-1.44,29.86-2.35
		c0.8-0.92,1.95-1.78,1.95-1.78l1.92,1.15l7.52-1.62l-0.61-16.3L82.73,578.59z"/>
	<path class="st7" d="M170.17,578.59c1.72,1.49,8.2,7,8.2,7s25.11,15.05,24.3,18.15c-0.8,3.1-29.05-1.44-29.86-2.35
		c-0.8-0.92-1.95-1.78-1.95-1.78l-1.92,1.15l-7.52-1.62l0.61-16.3L170.17,578.59z"/>
	<path class="st8" d="M93.92,340.16c-5.52,4.16-23.45,24.56-23.45,24.56l3.68,221.1l18.08,1.25c0,0,1.57-174.73,39.23-174.49
		c37.66,0.24,28.19,175.64,28.19,175.64s19.05,0.81,18.48-2.84C177.55,581.73,196.77,367,196.77,367l-44.98-25.59L93.92,340.16z"/>
	<path class="st1" d="M8.71,365.19c-1.38,4.96-2.07,18.37-1.61,24.35c0.46,5.97,5.4,12.75,7.58,11.14c2.18-1.61,2.18-7.58,4.25-7.81
		c2.07-0.23,2.3,6.09,4.25,1.49c1.95-4.59-4.24-24.85-4.24-24.85L8.71,365.19z"/>
	<path class="st3" d="M105.98,214.19c-4-7.6-20.83-41.78-20.83-41.78C28.01,225.95-16.47,250.46,7.59,372.3l11.58-2.09
		C11.73,301.26,41.55,242.52,105.98,214.19z"/>
	<path class="st3" d="M186.56,156.85c-1.63,23.74,8.79,120.58,10.71,225.12c0.21,11.7-131.09,14.06-130-2.3
		c4.19-62.63,14.5-227.93,19.89-227.67L186.56,156.85z"/>
	<path class="st9" d="M101.35,172.51c-3.36,2.5-11.11,10.21-11.11,10.21l43.45,94.38l53.08-99.85c0,0-32.93-4.33-40.67-6.03
		c-7.74-1.7-41.52-0.33-41.52-0.33L101.35,172.51z"/>
	<path class="st10" d="M97.4,172.83c0,3.22,37.17,98.38,37.17,98.38l44.74-105L97.4,172.83z"/>
	<path class="st1" d="M193.89,82.78c20.72-17.34,33.79,4.61,15.91,18.79c-10.14,8.04-17.22,3.93-17.65,2.27
		C191.71,102.18,193.89,82.78,193.89,82.78z"/>
	<path class="st1" d="M82.41,84.04C61.69,66.7,48.62,88.65,66.5,102.84c10.14,8.04,17.22,3.93,17.65,2.27
		C84.59,103.45,82.41,84.04,82.41,84.04z"/>
	<path class="st6" d="M74.07,62.45c0.69,4.36,7.81,21.13,7.12,45.48c-0.69,24.35-4.59,39.62-3.9,39.27c0.69-0.34,3.9-1.61,3.44-0.92
		c-0.46,0.69-0.8,9.53,0.23,18.95c1.03,9.42,3.1,14.7,3.1,14.01c0-0.69,2.87-4.02,2.87-4.02s5.28,6.43,16.54,16.31
		c11.25,9.88,13.55,10.11,13.55,10.11l-0.69-7.35c0,0,8.04,4.13,11.25,12.17c3.22,8.04,4.13,11.25,4.59,9.88
		c0.46-1.38,10.57-13.32,10.57-13.32s1.38,9.42,2.76,6.89c1.38-2.53,12.75-5.05,22.74-15.62c9.99-10.57,12.86-16.65,12.98-15.39
		c0.11,1.26-0.23,6.43,0.57,4.94c0.8-1.49,8.38-8.5,13.21-24.23c4.82-15.73-0.57-32.04-0.57-32.04s3.79,5.28,3.33,4.02
		c-0.46-1.26-1.26-29.74-1.03-48.35c0.23-18.6,3.67-28.48,3.67-28.48s0.58-1.72,1.49-13.09c0.92-11.37-2.18-20.56-2.07-19.52
		c0.12,1.03-1.72,9.88-1.49,8.15c0.23-1.72,0.57-3.45-5.17-10.45c-5.74-7.01-8.04-7.92-8.04-7.92s2.87,10.22,2.64,9.19
		c-0.23-1.03-17.46-11.48-36.75-19.29c-19.29-7.81-48.12,11.83-61.78,15.16c-13.67,3.33-19.98,1.49-18.83,2.3
		c1.15,0.8,10.45,3.79,7.46,4.25c-2.99,0.46-13.32-0.34-12.63,0c0.69,0.34,11.71,17,10.8,18.38c-0.92,1.38-7.24,9.53-6.89,11.71
		C69.49,55.8,74.07,62.45,74.07,62.45z"/>
	<path class="st1" d="M87.62,147.32c-4.02,20.83,18.73,24.04,49.61,26.99c30.88-2.95,53.64-6.16,49.61-26.99
		c-4.07-21.09,3.45-78.63,7.12-93.94c0,0-28.53-2.39-56.73-4.29c-28.2,1.9-56.73,4.29-56.73,4.29
		C84.17,68.69,91.69,126.23,87.62,147.32z"/>
	<path class="st6" d="M189.15,37.19c1.61,2.53,4.81,16.19,4.81,16.19s0.24,1.73-12.62,12.41c-12.86,10.68-21.93,13.32-21.93,13.32
		l9.88-14.24c0,0-5.74,7.12-24.23,10.34c-18.49,3.22-27.68,0.57-26.41,1.03c1.26,0.46,13.21-11.83,13.21-11.83
		s-17.8,5.05-25.61,7.24c-7.81,2.18-11.02,2.18-9.99,1.84c1.03-0.34,7.46-11.94,7.46-11.94l-15.27,4.59L80.5,53.38
		c0,0,47.55-17.45,50.08-17.22C133.11,36.39,189.15,37.19,189.15,37.19z"/>
	<path class="st6" d="M85.79,128.95c0.34-2.99,1.95-10.68,1.95-10.68s5.86,7.69,16.19,13.32c12.16,6.62,8.89-0.78,16.42-3.9
		c4.49-1.86,33.49-0.68,36.98,0.57c4.38,1.58,6.27,8.54,9.08,7.63c8.05-2.6,17.04-7.75,25.95-12.23c0.47,38.39-5.35,60.1-50.18,55.7
		c-36.29-3.56-54.09-9.07-57.42-17.46C81.43,153.52,85.79,128.95,85.79,128.95z"/>
	<path class="st11" d="M155.65,132.85c0.36,1.45,0.55,2.98,0.55,4.55c0,10.06-7.76,18.22-17.34,18.22
		c-9.58,0-17.34-8.16-17.34-18.22c0-1.57,0.19-3.1,0.55-4.55H155.65z"/>
	<path class="st8" d="M111.18,101.5c4.71,0,8.56-4.64,8.56-10.34c0-5.69-3.84-10.34-8.56-10.34c-4.71,0-8.56,4.64-8.56,10.34
		C102.62,96.86,106.47,101.5,111.18,101.5z"/>
	<ellipse class="st6" cx="115.13" cy="89.84" rx="2.51" ry="3.76"/>
	<path class="st6" d="M122.67,86.13c-10.08-1.22-18.66-1.04-25.53,1.17c-5.64,1.82-5.91-2.35-0.1-6.55
		c5.81-4.21,18.66-4.52,26.53-3.76C131.45,77.74,129.81,87.7,122.67,86.13z"/>
	<path class="st8" d="M163.55,102.88c4.71,0,8.56-4.64,8.56-10.34c0-5.69-3.84-10.34-8.56-10.34c-4.71,0-8.56,4.64-8.56,10.34
		C154.99,98.24,158.83,102.88,163.55,102.88z"/>
	<ellipse class="st6" cx="167.49" cy="91.22" rx="2.51" ry="3.76"/>
	<path class="st6" d="M154.62,86.48c10.08-1.22,18.66-1.04,25.53,1.17c5.64,1.82,5.91-2.35,0.1-6.55
		c-5.81-4.21-18.66-4.52-26.53-3.76C145.83,78.08,147.47,88.05,154.62,86.48z"/>
	<path class="st12" d="M76.1,86.05c-2.07-1.38-8.36-5.89-11-1.98c-2.64,3.9,1.44,11.94,6.2,15.68c4.77,3.73,7.41,0.11,4.88-3.1
		c-2.53-3.22-1.26-5.74,0.34-7.23C78.14,87.92,76.1,86.05,76.1,86.05z"/>
	<path class="st6" d="M153.65,132.85h-4.28v6.86h2.21c1.14,0,2.07-0.93,2.07-2.07V132.85L153.65,132.85z M143.95,132.85h-20.38v4.79
		c0,1.14,0.93,2.07,2.07,2.07h18.32V132.85z"/>
	<path class="st13" d="M152.92,148.06c-3.04-1.82-8.21-3.01-14.06-3.01c-5.86,0-11.02,1.19-14.06,3.01
		c3.15,4.58,8.28,7.56,14.06,7.56C144.64,155.62,149.77,152.64,152.92,148.06z"/>
	<path class="st14" d="M120.78,113.93c3.07,15.98,24.04,15.32,26.41,0.46c1.18-7.39-7.92-30.32-7.92-30.32
		C134.66,114.15,119.9,109.35,120.78,113.93z"/>
	<path class="st15" d="M14.97,396.55l14.58,207.28l3.33,0.11c0,0-10.99-206.28-11.48-210.1C20.38,385.9,14.49,389.79,14.97,396.55z"
		/>
	<path class="st16" d="M134.2,85.01c-0.39,0.01-0.77,0-1.16,0c-0.15,1.26-0.22,2.44-0.43,3.59c-1.93,11.01-6.93,22.32-18.32,25.99
		c-5.53,1.78-11.76,1.66-17.15-0.41c-7.62-2.91-11.42-6.93-14.27-14.62c-1.58-4.26-2.53-8.7-3.4-13.14
		c-0.35-1.82-1.08-3.28-2.99-3.88c-0.58-0.18-0.92-0.62-0.94-1.24c-0.06-1.52-0.1-3.05-0.14-4.57c-0.02-0.68,0.37-1,0.99-1.12
		c0.84-0.17,1.67-0.36,2.51-0.51c5.62-1.06,11.29-1.69,17-2.01c9.52-0.54,19.23,0.38,28.55,2.38c3.26,0.7,6.14,2.08,7.85,5.17
		c0.23,0.42,0.5,0.62,0.98,0.61c3.16-0.08,5.92-0.08,9.08,0c0.47,0.01,0.75-0.19,0.98-0.61c1.71-3.09,4.59-4.47,7.85-5.17
		c9.32-2,19.03-2.92,28.55-2.38c5.71,0.32,11.38,0.95,17,2.01c0.84,0.16,1.68,0.35,2.51,0.51c0.62,0.12,1.01,0.44,0.99,1.12
		c-0.05,1.52-0.09,3.05-0.14,4.57c-0.02,0.62-0.36,1.06-0.94,1.24c-1.91,0.6-2.64,2.06-2.99,3.88c-0.87,4.45-1.81,8.88-3.4,13.14
		c-2.85,7.69-6.66,11.71-14.27,14.62c-5.39,2.06-11.62,2.19-17.15,0.41c-11.4-3.67-16.39-14.98-18.33-25.99
		c-0.2-1.15-0.28-2.33-0.43-3.59c-0.38,0-0.77,0.01-1.15,0C138.9,84.95,136.74,84.95,134.2,85.01L134.2,85.01z M147.8,87.05
		L147.8,87.05c-0.24,2.21-0.05,4.39,0.36,6.55c1.59,8.48,5,15.55,13.94,18.15c5.19,1.51,10.38,1.38,15.5-0.31
		c11-3.62,14.99-16.2,13.81-26.8c-0.4-3.6-3.3-6.95-7.07-7.5c-1.51-0.22-3.01-0.53-4.53-0.62c-7.46-0.45-19.04-0.37-25.76,2.48
		C150.47,80.52,148.23,83.08,147.8,87.05L147.8,87.05z M127.85,87.05L127.85,87.05c-0.43-3.97-2.67-6.53-6.25-8.05
		c-6.72-2.85-18.3-2.93-25.76-2.48c-1.52,0.09-3.02,0.4-4.53,0.62c-3.77,0.55-6.67,3.9-7.07,7.5c-1.18,10.6,2.82,23.18,13.81,26.8
		c5.13,1.69,10.31,1.82,15.5,0.31c8.94-2.59,12.34-9.66,13.94-18.15C127.89,91.44,128.09,89.26,127.85,87.05z"/>
	<path class="st17" d="M283.96,240.29c7.84,0,14.24-10.94,14.24-24.35c0-13.41-6.4-24.35-14.24-24.35
		c-7.84,0-14.24,10.94-14.24,24.35C269.72,229.36,276.11,240.29,283.96,240.29z"/>
	<path class="st12" d="M200.2,84.79c2.07-1.38,8.36-5.89,11-1.98c2.64,3.9-1.44,11.94-6.2,15.68c-4.77,3.73-7.41,0.11-4.88-3.1
		c2.53-3.22,1.26-5.74-0.34-7.24C198.17,86.66,200.2,84.79,200.2,84.79z"/>
	<g>
		<path class="st18" d="M253.67,33.21c14.09-4.14,29.83,6.19,35.15,23.07c5.32,16.88-1.79,33.92-15.89,38.06
			c-14.09,4.14-29.83-6.19-35.15-23.07C232.46,54.39,239.58,37.35,253.67,33.21z"/>
		<path class="st6" d="M223.7,177.5c-2.26-2.33-16.57-14.39-20.69-37.76c-4.12-23.37-7.68-34.63,5.67-51.81
			c13.36-17.18,37.43-21.68,50.93-19.03c18.13,3.56,58.96,1.11,68.15,6.95c12.34,7.84,22.36,17.18,22.98,38.33
			c0.62,21.15-9.27,44.03-9.27,44.03L223.7,177.5z"/>
		<path class="st1" d="M336.12,129.31c18.7-19.5,34.09,0.88,17.87,16.94c-9.2,9.1-16.68,5.79-17.3,4.19
			C336.07,148.83,336.12,129.31,336.12,129.31z"/>
		<path class="st12" d="M342.61,130.61c1.9-1.6,7.66-6.76,10.71-3.17c3.05,3.59-0.12,12.03-4.45,16.26
			c-4.33,4.23-7.35,0.92-5.19-2.55c2.16-3.47,0.63-5.85-1.13-7.15C340.79,132.69,342.61,130.61,342.61,130.61z"/>
		<path class="st1" d="M220.06,141.05c-22.49-14.97-33.09,8.27-13.76,20.42c10.96,6.88,17.54,2.03,17.8,0.33
			C224.35,160.1,220.06,141.05,220.06,141.05z"/>
		<path class="st12" d="M214,143.74c-2.21-1.14-8.95-4.94-11.15-0.77c-2.2,4.17,2.73,11.72,7.88,14.9c5.15,3.19,7.38-0.7,4.51-3.62
			c-2.86-2.92-1.88-5.57-0.45-7.23C216.23,145.37,214,143.74,214,143.74z"/>
		<path class="st1" d="M286.8,214.65c88.31-9.71,40.65-65.42,49.57-118.42c0,0-31.34,1.22-62.28,2.85
			c-30.55,5.13-61.41,10.76-61.41,10.76C233.16,160.26,196.76,224.55,286.8,214.65z"/>
		<path class="st6" d="M285.18,102.08c15.37,23.98,46.39,34.01,51.59,28.4c35.65-38.44-24.54-89.42-64.8-61.02
			c-62.3-16.36-91.26,45.84-57.97,74.28C225.43,153.5,265.31,120.93,285.18,102.08z"/>
		
			<ellipse transform="matrix(0.994 -0.1093 0.1093 0.994 -14.7931 28.0996)" class="st8" cx="248.83" cy="148.94" rx="8.56" ry="10.34"/>
		
			<ellipse transform="matrix(0.994 -0.1093 0.1093 0.994 -14.5724 28.4861)" class="st6" cx="252.61" cy="147.2" rx="2.51" ry="3.76"/>
		<path class="st6" d="M259.14,134.09c-10.09,0.5-18.61,1.52-25.31,3.37c-5.51,1.52-6-0.52-0.46-3.25
			c5.54-2.73,18.3-4.28,26.17-4.77C267.41,128.96,266.33,134.09,259.14,134.09z"/>
		
			<ellipse transform="matrix(0.994 -0.1093 0.1093 0.994 -13.6341 34.7164)" class="st8" cx="309.77" cy="141.69" rx="8.55" ry="10.34"/>
		
			<ellipse transform="matrix(0.994 -0.1093 0.1093 0.994 -13.5564 34.2496)" class="st6" cx="305.7" cy="140.81" rx="2.51" ry="3.76"/>
		<path class="st6" d="M298.2,131.08c9.96-1.71,18.49-2.56,25.44-2.21c5.71,0.29,5.74-1.81-0.26-3.27c-6-1.46-18.79-0.2-26.58,1.03
			C289.01,127.87,291.18,132.64,298.2,131.08z"/>
		<path class="st11" d="M297.72,176.99c0.48,1.32,0.81,2.71,0.97,4.18c1.03,9.36-5.36,17.73-14.26,18.71
			c-8.91,0.98-16.96-5.81-17.99-15.17c-0.16-1.46-0.14-2.9,0.04-4.29L297.72,176.99z"/>
		<path class="st6" d="M295.87,177.19l-2.95,0.32l-1.03,0.11l-5.05,0.56l-3.45,0.38l-15.5,1.71l0.49,4.46
			c0.12,1.06,1.08,1.83,2.13,1.71l13.58-1.49l3.45-0.38l5.05-0.55l1.03-0.11l1.03-0.11c1.06-0.12,1.83-1.08,1.71-2.13L295.87,177.19
			z"/>
		<path class="st13" d="M296.74,191.41c-3.01-1.38-7.94-1.96-13.39-1.36c-5.45,0.6-10.13,2.24-12.77,4.24
			c3.4,3.94,8.47,6.18,13.85,5.59C289.82,199.28,294.28,195.99,296.74,191.41z"/>
		<path class="st14" d="M268.45,166.79c4.34,14.06,23.12,11.39,23.79-2.2c0.33-6.76-10.12-26.47-10.12-26.47
			C280.95,165.61,267.2,162.75,268.45,166.79z"/>
		
			<ellipse transform="matrix(0.994 -0.1093 0.1093 0.994 -16.9666 27.871)" class="st19" cx="245.7" cy="168.67" rx="14.18" ry="4.36"/>
		
			<ellipse transform="matrix(0.994 -0.1093 0.1093 0.994 -15.5395 35.3843)" class="st19" cx="314.99" cy="159.44" rx="14.18" ry="4.36"/>
		
			<ellipse transform="matrix(0.994 -0.1093 0.1093 0.994 -16.7878 24.6679)" class="st20" cx="216.55" cy="165.42" rx="5.74" ry="5.74"/>
		
			<ellipse transform="matrix(0.994 -0.1093 0.1093 0.994 -14.5773 38.4992)" class="st20" cx="343.77" cy="152.18" rx="5.74" ry="5.74"/>
	</g>
	<circle class="st8" cx="133.75" cy="289.99" r="4.36"/>
	<circle class="st8" cx="133.75" cy="327.08" r="4.36"/>
	<circle class="st8" cx="133.75" cy="361.99" r="4.36"/>
	<path class="st21" d="M19.83,291.25c-9.19,32.61-8.37,75.11-8.37,75.11s-1.43,1.09-3.48,2.61c-0.29,0.22-0.6,0.44-0.91,0.67
		c0.17,0.88,0.34,1.77,0.52,2.66l11.56-2.09l0.02,0c-6.25-57.91,13.79-108.62,58.55-140.16c0.47-5.95,0.95-11.73,1.42-17.28
		c-3.87,5.91-7.76,11.92-8.32,13.03C69.67,228.09,29.02,258.64,19.83,291.25z"/>
	<path class="st21" d="M77.72,230.04c-4.11,51.56-8.18,115.68-10.45,149.63c-0.11,1.67,1.15,3.14,3.52,4.43
		c14.02,7.65,66.67,8.79,99.45,5.51c-15.14-2.33-58.92-7.91-66.35-15.9c-4.66-5.01-6.78-19.8-7.86-33.5
		c-1.04-13.28-1.11-25.55-1.56-26.91c-0.92-2.76,17.46-10.57,19.29-9.19c1.32,0.99-12.87-52.94-20.98-83.45
		c-3.19-11.99-5.44-20.37-5.44-20.37s-4.09,6.17-8.22,12.46C78.67,218.31,78.19,224.09,77.72,230.04z"/>
	<path class="st22" d="M170.24,389.61c-32.79,3.28-85.44,2.14-99.45-5.51l3.36,201.72l4.95,0.34l2.06-1.15c0,0,0.05-1.86,0.15-5.21
		c0.88-28.7,5.59-166.63,15.47-174.86c11.02-9.19,76.02-13.32,78.55-14.24C175.81,390.53,173.83,390.16,170.24,389.61z"/>
	<path class="st1" d="M311.98,218.33c3.95,2.28,13.78,0.98,13.78,0.98s-2.24,2.7,2.58,8.96c4.82,6.26,14.41,10.68,17.8,6.78
		c3.39-3.9,3.79-8.61-1.26-14.53c-5.05-5.91-18.2-7.92-20.1-7.52C322.23,213.53,308.03,216.05,311.98,218.33z"/>
	<path class="st22" d="M131.46,412.58c37.66,0.24,28.19,175.64,28.19,175.64s0.85,0.04,2.18,0.06c1.72,0.03,4.24,0.04,6.78-0.09
		c0.15-2.48,0.36-5.55,0.62-9.1c3.21-45.24,12.41-169.73-35.99-167.48c-1.95,0.09-4.01,0.81-5.79,1.64
		C128.73,412.8,130.07,412.57,131.46,412.58z"/>
	<path class="st21" d="M179.17,230.73c0,0,10.27,70.81,17.21,118.06c-1.61-47.02-4.56-90.92-6.84-125.34
		c-0.29-4.35-0.57-8.54-0.83-12.57c-4.3-4.71-7.48-8.41-7.48-8.86c0-0.63-0.43,5.32-0.9,11.96
		C179.78,221.87,179.17,230.73,179.17,230.73z"/>
	<path class="st21" d="M189.55,223.46c6.78,6.93,14.73,14.95,22.5,22.54c1.97-5.13,4.17-9.63,6.43-12.41
		c3.44-4.24,8.21-7.53,12.48-9.88l-3.38-4.04c-0.86,0.17-1.75,0.41-2.69,0.73c-10.11,3.45-13.09,10.57-13.32,12.86
		c-0.16,1.55-13.91-12.59-22.84-22.37C188.98,214.91,189.26,219.11,189.55,223.46z"/>
	<path class="st23" d="M110.81,42.49c-7.22-0.11-12.45-0.16-12.94-0.09c-1.72,0.23,21.02-9.3,22.28-9.65
		c1.26-0.34-21.36,0.12-28.02-1.72c-6.66-1.84-26.92-7.53-26.92-7.53c0,0.01,0.01,0.02,0.03,0.03c0.69,0.34,11.71,17,10.8,18.38
		l4.47,11.48l7.94,12.75l15.27-4.59c0,0-5.17,9.32-6.98,11.5c1.45-0.07,2.91-0.11,4.37-0.11c1.41-0.3,3.12-0.72,5.14-1.29
		c7.81-2.18,25.61-7.24,25.61-7.24S124.85,71.6,121,74.77c1.15,0.21,2.3,0.44,3.45,0.69c1.4,0.3,2.73,0.73,3.92,1.36
		c4.24-0.04,9.82-0.42,16.68-1.62c18.49-3.22,24.23-10.34,24.23-10.34l-6,8.65c1.08-0.11,2.15-0.21,3.23-0.29
		c4.82-5.82,10.83-13.11,11.17-13.72c0.57-1.03-39.62,13.21-39.62,13.21s18.16-12.92,30.22-21.38c5.33-3.74,9.47-6.61,10.32-7.1
		c1.6-0.94-9.79,2.95-20.09,6.37c-7.39,2.45-14.22,4.66-15.28,4.66c-1.25,0,2.3-2.6,6.36-5.3c4.13-2.75,8.79-5.6,9.48-5.95
		C160.06,43.51,129.08,42.78,110.81,42.49z"/>
	<path class="st23" d="M85.42,131.25l-3.98-24.13l-0.2-1.21c0,0.43-0.01,0.86-0.02,1.29c-0.01,0.25-0.01,0.49-0.02,0.74
		c-0.69,24.35-4.59,39.62-3.9,39.27c0.69-0.34,3.9-1.61,3.44-0.92c-0.46,0.69-0.8,9.53,0.23,18.95c0.44,3.97,1.05,7.2,1.63,9.57
		c0.05,0.2,0.1,0.39,0.14,0.58c0.72,2.85,1.33,4.24,1.33,3.87c0-0.56,1.92-2.89,2.62-3.72c0.16-0.19,0.25-0.3,0.25-0.3
		s1.69,2.06,5.2,5.63c2.69,2.74,6.45,6.38,11.34,10.67c0.24,0.21,0.47,0.41,0.7,0.61c10.65,9.28,12.86,9.5,12.86,9.5l-0.69-7.35
		c0,0,8.04,4.13,11.25,12.17c3.22,8.04,4.13,11.25,4.59,9.88c0.46-1.38,10.57-13.32,10.57-13.32s1.38,9.42,2.76,6.89
		c1.31-2.39,11.58-4.79,21.16-14.02c0.53-0.51,1.06-1.04,1.58-1.6c5.64-5.97,9.01-10.51,10.9-13.1c1.45-2,2.03-2.84,2.08-2.29
		c0.11,1.26-0.23,6.43,0.57,4.94c0.4-0.73,2.43-2.8,4.98-6.59c0.72-1.07,1.48-2.28,2.26-3.64c2.05-3.59,4.2-8.2,5.98-13.99
		c0.37-1.21,0.68-2.42,0.94-3.63c-2.06,1.42-4.36-4.65-6.33-6.91c-0.09,0.09-3.39,15.45-3.47,15.54c-0.61,1.1-1.28,2.14-2.01,3.13
		c-1.2,1.63-2.57,3.1-4.11,4.42c-0.85,1.31-1.84,2.57-2.9,3.78c-1.08,1.22-0.29-28.39-1.49-27.29
		c-5.29,23.26-15.74,40.61-15.74,40.61l1.94-26.38c-6.38,16.98-14.93,29.59-18.25,33.27c0,0-5.51-8.04-5.74-9.42
		c-0.23-1.38-4.13,8.73-4.13,8.73s-5.97-3.45-13.55-13.78c-1.27-1.73-2.37-3.65-3.33-5.65c-0.69-1.45-1.31-2.94-1.85-4.42
		c-0.03-0.07-0.05-0.14-0.08-0.2c-0.1-0.28-0.2-0.56-0.3-0.84c-2.88-8.31-3.63-16.21-3.63-16.21l-9.42,11.71l-2.7-13.5l-4.19-20.95
		L88.63,138l-1.78,1.89L85.42,131.25z"/>
	<path class="st24" d="M226.27,289.57c-11.47,32.73-6.94,65.13,37.91,101.04c0.97-0.32,7.26-1.82,7.26-1.82s9.26-0.36,12.89,0.38
		c3.33-0.86,13.26-0.46,13.26-0.46s6.29,1.49,7.26,1.82c44.84-35.91,49.34-68.32,37.85-101.06c-4.68,1.24-8.22,2.01-8.22,2.01
		s-1.12-1.77-2.73-4.69c-1.12,0.65-2.13,1.22-2.82,1.6c-2.83,1.56,12.17,5.51,12.17,5.51s2.76,34.45-7.12,55.35
		c-9.88,20.9-30.78,36.98-30.78,36.98s-26.41-0.69-40.42-6.43c-14.01-5.74-16.77-23.43-19.52-36.52
		c-2.76-13.09,7.58-21.59,7.58-21.59s-18.41-8.02-20.67-21.13c-0.47-2.71-0.18-6.12,0.56-9.85
		C229.46,290.4,227.93,290.01,226.27,289.57z"/>
	<path class="st24" d="M206.29,282.12c3.22,2.23,9.33,4.38,15.04,6.07c1.71,0.51,3.38,0.97,4.94,1.38c1.67,0.44,3.19,0.83,4.46,1.14
		c1.36-6.79,4.25-14.64,6.89-21.27c2.92-7.32,5.53-13.14,5.46-14.41c-0.08-1.49-4.4,4.83-8.78,11.66c-4.56,7.12-9.2,14.8-9.2,14.8
		s-1.25-0.26-3.04-1.07c-2.34-1.07-5.61-3.09-8.22-6.74c-1.32-1.84-1.66-5.7-1.43-10.33c0.23-4.65,1.04-10.08,2.01-15.03
		c1.43-7.31,3.22-13.57,4.03-14.75c-0.12,0.15-0.24,0.3-0.35,0.45c-0.13,0.18-0.29,0.4-0.47,0.64c-1.96,2.8-3.87,6.81-5.6,11.32
		c-4.86,12.65-8.37,29.14-8.04,33.28C204.08,280.21,204.92,281.17,206.29,282.12z"/>
	<path class="st24" d="M339.84,282.07c0,0-4.62,2.71-8.1,4.71c1.61,2.92,2.73,4.69,2.73,4.69s3.55-0.77,8.22-2.01
		c1.51-0.4,3.14-0.85,4.81-1.34c5.74-1.69,11.91-3.86,15.18-6.09c1.4-0.96,2.26-1.93,2.34-2.88c0.09-1.09-0.09-3.05-0.5-5.56
		c-1.34,0.41-2.7,0.82-4.03,1.2c-4.52,1.3-8.72,2.33-10.67,2.33c-0.93,0-2.19-0.96-3.64-2.54c-6.77-7.4-17.59-28.37-17.59-28.37
		L339.84,282.07z"/>
	<path class="st24" d="M264.09,399.28c-22.93-11.84-38.63-24.2-48.66-37.42c-4.09,60.04-6.15,114.38-4.96,126.66
		c0.68,7.06,24.37,12.32,53.11,14.59c4.82,0.38,9.78,0.68,14.8,0.88c2.01,0.08,4.03,0.15,6.05,0.21c1.65-0.04,3.3-0.1,4.95-0.16
		c5-0.19,9.94-0.47,14.76-0.84c11.86-0.9,22.91-2.31,31.9-4.14c-7.21-1.32-16.09-3.06-26.85-5.34c-1.5-0.32-2.98-0.64-4.43-0.95
		c-5.51-1.19-10.66-2.36-15.45-3.48c-3.86-0.91-7.47-1.79-10.84-2.65c-6.19-1.57-11.57-3.06-16.11-4.43
		c-11.21-3.4-17.35-6.15-18.16-8.01c-1.61-3.67,9.88-12.63,12.4-13.32c2.53-0.69-8.5-12.17-13.32-22.28
		c-4.82-10.11-9.19-34.45-9.19-34.45s55.81,17,80.39,2.53c24.58-14.47,29.95-34.57,29.95-34.57c-9.67,9.42-22.63,18.42-39.52,27.14
		c-2.46,2.12-6.81,5.61-10.29,7.03c-2.22,0.9-5.3,1.43-8.27,1.54c-3.87,0.35-8.76-0.18-11.91-1.46
		C270.92,404.92,266.54,401.4,264.09,399.28z"/>
	<path class="st23" d="M266.02,100.44c-10.05,9.76-31.29,28.73-47.47,31.84c-5.35,1.03-9.92,0.92-13.79,0.14
		c0.7,1.28,1.48,2.54,2.34,3.77c1.9,2.7,4.19,5.23,6.9,7.55c0,0,0.08,0.06,0.19,0.16c1.93,1.53,4.46,1.78,6.83,1.55
		c24.66-5.42,44.77-24.99,64.15-43.37c13.17,20.55,38.37,32.84,50.93,28.95c0.18-0.11,0.34-0.24,0.48-0.37
		c0.06-0.06,0.12-0.12,0.18-0.18c1.73-1.86,3.23-3.75,4.52-5.66c2.1-3.1,3.63-6.26,4.67-9.41c-2.49,0.8-5.15,1.46-7.73,1.75
		c-0.86,0.1-1.83,0.16-2.87,0.19c-10.05,0.28-27.58-2.84-36.63-13.97c-1.43-1.75-2.54-3.55-3.41-5.35
		c-5.2-10.82-1.31-21.73-0.72-23.7c0.25-0.82-3,2.81-7.43,7.9c-2.39,2.75-5.12,5.92-7.83,9.06c-2.46,2.85-4.9,5.66-7.05,8.1
		c-3.4,3.85-6.09,6.75-6.98,7.32c-1.83,1.18,0.52-2.9,2.89-6.63c1.78-2.81,3.57-5.42,3.57-5.42S269.61,96.96,266.02,100.44z"/>
	<path class="st5" d="M222.18,176.02c2.54,20.78,9.69,36.58,38.45,39.25c0.03,0,0.07,0.01,0.1,0.01c2.79,0.25,5.78,0.39,8.98,0.39
		c3.83,0,7.98-0.18,12.46-0.57c0.02,0,0.04,0,0.05,0c1.49-0.13,3.01-0.28,4.57-0.45c4.04-0.44,7.8-0.99,11.29-1.62
		c25.02-4.53,36.35-13.78,40.8-26.01c-1.96,1.86-4.2,4.01-6.64,6.39c-8.38,8.2-20.91,14.43-34.37,17.46
		c-9.24,2.08-18.92,2.65-28,1.31c-18.64-2.74-34.75-13.53-39.39-35.8c-1.2-5.75-1.63-12.26-1.14-19.61
		c0.28-4.25,3.56-10.99,6.03-15.54c-4.24,2.37-15.2,4.27-15.39,4.28c-0.19,0.01,0.36,1.51,0.12,1.53c0.36,5,0.61,9.94,0.89,14.74
		c0.49,0.6,0.86,1.29,1.07,2.06c0.09,0.3,0.15,0.62,0.18,0.94c0.15,1.32-0.17,2.58-0.82,3.63
		C221.64,171.02,221.88,173.55,222.18,176.02z"/>
	<path class="st5" d="M221,161.79c-0.31-5.28-0.57-10.74-1-16.27c-2.33,0.07-4.3-0.43-5.8-1.62c0.51,0.45,1.77,1.78,0.6,3.13
		c-1.44,1.66-2.41,4.31,0.45,7.23c2.86,2.92,0.63,6.8-4.51,3.62c-0.98-0.61-1.95-1.37-2.86-2.24c-3.9-3.7-6.8-9.29-5.02-12.67
		c0.18-0.34,0.38-0.62,0.62-0.86c2.64-2.72,8.5,0.57,10.53,1.62c-2.71-2.31-5-4.85-6.9-7.55c-1.72-0.05-3.26,0.19-4.61,0.68
		c-2.7,0.98-4.61,2.94-5.57,5.43c-0.88,2.27-0.96,4.98-0.12,7.78c1.19,3.95,4.24,8.08,9.49,11.38c1.68,1.05,3.25,1.83,4.72,2.39
		c0.12-0.43,0.29-0.84,0.51-1.23c0.87-1.57,2.47-2.71,4.39-2.92C217.93,159.49,219.81,160.33,221,161.79z"/>
	<path class="st25" d="M64.4,599.9c-0.8-0.69,20.11-13.28,21.11-13.29l-6.42-0.44l-4.95-0.34c-3.16,1.91-24.66,15.04-23.92,17.92
		c0.58,2.24,15.43,0.5,23.97-0.99C69.9,601.57,64.83,600.26,64.4,599.9z"/>
	<path class="st25" d="M161.83,588.27l-0.41,10.86l7.52,1.62l1.92-1.15c0,0,1.15,0.86,1.95,1.78c0.71,0.81,23.03,4.48,28.62,3.13
		c0.78-0.48,1.24-0.77,1.24-0.77l-21.14-9.58l-13.67,0.57l0.74-6.54C166.06,588.31,163.54,588.3,161.83,588.27z"/>
	<path class="st5" d="M272.66,587.26c0.92-0.23-4.36-77.17-4.36-77.17l10.05-0.75l0.03-5.36c-5.02-0.21-9.98-0.5-14.8-0.88
		c1.94,32.89,4.88,82.33,4.88,82.33s-2.15,1.36-5,3.2c0.91,0.57,1.62,1.39,2.16,2.32c0.07,0.1,0.1,0.17,0.1,0.17
		S271.74,587.49,272.66,587.26z"/>
	<path class="st26" d="M257.5,588.25c-10.29,3.15-18.49,17.58-7.95,20.26c1.44,0.37,3.02,0.46,4.68,0.36
		c-1.59-0.97-3.07-1.99-3.85-2.9c-1.38-1.61-1.09-4.09,0.56-6.79c1.36-2.23,3.65-4.59,6.67-6.72c0.38-0.27,0.74-0.51,1.08-0.72
		c4.88-3.06,6.53-1.37,6.92-0.79c-0.55-0.93-1.25-1.75-2.16-2.32C262.03,587.75,260.11,587.46,257.5,588.25z"/>
	<path class="st26" d="M289.81,592.23c-1.08,5.4-0.36,5.33-0.36,6.02c0,0.38,5.66,4.19,12.49,7.02c-1.06-1.17-2.25-2.45-3.25-3.62
		c-0.96-1.13-1.74-2.1-2.38-3.05C293.6,597.62,291.71,595.33,289.81,592.23z"/>
	<path class="st5" d="M289.81,592.23c1.91,3.1,3.79,5.39,6.5,6.37c-1.36-2.03-2.1-3.97-2.69-7.1c-0.74-3.96,0.52-69.55,0.88-87.71
		c-1.7,0.09-3.41,0.16-5.13,0.23L289.81,592.23z"/>
	<path class="st24" d="M344.78,310.38c0-1.84-2.75-19.35-3.22-17.92c-0.47,1.43,2.18,8.96-10.45,17.34
		c-12.63,8.38-21.93,9.42-17.34,10.45c4.59,1.03,18.72,2.99,18.72,2.99s4.59,7.01,3.9,16.54c-0.69,9.53-4.59,16.42-2.41,14.01
		c2.18-2.41,9.3-22.85,10.22-30.78C345.13,315.08,344.78,310.38,344.78,310.38z"/>
	<path class="st27" d="M15.22,400.14l14.33,203.68l2.05,0.07L18.28,393.17l-0.23-3.67c-1.71,0.52-3.34,3.35-3.08,7.04L15.22,400.14z
		"/>
</g>
</svg>
