<?xml version="1.0" encoding="utf-8"?>
<!-- Generator: Adobe Illustrator 21.0.0, SVG Export Plug-In . SVG Version: 6.00 Build 0)  -->
<svg version="1.1" id="Layer_1" xmlns="http://www.w3.org/2000/svg" xmlns:xlink="http://www.w3.org/1999/xlink" x="0px" y="0px"
	 viewBox="0 0 756.51 587" style="enable-background:new 0 0 756.51 587;" xml:space="preserve">
<style type="text/css">
	.st0{fill:#78D6EF;}
	.st1{opacity:0.36;fill:#FFFFFF;}
	.st2{opacity:0.15;fill:#171F24;}
	.st3{fill:#FECEBE;}
	.st4{fill:#FFD1C0;}
	.st5{fill:#F5B89D;}
	.st6{fill:#F68795;}
	.st7{fill:#534741;}
	.st8{fill:#F1B096;}
	.st9{opacity:0.26;fill:#FFFFFF;}
	.st10{opacity:0.39;fill:#FFFFFF;}
	.st11{opacity:0.56;fill:#FCAFA7;}
	.st12{fill:#E07081;}
	.st13{fill:#FFBFA7;}
	.st14{opacity:0.49;}
	.st15{fill:#F2F2F2;}
	.st16{fill:#F0F4FC;}
	.st17{opacity:0.1;fill:#676B6E;}
	.st18{opacity:0.41;fill:#FFFFFF;}
</style>
<g>
	<g>
		<g>
			<path class="st0" d="M139.73,428.18c0.49,25.43,12.58,49.18,33.08,64.23c8.96,6.58,19.53,11.03,30.53,13.14
				c1.65,5.93,4.27,11.67,7.99,16.97c11.57,16.5,30.21,27.92,49.89,31.98c18.64,3.85,38.11,3.16,55.9-3.92
				c2.51-1,4.93-2.09,7.3-3.26c2.47,3.67,5.22,7.14,8.15,10.32c16.19,17.64,39.78,27.46,63.41,29.14
				c23.1,1.64,47.51-5.76,66.52-18.77c9.17-6.28,17.85-13.38,25.21-21.72c19.38,20.57,48.83,26.3,77.6,22.91
				c19.34-2.28,33.49-12.18,44.96-27.57c0.29-0.39,0.58-0.79,0.87-1.19c2.73,0.56,5.51,0.93,8.31,1.07c2.04,0.38,4.07,0.68,6.1,0.89
				c9.62,2.39,19.95,2.26,29.99-0.84c21.48-6.63,36.63-24.96,43.93-45.65c8.14-0.54,16.27-2.73,24.08-6.88
				c20.7-11,33.7-34.18,32.91-57.53c-0.16-4.6-0.73-9.09-1.68-13.43c-3.6-30.16-30.04-55.32-60.77-58.03
				c-4.74-30.27-30.26-56.79-58.15-67.96c-15.19-6.08-32.64-7.87-49.07-5.49c-1.4-1.82-2.85-3.62-4.39-5.35
				c-14.15-15.88-33.16-26.82-53.41-33.09c-22.76-11.2-47.88-16.96-73.26-17.17c-44.29-0.38-86.55,17.42-111.83,52.14
				c-8.33-2.58-16.84-4.27-24.53-5.31c-22.19-3.02-44.04,3.21-63.73,13.28c-18.84,9.64-32.37,25.18-39.19,45.19
				c-0.82,2.4-1.51,4.84-2.11,7.31C174.09,348.77,138.92,386.15,139.73,428.18z"/>
			<path class="st1" d="M507.32,259.3c-12.38-14.82-36.72-20.67-54.57-13.14c-5.7,2.4-4.88,12.63,2.18,11.54
				c16.95-2.62,27.95,0.75,41.56,10.89C502.48,273.06,512.97,266.06,507.32,259.3z"/>
			<path class="st2" d="M719.35,403.78c-10.24-20.49-41.78-20.15-58.88-11.44c-10.15,5.17-0.35,19.78,9.7,14.77
				c5.75-2.87,12.29-3.69,18.58-2.44c1.09,0.22,4.01,1.03,6.92,2.1c-0.76,0.15-1.48,0.31-2.08,0.49c-4.13,1.23-8.21,2.62-12.27,4.06
				c-9.5,3.39-18.81,7.29-28.19,11c-19.36,7.66-39.22,14.9-60.27,15.53c-10.76,0.32-21.31-1.29-31.21-5.62
				c-8.45-3.7-16.12-8.87-24.8-12.08c-12.92-4.78-26.68-5.19-39.72-1.75c-2.24-2.64-5.89-3.86-9.51-1.62
				c-2.47-2.79-7.38-3.73-10.91-1.91c-2.35-2.49-6.02-3.48-9.59-0.91c-21.4,15.42-43.6,31.68-69.68,37.93
				c-25.69,6.16-52.09,2.25-76.98-5.48c-0.21-5.34-4.65-8.51-10.18-7.42c-0.82,0.18-1.64,0.32-2.46,0.43
				c-0.38-1.05-0.88-2.09-1.6-3.11c-1-1.41-3.18-3.44-4.81-4.11c-0.32-0.13-0.64-0.22-0.98-0.29c0.09-0.96,0.14-1.95,0.13-3.03
				c-0.04-5.08-4.91-7.77-9.36-7.14c-0.43-3.39-3.08-6.54-6.38-7.17c-0.68-1.14-1.64-2.11-2.79-2.81c-0.6-2.71-2.73-5.06-5.39-5.98
				c-1.68-2.27-4.65-3.77-7.68-3.39c-1.56-3.46-6.28-5.84-10.26-3.58c-8.56,4.87-17.03,9.84-25.44,14.98
				c-3.19,1.95-21.93-6.05-20.03-3.47c-5.59,5.85,22.13,26.08,28.68,22.59c0.66-0.35,1.33-0.71,1.99-1.06
				c2.12,3.44,6.83,5.58,10.91,2.95c0.34-0.22,0.67-0.43,1.01-0.65c2.38,1.62,5.61,2.14,8.6,0.49l0.22-0.12
				c1.5,1.46,3.53,2.25,5.85,1.77c1.69,3.14,5.71,5.12,9.55,4.17c0.54-0.13,1.09-0.27,1.63-0.4c0.72,1.94,2.13,3.7,3.8,4.84
				c2.28,1.56,4.46,2.42,6.7,2.72c0.16,4.09,3.48,7.24,8.14,7.51c1.66,0.1,3.23,0.08,4.77,0.02c0.94,2.03,2.74,3.55,5.31,4.43
				c28.21,9.64,40.67,20.09,87.8,8.28c23.31-5.84,44.2-17.22,63.79-30.75c1.86,1.96,4.57,2.9,7.64,1.51c0.9-0.4,1.77-0.82,2.62-1.25
				c1.83,1.79,4.49,2.62,7.65,1.52c1.6-0.55,3.13-1.16,4.63-1.8c1.88,1.26,4.23,1.71,6.62,0.64c15.56-6.95,31.2-6.77,46.55,0.79
				c13.11,6.46,24.86,13.38,39.63,15.41c29.64,4.08,61.26-0.13,85.37-16.59c16.13-11.01,30.38-15.1,44.82-15.49
				C716.69,421.63,724.55,414.19,719.35,403.78z"/>
			<path class="st1" d="M322.36,530.33c-1.48-0.71-2.92-1.18-4.34-1.53c-0.18-1.36-0.86-2.73-2.29-4.08
				c-6.22-5.85-20.59-0.57-27.86,0.13c-32.4,3.11-66.69-12.91-72.88-47.47c-0.03-0.14-0.08-0.27-0.11-0.41
				c-0.02-0.08-0.04-0.16-0.07-0.24c-0.03-0.09-0.07-0.18-0.1-0.26c-0.28-0.72-0.7-1.29-1.23-1.7c-0.09-0.08-0.18-0.14-0.27-0.22
				c-0.33-0.29-0.7-0.53-1.1-0.69c-2.36-1.1-5.33-0.55-5.69,2.81c-0.04,0.39-0.04,0.77-0.07,1.16c-0.01,0-0.01,0-0.01,0
				c0,0.03,0,0.05,0.01,0.08c-0.67,8.42,0.89,16.92,4.15,25c5.36,16.95,17.45,32.16,33.25,38.91c1.57,0.67,3.17,1.31,4.8,1.92
				c2.19,1.25,4.47,2.25,6.83,3c9.83,3.82,20.23,5.33,30.32,3.73c13.4-0.36,26.4-4.18,37.04-13.2
				C324.9,535.43,325.35,531.78,322.36,530.33z M286.32,533.84c1.53-0.14,3.06-0.32,4.59-0.51c-2.35,0.55-4.71,0.97-7.07,1.29
				c-1.48-0.13-3.01-0.24-4.59-0.41c-0.1-0.01-0.19-0.03-0.29-0.04C281.4,534.16,283.86,534.06,286.32,533.84z"/>
			<path class="st1" d="M196.63,477.77c-0.42-1.32-1.26-2.13-2.26-2.53c-3.73-8.91-14.44-15.33-19.76-23.03
				c-10.33-14.98-14.05-33.25-8.8-50.55c0.49-1.54,1.01-3.07,1.58-4.58c0.22-0.57,0.3-1.12,0.29-1.64c0.82-1.52,0.34-3.1-0.73-4.25
				c-0.58-2.65-4.44-4-6.01-0.94c-0.15,0.3-0.29,0.61-0.44,0.91c-0.17,0.24-0.31,0.5-0.47,0.75c-0.01-0.01-0.02-0.02-0.04-0.03
				c-15.2,22.41-14.95,56.96,1.15,78.89c6.47,11.05,16.48,20.58,28.82,19.1c0.59,0.14,1.17,0.3,1.77,0.42
				c2.26,0.45,4.26-0.88,4.93-2.88c0.19-0.34,0.34-0.69,0.42-1.08C197.89,482.36,197.86,481.64,196.63,477.77z"/>
			<path class="st1" d="M464.48,514.29c-5.14,1.26-8.26,6.55-11.27,10.32c-4.45,5.55-9.23,10.65-14.71,15.2
				c-9.37,7.79-22.4,15.26-36.01,19.22c-11.1,2.29-22.53,2.65-33.04-0.56c-5.32-2.42-10.41-5.41-15.15-8.9
				c-0.7-0.52-1.45-0.69-2.16-0.63c-3.49-1.19-8,2.23-5.57,5.8c0.21,0.61,0.56,1.21,1.1,1.77c1.31,1.36,2.69,2.58,4.09,3.73
				c16.64,15.09,42.9,17.63,64.06,12.63c0.62-0.15,1.22-0.34,1.83-0.5c1.28-0.26,2.56-0.53,3.84-0.85c0.04-0.01,0.08-0.02,0.11-0.03
				c0.33-0.08,0.66-0.13,0.99-0.21c13.2-3.24,26.58-10.03,36.6-19.78c4.15-3.83,7.73-8.11,10.44-12.79
				c3.46-4.16,6.13-8.62,6.57-12.97C476.87,518.99,471.72,512.52,464.48,514.29z"/>
			<path class="st1" d="M577.06,533.29c-24.26,10.03-51.69,9.4-75.62-1.15c-4.16-1.84-7.46,2.38-5.56,6.18
				c0.83,1.67,1.97,3.17,3.31,4.53c0.03,0.72,0.35,1.43,1.06,2c16.86,13.41,40.18,19.95,61.55,16.91c9.52-1.35,18.69-4.48,26.96-9.4
				c6.5-3.87,17.23-10.85,18.48-19.08C610.42,512.23,582.38,531.09,577.06,533.29z"/>
			<path class="st1" d="M685.82,496.95c-1.16-2.94-6.11-4.03-7.65-0.5c-0.01,0.02-0.02,0.04-0.03,0.07c-3,3.86-5.66,7.66-8.66,11.07
				c-5.65,4.1-12.91,7.46-16.72,9.12c-3.96,1.73-7.98,3.08-12.09,4.14c-2.81,0.28-5.66,0.5-8.58,0.79c-1.89,0.19-3.73,0.8-5.3,1.69
				c-2.08,0.3-3.58,2.03-3.81,3.9c-1,2.34-0.31,5.08,3.36,7.6c10.5,7.19,25.46,0.57,35.07-4.79c11.66-6.5,24.41-14.83,25.95-29.23
				C687.55,499.12,686.86,497.79,685.82,496.95z"/>
			<path class="st1" d="M745.6,418.23c-0.89-5.19-8.81-5.12-8.42,0.44c0.04,0.58,0.07,1.16,0.11,1.74c-1.68,2.4-2.13,4.53-3.08,7.77
				c-2.47,8.36-6.89,14.92-13.76,20.38c-6.62,5.26-21.4,8.29-24.89,16.57c-0.56,1.32-0.78,2.69-0.72,4.04
				c-0.04,0.16-0.09,0.29-0.13,0.46c-0.8,4.08,1.66,8.04,5.18,9.86c0.44,1.61,1.93,2.82,4.05,2.06c1.01-0.36,2.01-0.76,3-1.16
				c4.17,2.04,9.68-0.9,14.29-4.58c7.06-2.89,13.22-7.65,17.66-14.33c5.88-8.86,7.31-19.22,7.3-29.61
				C746.57,427.48,746.4,422.93,745.6,418.23z"/>
		</g>
	</g>
	<g>
		<path class="st3" d="M276.29,406.71c0,0,18.15,38.63,73.17,60.88c55.02,22.24,107.12-5.85,125.85-46.24
			c0,0,29.85,11.71,53.27,0.59C552,410.8,576,312.46,576,312.46l-55.02-67.32L507.51,275c0,0-29.27,42.15-81.95,19.32
			C372.88,271.49,276.29,406.71,276.29,406.71z"/>
		<path class="st4" d="M460.81,257.51c-5.72-13.28-16.2-21.92-30.04-24.69c-0.94-1.07-1.85-2.17-2.71-3.34
			c-6.23-8.48-11.15-17.89-15.9-27.25c-9.97-19.62-19.42-39.84-36.29-54.67c-21.03-18.47-48.06,8.42-74.99,4.51
			c-16.98-2.46-36.24-33.83-51.98-27.71c-1.68,0.25-3.33,0.53-4.93,0.81c-11.73,2.06-22.8,5.55-33.54,10.7
			c-22.43,10.74-41.17,27.35-55.24,47.8c-13.37,19.43-22.99,42.28-26.65,65.65c-0.71,4.55-1.18,9.07-1.35,13.58
			c-0.98,1.47-1.66,3.16-1.89,5.03c-2.73,22.45,4.58,42.03,13.85,62.11c8.01,17.34,53.23,48.27,67.48,61.44
			c31.36,28.97,39.11,11.99,77.93,21.04c0.53,0.12,1.04,0.21,1.56,0.28c18.16,18.47,47.6,22.4,72.12,17.36
			c25.32-5.2,48.45-20.43,66.05-39.03c16.86-17.82,29.01-39.93,35.78-63.46C466.16,306.55,469.77,278.33,460.81,257.51z"/>
		<path class="st5" d="M462.59,262.32c5.37,27.92,0.05,43.86-4.18,58.53c-6.77,23.53-17.33,43.8-34.19,61.63
			c-17.6,18.6-40.68,35.75-66,40.95c-24.52,5.04-52.61,4.15-70.77-14.31c-0.51-0.07-6.23-2.66-6.76-2.78
			c-38.82-9.04-45.88-1.78-77.24-30.75c-14.25-13.17-59.48-44.1-67.48-61.44c-4.25-9.21-8.07-18.32-10.72-27.64
			c1.67,15.08,7.28,29.18,13.9,43.54c8,17.34,53.23,48.27,67.48,61.44c31.36,28.97,39.11,11.99,77.93,21.04
			c0.53,0.12,1.04,0.21,1.56,0.28c18.16,18.47,47.6,22.4,72.12,17.36c25.32-5.2,48.45-20.43,66.05-39.03
			c16.86-17.82,29.01-39.93,35.78-63.46C465.7,308.14,469.19,282.53,462.59,262.32z"/>
		<path class="st4" d="M404.34,196.13c0,0-0.88-11.85,16.68-16.68c17.56-4.83,23.27,22.83,20.63,36
			c-2.63,13.17-3.51,23.71-16.68,17.12C411.8,225.98,404.34,196.13,404.34,196.13z"/>
		<path class="st6" d="M342.39,144.67c-18.07-41.66-70.86-50.09-82.9-49.67c-12.04,0.42-36.2-2.27-36.2-2.27s-35.54-9.71-34.34,4.02
			c1.19,13.72-7.6,22.34-12.57,28.18c-4.97,5.84-22.04,14.18-42.19,45.83c-20.15,31.66-22.9,57.89-28.7,69.72
			c-5.79,11.83-7.11,7.84-7.11,7.84s-13.11,1.42-16.53,10.63c-3.42,9.21,0.23,23.85,14.9,31.4c14.67,7.55,9.39,10.48,14.95,23.73
			c5.56,13.25,18.64,25.1,31.25,38.17c12.62,13.07,41.33,22.34,41.33,22.34l26.96-61.28l56.72-107.53
			C267.97,205.79,360.47,186.34,342.39,144.67z"/>
		<path class="st6" d="M70.75,287c0,0-4.46-3.05-10.92,16.21c-6.46,19.27-25.97,32.29-56.63,37.67c0,0-10-35.17,5.34-59.52
			s34.54-40.29,65.48-29.5C104.95,262.66,91.14,284.79,70.75,287z"/>
		<path class="st6" d="M182.16,83.05c0,0-20.39,2.21-25.15-22.62c-4.75-24.83,5.02-37.97-17.12-57.39c0,0,60.4-8.31,67.88,28.01
			c7.47,36.33-0.09,45.4-0.09,45.4S209.03,91.64,182.16,83.05z"/>
		<path class="st6" d="M61.21,275.06c0,0,5.98,25.29,24.37,20.94c18.39-4.35,9.71-11.07,13.64-29.18
			c3.93-18.11,7.02-28.15-9.98-29.57C72.23,235.82,64.8,248.44,61.21,275.06z"/>
		<path class="st6" d="M184.51,67.13c0,0-20.9,15.44-9.68,30.64c11.23,15.2,14,4.57,32.19,1.07c18.2-3.5,28.64-4.61,23.27-20.8
			C224.93,61.86,210.41,59.98,184.51,67.13z"/>
		<g>
			<path class="st7" d="M341.55,352.22c0.11-0.89,0.21-1.78,0.3-2.66c0.18-1.94-2.78-2.65-3.02-0.66c-0.33,2.73-0.75,5.45-1.28,8.12
				c-2.38,8.17-3.48,10.5-6.44,15.34c-3.79,6.2-8.64,10.23-14.33,14.58c-0.22,0.16-0.33,0.39-0.36,0.63
				c-0.38,0.17-0.74,0.36-1.13,0.52c-1.44,0.58-0.74,2.71,0.76,2.29c0.67-0.18,1.31-0.39,1.94-0.62c-0.01,0.07-0.03,0.15-0.04,0.22
				c-0.22,0.49-0.5,0.96-0.86,1.4c-0.13,0.16-0.16,0.36-0.12,0.54c-0.1,0.1-0.19,0.22-0.3,0.31c-0.19,0.17-0.21,0.38-0.15,0.57
				c-0.1,0.03-0.2,0.07-0.3,0.07c-0.51,0-0.6,0.86-0.08,0.91c1.42,0.15,2.61-1.51,3.43-2.47c0.78-0.89,1.48-1.91,1.83-3.04
				c1.07-0.54,2.05-1.18,3.01-1.85c-0.02,1.28-0.22,2.52-0.44,3.79c-0.3,0.53-0.63,1.05-1,1.55c-0.4,0.54,0.33,1.24,0.8,0.72
				c1.73-1.94,3.36-5.11,3.12-7.87c1.18-1,2.25-2.1,3.26-3.26c0.31,1.38,0.37,2.77,0.15,4.19c-0.12,0.79,0.99,1.03,1.21,0.27
				c0.46-1.58,0.84-3.19,1.09-4.83c0.12-0.82,0.21-1.6-0.06-2.34C338.69,371.33,342.22,361.74,341.55,352.22z"/>
			<path class="st7" d="M415.99,269.42c-1.11,1.49-2.47,2.54-4.06,3.33c0.48-1.16,0.89-2.34,1.18-3.49c2.1-2.22,3.39-4.99,3.69-8.04
				c0.07-0.67-0.88-1.17-1.21-0.44c-0.57,1.27-1.34,2.27-2.2,3.22c-0.22-0.98-0.62-1.88-1.3-2.63c-0.32-0.35-0.72-0.41-1.1-0.31
				c-0.66-0.57-1.81-0.51-1.99,0.6c-2.23,13.52-7.75,25.47-18.94,32.87c-1.45,0.9-2.95,1.75-4.49,2.55c0,0,0,0-0.01,0
				c-0.34,0.17-0.66,0.35-1.01,0.51c-1.15,0.53-0.59,2.41,0.64,1.91c1.65-0.67,3.21-1.46,4.72-2.32c6.9-3.41,12.67-8.69,16.94-15.16
				c1.63-0.22,3.27-0.58,4.51-1.66c0.44-0.28,0.86-0.6,1.27-0.94c0.03-0.02,0.07-0.04,0.11-0.07c0,0,0-0.01-0.01-0.01
				c0.04-0.04,0.09-0.06,0.14-0.1c0.58-0.5-0.25-1.45-0.87-1.01c-0.26,0.19-0.53,0.31-0.79,0.44c-0.09,0.02-0.17,0.07-0.25,0.14
				c-0.75,0.3-1.51,0.38-2.33,0.39c0.55-0.93,1.14-1.96,1.71-3.05c2.64-0.84,5.51-2.98,6.46-5.41c0.04-0.11,0.05-0.22,0.05-0.32
				c0.04-0.04,0.07-0.09,0.11-0.13C417.44,269.63,416.51,268.77,415.99,269.42z"/>
			<path class="st7" d="M286.97,321.74c-0.15-0.41-0.53-0.85-1-0.9c-4.83-0.47-6.86,3.58-8.15,7.7c-0.11,0.35,0,0.63,0.19,0.84
				c-0.2,0.4-0.37,0.83-0.56,1.24c-0.18,0.36-0.34,0.73-0.5,1.11c-0.13,0.32-0.26,0.64-0.39,0.97c-0.07,0.21-0.15,0.41-0.22,0.62
				c-1.35,3.78-2.14,7.88-2.48,12.03c-0.84,5.8-1.18,11.6-0.22,17.44c0.06,1.08,0.14,2.16,0.26,3.25c0.18,1.7,2.77,1.59,2.67-0.14
				c-0.07-1.16-0.1-2.32-0.12-3.47c0.09-0.15,0.16-0.32,0.18-0.54c0.21-2.75,0.2-5.48,0.17-8.22c0.64-6.28,2.18-12.39,4.96-18.35
				C283.5,331.59,288.62,326.11,286.97,321.74z"/>
			<path class="st7" d="M368.14,223.89c-2.51-0.28-5.47,0.71-8.32,2.17c-5.03,2.09-9.7,4.98-13.75,8.65
				c-3.33,3.02-7.66,7.21-8.99,11.88c-1.37,2.06-2.46,4.99,0.31,6.33c0.37,0.18,0.92,0.21,1.26-0.07c4.32-3.54,5.99-10.26,9.76-14.5
				c2.45-2.75,5.26-5.12,8.37-7.08c1.76-1.11,3.61-2.1,5.53-2.91c0.59-0.23,1.17-0.46,1.76-0.69c1.12-0.09,1.91-0.57,2.42-1.34
				c0.16,0.27,0.42,0.47,0.81,0.52c0.07,0.01,0.14,0.02,0.21,0.03c0.79,0.1,1.38-0.28,1.63-1.04c0.03-0.09,0.06-0.17,0.09-0.26
				C369.45,224.91,368.86,223.97,368.14,223.89z"/>
			<path class="st7" d="M381.67,339.29C381.67,339.28,381.67,339.28,381.67,339.29L381.67,339.29c-0.03-0.07-0.06-0.13-0.09-0.19
				c-0.05-0.09-0.11-0.15-0.17-0.2c-0.01-0.03-0.02-0.05-0.03-0.08c-0.01,0-0.01,0.01-0.02,0.01c-0.03-0.06-0.04-0.13-0.07-0.18
				c-0.33-0.68-1.33-0.27-1.37,0.38c-0.11,0.17-0.16,0.38-0.07,0.62c0.25,0.66,0.47,1.47,0.62,2.34c0.09,3.54-1.83,6.58-4.91,8.12
				c-1.98,0.3-4.05-0.04-6.02-0.57c-0.53-0.14-0.95,0.37-0.89,0.86c-0.45,0.07-0.68,0.76-0.18,1.08c0.8,0.5,1.65,0.85,2.51,1.08
				c2.96,1.41,7.19,0.69,9.56-1.26C384.17,348.3,383.68,343.06,381.67,339.29z"/>
			<path class="st7" d="M411,340.47c-1.37,15.37-11.91,26.5-24.48,34.22c-0.55,0.34-0.11,1.31,0.5,1.03
				c13.2-5.97,24.64-20.43,25.43-35.14C412.5,339.77,411.07,339.64,411,340.47z"/>
			<path class="st7" d="M414.3,339.67c-0.71-1.65-2.94-2.34-4.38-1.18c-0.59,0.48-0.03,1.33,0.64,0.98
				c0.95-0.49,1.97-0.05,2.46,0.82C413.43,340.97,414.62,340.41,414.3,339.67z"/>
			<path class="st7" d="M386.37,376.1c-0.53,0-0.79,0.09-1.01-0.52c-0.19-0.51-0.02-1.06,0-1.59c0.01-0.48-0.58-0.56-0.87-0.31
				c-0.89,0.79-0.71,2.46,0.06,3.29c0.58,0.63,2.28,1.13,2.43-0.15C387.03,376.42,386.78,376.1,386.37,376.1z"/>
			<path class="st8" d="M417.1,356.98c-0.32-0.84-1.42-0.55-1.48,0.28c-0.57,8.14-5.31,15.14-12.48,18.95
				c-0.58,0.31-0.29,1.01,0.21,1.16c0.06,0.37,0.36,0.71,0.78,0.67C414.59,376.99,420.9,366.84,417.1,356.98z"/>
			<path class="st9" d="M333.81,352.46c0.15-1.32-0.51-2.74-2.22-3.23c-11.96-3.44-30.68-1.74-33.45,13.13
				c-1.83,9.85,5.04,26.73,17.54,23.7c11.12-2.7,19.38-19.5,19.15-30.07C334.8,354.63,334.42,353.46,333.81,352.46z"/>
			<path class="st10" d="M377.35,343.55c-0.78-0.7-1.85-0.9-2.84-0.59c-0.74,0.22-1.28,0.67-1.71,1.28l0,0
				c-1.46,0.3-2.64,1.5-3.29,2.82c-1.04,2.13,0.14,4.68,2.59,4.88c1.53,0.12,3.43-0.83,4.48-1.91c0.6-0.61,1.05-1.38,1.26-2.21
				c0.01-0.06,0.01-0.12,0.02-0.18c0.18-0.42,0.32-0.86,0.37-1.32C378.35,345.25,378.18,344.29,377.35,343.55z"/>
			<path class="st9" d="M401.72,260.63c-1.24-1.31-2.79-2.09-4.49-2.48c-8.98-5.77-24.23,0.7-28.85,9.76
				c-5.16,10.11-0.41,31.04,14.44,24.94c7.2-2.96,13.18-7.27,17.33-13.92C403.43,273.7,406.74,265.94,401.72,260.63z"/>
			<path class="st11" d="M452.61,263.73c-1.08-6.34-9.19-6.09-13.59-3.46c-2.6,1.55-4.78,3.83-6.6,6.42
				c-2.1,2.69-3.71,5.82-4.81,8.81c-1.8,4.9-3.75,14.73,0.86,18.8c5.01,4.42,12.44-3.34,15.23-7.03
				C447.95,281.64,453.88,271.13,452.61,263.73z"/>
		</g>
		<path class="st5" d="M528.39,389.24c-21.47,20.67-47.71,17.49-47.71,17.49c-0.51,5.6-2.65,11.52-4.12,15.06
			c5.87,2.04,31.43,9.91,52.02,0.13c3.4-1.62,6.82-5.09,10.17-9.82C539.92,393.98,538.34,379.66,528.39,389.24z"/>
		<path class="st9" d="M447.29,409.91c0,0,19.88-13.52,15.9-24.65c-3.98-11.13-16.7-7.95-32.6,7.95
			c-15.9,15.9-31.41,28.23-44.93,33.79c-13.52,5.57-23.06,6.36-19.48,9.14c3.58,2.78,17.89,4.37,44.93-5.57
			S447.29,409.91,447.29,409.91z"/>
		<path class="st5" d="M418.66,207.15c0,0-1.59-12.72,3.98-12.72s9.54,7.16,6.36,20.67C425.82,228.61,425.82,214.3,418.66,207.15z"
			/>
		<path class="st12" d="M211.24,310.35l56.72-107.53c0,0,13.54-2.85,29.24-8.7c20.36-21.31,41.46-45.88,42.76-57.39
			c-1.14-2.13-2.35-4.18-3.67-6.12c-0.58-0.18-1.22-0.21-1.92-0.39c-15.11-3.98-82.7,21.47-124.05,80.31S171.36,346.5,171.36,346.5
			c-38.96-13.52-48.51-36.58-55.66-48.51c-7.16-11.93-19.08-15.11-19.08-15.11l-0.87,3.92c0.34,0.19,0.66,0.4,1.01,0.58
			c14.67,7.55,9.39,10.48,14.95,23.73c5.56,13.25,18.64,25.1,31.25,38.17c12.62,13.07,41.33,22.34,41.33,22.34L211.24,310.35z"/>
		<path class="st6" d="M257.94,409.65c0,0-20.59,14.02-44.7,3.67s-32.55-36.56-32.55-36.56S169.72,327.26,193,264.61
			s65.88-96.44,111.9-120.59c46.01-24.14,70-4.05,82.6,3.43c12.6,7.48,17.74,33.15,15.91,38.06c0,0-16.32-20.04-69.46,6.35
			s-84.68,94.35-94.51,139.63C229.61,376.77,242.67,407.48,257.94,409.65z"/>
		<path class="st12" d="M95.82,280.5c0,0-23.86,9.54-31.01-11.93c0,0-3.98-3.98-9.54,12.72c-5.57,16.7-23.02,39.26-52.06,56.61
			c30.66-5.39,50.17-18.41,56.63-37.67c3-8.94,5.56-13.05,7.45-14.91c3.83,5.3,9.71,9.73,18.3,7.7c7.07-1.67,10.13-3.7,11.45-6.58
			C96.88,284.08,96.53,281.91,95.82,280.5z"/>
		<path class="st12" d="M237.65,376.8c-40.35,0.04-54.87-22.87-59.53-33.96c-0.01,19.22,2.57,30.94,2.57,30.94
			s8.44,26.2,32.55,36.56s44.7-3.66,44.7-3.66C249.08,405.41,240.98,394.53,237.65,376.8z"/>
		<path class="st12" d="M157.02,57.45c2.59,13.52,9.81,19.01,15.85,21.22c-1.94,4.88-2.17,10.52,1.97,16.12
			c11.23,15.2,14,4.57,32.19,1.07c18.2-3.5,28.64-4.61,23.27-20.8c-14.22,17.21-22.36,16.18-37.47,15.39
			c-15.11-0.8-9.54-16.7-9.54-16.7c-14.31-14.31-5.57-19.08-13.52-47.71c-7.95-28.63-29.88-25.98-29.88-25.98
			C162.04,19.47,152.26,32.62,157.02,57.45z"/>
		<path class="st13" d="M479.89,394.01c0,0,2.39,8.75-1.59,22.26c-3.98,13.52,8.75-2.39,8.75-2.39S487.84,390.83,479.89,394.01z"/>
		<path class="st11" d="M349.86,394.29c0,0-8.06-6.19-17.73,7.45c-9.67,13.64-5.7,20.53,5.83,17.93
			c11.53-2.6,14.69-11.14,15.32-16.81C353.91,397.19,353.06,394.28,349.86,394.29z"/>
		<path class="st9" d="M283.47,129.25l-0.42-0.83c-1.24-2.45-4.77-4.01-7.41-3.75c-1.59,0.16-3.18,0.53-4.76,0.99
			c-1.51-3.46-4.97-5.75-9.55-3.77c-2.7,1.16-5.33,2.43-7.9,3.77c-1.72-3.5-5.42-5.91-9.59-3.96c-3.24,1.52-6.44,3.1-9.62,4.72
			c-0.88-3.03-3.53-5.5-7.8-5.55c-2.07-0.02-4.06,0.11-5.99,0.35c0.7-4.61-4.02-9.31-9.32-6.23c-19.86,11.53-36.9,27.21-51.49,44.87
			c-5.8,7.03,2.36,16.02,10.11,11.77c2.33-1.28,4.6-2.77,6.81-4.39c0.12,1.22,0.33,2.46,0.68,3.72c1.3,4.68,8.2,7.5,12.18,4.23
			c1.71-1.41,3.45-2.78,5.2-4.15c1.6,2.6,4.27,4.66,7.54,4.3c6.79-0.76,13.52-4.48,19.71-8.65c1.54,2.07,4.03,3.52,7,3.54
			c8.55,0.08,13.39-4.76,19.31-10.28c5.74-5.35,16.01-14.99,24.85-17.86c2.91,1.46,6.49,1.26,9.19-2.07
			c0.17-0.21,0.34-0.42,0.51-0.62C285.28,136.25,285.24,132.75,283.47,129.25z"/>
		<path class="st9" d="M352.14,158.98c-1.33-2.07-3.6-3.43-6.64-3.09c-1.03-2.57-3.31-4.69-6.26-5.18c-1.03-3.96-4.51-7.14-9.2-5.76
			c-1.65-1.06-3.81-1.53-6.37-1.01c-24.7,5.02-45.36,19.02-60.06,39.35c-3.15,4.36-0.93,8.58,2.78,10.52
			c-1.11,4.38,2.96,8.04,7.43,8.53c1.79,3.26,6.03,5.53,9.48,4.16c2.12,3.63,6.56,5.83,10.88,2.89
			c18.32-12.47,36.56-27.39,57.82-34.45C359.48,172.45,359.46,160.32,352.14,158.98z"/>
		<path class="st9" d="M43.37,258.71c-9.6,0.94-17.07,12.35-22.17,19.27c-2.07,2.8-3.91,5.68-5.52,8.62
			c-1.19,0.1-2.24,0.81-2.44,2.41c-0.12,0.91-0.17,1.78-0.2,2.64c-0.89,0.23-1.63,0.9-1.83,2.19c-0.29,1.82-0.37,3.52-0.31,5.2
			c-0.72,3.19-1.11,6.48-1.01,9.96c0,0.05,0.02,0.09,0.02,0.14c-0.11,0.45-0.2,0.89-0.34,1.36c-0.92,3.17,3.55,4.31,5.05,1.83
			c0.34-0.1,0.67-0.23,0.98-0.44c1.85-1.21,3.52-2.51,5.1-3.9c1.31,0.13,2.68-0.39,3.51-1.89c0.64-1.15,1.28-2.3,1.91-3.44
			c1.87,2.18,5.4,0.53,6.25-1.9c0.31-0.89,0.57-1.74,0.79-2.57c0.72-0.3,1.34-0.85,1.74-1.7c0.56-1.22,1.02-2.41,1.41-3.59
			c1.08-0.17,2.06-0.77,2.5-1.91c0.9-2.34,1.51-4.49,1.9-6.66c0.94-0.32,1.77-0.94,2.17-1.8c1.99-4.36,2.44-8.87,4.37-13.02
			c0.99-0.16,1.99-0.68,2.87-1.66C54.71,262.76,48.26,258.24,43.37,258.71z"/>
		<path class="st9" d="M91.47,248.13c-0.8-0.75-1.97-1.13-3.09-1.03c-0.71-1.17-2.28-1.8-3.77-1.13c-0.54,0.03-1.08,0.19-1.6,0.51
			c-0.03,0.02-0.06,0.04-0.09,0.06c-1.04-0.22-2.18,0.07-3.14,1.09c-1.35,1.45-2.25,3.1-2.73,4.86c-0.8,1.31-1.46,2.72-1.98,4.26
			c-0.43,1.26,0.2,2.51,1.21,3.32c-0.95,2.35-1.05,4.97-0.41,7.61c0.72,2.99,5.31,3.28,6.66,0.66c0.09,0.17,0.18,0.34,0.26,0.51
			c1.21,2.35,5.44,2.16,6.39-0.33c0.24-0.63,0.48-1.26,0.72-1.9c0.08,0.03,0.17,0.05,0.25,0.08c2.43,0.77,4.45-1.61,4.47-3.79
			c0.04-3.82,0.08-7.64,0.12-11.47C94.77,249.22,93.17,248.16,91.47,248.13z"/>
		<path class="st9" d="M203.19,51.02c-0.22-1.73-0.53-3.43-0.82-5.14c0.06-1.11,0.02-2.26-0.19-3.45c-0.22-1.27-0.7-2.53-1.31-3.78
			c-1.3-5.39-2.93-10.69-4.96-15.96c-0.63-1.65-2.02-2.36-3.39-2.28c0.93-1.28,1.08-3.08-0.42-4.18c-0.48-0.35-0.97-0.64-1.46-0.97
			c-0.43-0.5-0.96-0.88-1.62-1.09c-2.48-1.54-5.03-2.8-7.75-3.78c-0.7-0.55-1.48-0.77-2.24-0.72c-0.9-0.27-1.77-0.56-2.71-0.77
			c-3.83-0.89-5.07,4.95-1.31,5.93c0.56,0.15,1.07,0.33,1.6,0.5c0.47,0.77,0.99,1.46,1.55,2.1c0.66,0.92,1.33,1.83,1.99,2.74
			c0.07,0.11,0.16,0.22,0.24,0.33c1.25,1.73,2.5,3.46,3.76,5.19c-0.37,1.64-0.96,3.27-1.79,4.99c-1.12,2.3,0.17,4.22,1.95,4.88
			c0.01,0.06,0.03,0.11,0.05,0.16c-0.82,1.39-0.54,2.92,0.37,4.01c-0.19,0.23-0.35,0.47-0.55,0.69c-2.04,2.56-0.44,5.28,1.89,5.86
			c-0.04,0.08-0.07,0.16-0.11,0.24c-0.88,1.88-0.21,3.57,1.06,4.51c-1.33,2.59,1.12,6.08,3.78,5.55c0.01,0.03,0.01,0.06,0.02,0.1
			c0.29,1.5,2.13,2.47,3.52,2.4c3-0.14,5-1.3,6.11-4.16c0.06-0.16,0.09-0.31,0.13-0.46C202.13,54.15,203.44,52.95,203.19,51.02z"/>
		<path class="st9" d="M215.94,73.27c-0.63-0.58-1.43-0.95-2.32-0.98c-0.49-1.41-1.75-2.52-3.62-2.44
			c-1.01,0.04-1.99,0.17-2.97,0.33c-0.13-0.04-0.25-0.09-0.4-0.11c-4.35-0.6-8.59,1.28-10.28,5.53c-0.63,1.59-0.11,3.4,0.98,4.52
			c-0.16,2.43,1.89,4.91,4.82,3.9c0.9-0.31,1.8-0.62,2.69-0.93c0.68,2.13,3,3.64,5.55,2.01c2.5-1.6,5-3.2,7.5-4.8
			C221.31,78.12,219.15,73.5,215.94,73.27z"/>
		<path class="st9" d="M531.07,283.22c-2.82-6.82-10.69-4.94-15.25-1.54c-5.91,4.4-10.89,9.91-17.06,14.08
			c-5,3.38-10.27,6.2-15.7,8.76c-3.79,0.86-7.61,1.61-11.38,2.31c-5.01,0.93-4.76,7.62,0.42,7.94c1.2,0.07,2.35,0.1,3.49,0.09
			c0.64,0.46,1.47,0.74,2.49,0.72c10.61-0.27,20.51-3.06,29.21-7.98c2.5-1.18,4.96-2.45,7.35-3.9
			C520.34,300.26,534.77,292.16,531.07,283.22z"/>
		<path class="st9" d="M370.17,199.5c-1.32-0.55-2.62-0.91-3.9-1.14c-1.84-1.38-3.9-1.99-6.09-2.02c-0.02-0.01-0.04-0.03-0.06-0.04
			c-13.56-6.29-58.95,18.67-53.95,36.41c-0.6,2.38,0.17,4.58,2.9,6.49c1.42,0.99,2.98,1.43,4.62,1.49c5.8,4.12,13.6-2.56,18.38-5.76
			c13.29-8.89,26.07-18.47,38.47-28.55C372.63,204.67,373.2,200.76,370.17,199.5z"/>
		<g>
			<path class="st5" d="M687.22,380.37c0,0,8.78,11.41,19.32,11.41s12.59-5.78,12.59-8.85c0-3.07-1.65-7.57-7.02-9.66
				c0,0,4.17-3.95,2.41-8.89c-1.76-4.94-6.04-4.83-6.04-4.83s0.33-4.28-2.85-6.7c-3.18-2.41-7.02-0.77-7.02-0.77
				s-3.07,0.77-7.46-6.37c-4.39-7.13-4.61-12.18-14.05-15.69c-9.44-3.51-26.12,13.61-13.94,34.13
				C675.33,384.68,687.22,380.37,687.22,380.37z"/>
			<path class="st9" d="M712.32,377.68c-1.7,0.09-2.86,1.54-2.86,3.17c0,1.2,0.06,2.09,0.68,3.17c1.1,1.91,3.83,1.46,4.82-0.25
				c0.59-1.02,0.53-2.09,0.53-3.23C715.49,378.9,713.89,377.59,712.32,377.68z"/>
			<path class="st9" d="M712.25,366.06c-0.71-2.92-4.96-2.32-5.6,0.29c-0.16,0.66-0.25,1.3-0.21,1.98c0.1,1.65,1.55,2.98,3.21,2.89
				c1.8-0.09,2.79-1.56,2.89-3.21C712.59,367.34,712.41,366.7,712.25,366.06z"/>
			<path class="st9" d="M700.4,351.63c-2.4-0.05-3.6,3.42-1.74,4.9c-0.21-0.29-0.19-0.29,0.06,0.01c0.2,0.9,0.71,1.75,1.58,2.14
				c0.82,0.37,1.53,0.41,2.39,0.19c1.21-0.32,2.29-1.83,2.11-3.09C704.45,353.34,702.94,351.68,700.4,351.63z"/>
		</g>
		<path class="st9" d="M411.34,357.83c-3.35,6.19-4.66,12.96-11.18,16.76c-0.6,0.35-0.12,1.31,0.52,1.08
			c6.67-2.36,10-11.23,12-17.36C412.94,357.52,411.72,357.14,411.34,357.83z"/>
		<path class="st9" d="M427.22,181.63c-1.75,0.04-3.55,0.28-5.31,0.72c-3.75,0.58-7.21,2.49-9.64,5.59
			c-0.83,1.06-2.34,3.04-2.38,4.63c-0.13,0.24-0.26,0.47-0.38,0.73c-0.46,0.99,0.9,1.76,1.49,0.99c0.37,1.12,1.12,2.15,2.36,2.9
			c0.41,0.25,1.13,0.05,1.31-0.42c2.12-5.61,6.05-10.04,11.47-12.66c0.2-0.1,0.35-0.27,0.46-0.47c0.25-0.03,0.47-0.1,0.72-0.12
			C428.55,183.47,428.45,181.6,427.22,181.63z"/>
		<g class="st14">
			<path class="st15" d="M145.66,301.06c-0.04-0.03-0.09-0.05-0.13-0.07c-0.02-0.01-0.03-0.03-0.05-0.05
				c-0.03-0.02-0.06-0.02-0.09-0.03c-0.01,0-0.02-0.01-0.03-0.01c-0.94-0.52-2.06-0.45-2.98,0.03c-0.03-0.01-0.06-0.03-0.09-0.04
				c-0.45-0.11-0.86,0.21-0.98,0.63c-0.04,0.13-0.05,0.26-0.08,0.38c-0.51,0.72-0.6,1.56-0.39,2.33c0.03,1.46,0.94,2.99,2.5,3.07
				c0.65,0.03,1.08-0.36,1.36-0.89C146.67,305.72,147.72,302.76,145.66,301.06z"/>
			<path class="st15" d="M127.64,261.51c-0.12-0.05-0.24-0.05-0.36-0.08c-0.13-0.23-0.36-0.39-0.7-0.3
				c-3.54,0.97-3.67,6.48-0.44,7.94c0.35,0.16,0.71,0.08,0.98-0.18c1.13-1.09,2.28-2.39,2.39-4.04
				C129.58,263.52,128.91,262.05,127.64,261.51z M126.38,267.3c-0.55-0.43-0.88-1.05-0.98-1.74c0.86,0.48,1.72,0.22,2.34-0.36
				C127.53,265.97,126.95,266.7,126.38,267.3z"/>
			<path class="st15" d="M123.61,302.25c-0.61-2.61-4.47-3.07-5.49-0.48c-0.25,0.63-0.17,1.23,0.09,1.75
				c-0.35,0.5-0.29,1.2,0.7,1.89C121.21,307.03,124.24,304.99,123.61,302.25z"/>
			<path class="st15" d="M156.38,337.25c-0.26-0.31-0.55-0.42-0.94-0.33c-1.48,0.34-2.53,1.82-2.36,3.3
				c-0.27,0.12-0.51,0.34-0.69,0.67c-0.68,1.27,0.21,2.92,1.45,3.44c1.47,0.62,3.05-0.37,3.71-1.69
				C158.48,340.79,157.62,338.73,156.38,337.25z"/>
			<path class="st15" d="M171.56,300.92c-0.14-0.14-0.3-0.25-0.46-0.34c-0.13-0.23-0.21-0.48-0.38-0.69
				c-0.36-0.44-1.2-0.57-1.46,0.08c-0.07,0.17-0.09,0.35-0.14,0.52c-0.58,0.2-1.11,0.58-1.42,1.1c-0.95,1.56,0.03,2.62,1.3,2.96
				c0.09,0.25,0.19,0.49,0.31,0.71c0.16,0.3,0.5,0.39,0.82,0.33c0.27,0.13,0.6,0.15,0.83-0.04
				C172.27,304.46,172.91,302.27,171.56,300.92z"/>
			<path class="st15" d="M161.94,266.12c-0.26-1.09-1.27-1.96-2.41-1.74c-0.4,0.07-0.69,0.27-0.8,0.68
				c-0.4,1.48-0.33,2.96,0.19,4.41c0.14,0.39,0.49,0.61,0.9,0.61c1.4,0.01,2.15-1.45,2.04-2.65
				C161.98,267.01,162.05,266.58,161.94,266.12z"/>
			<path class="st15" d="M137.17,326.42c-0.26-1.09-1.27-1.96-2.41-1.74c-0.4,0.07-0.69,0.27-0.8,0.68
				c-0.4,1.48-0.33,2.96,0.19,4.41c0.14,0.39,0.49,0.61,0.9,0.61c1.4,0.01,2.15-1.45,2.04-2.65
				C137.21,327.31,137.28,326.88,137.17,326.42z"/>
			<path class="st15" d="M143.62,281.38c-0.26-1.09-1.27-1.96-2.41-1.74c-0.4,0.07-0.69,0.27-0.8,0.68
				c-0.4,1.48-0.33,2.96,0.19,4.41c0.14,0.39,0.49,0.61,0.9,0.61c1.4,0.01,2.15-1.45,2.04-2.65
				C143.66,282.27,143.73,281.84,143.62,281.38z"/>
			<path class="st15" d="M164.24,325.1c-0.26-1.09-1.27-1.96-2.41-1.74c-0.4,0.07-0.69,0.27-0.8,0.68c-0.4,1.48-0.33,2.96,0.19,4.41
				c0.14,0.39,0.49,0.61,0.9,0.61c1.4,0.01,2.15-1.45,2.04-2.65C164.29,325.98,164.35,325.55,164.24,325.1z"/>
			<path class="st15" d="M111.02,283.77c-0.26-1.09-1.27-1.96-2.41-1.74c-0.4,0.07-0.69,0.27-0.8,0.68
				c-0.4,1.48-0.33,2.96,0.19,4.41c0.14,0.39,0.49,0.61,0.9,0.61c1.4,0.01,2.15-1.45,2.04-2.65
				C111.06,284.65,111.13,284.22,111.02,283.77z"/>
			<path class="st15" d="M143.75,224.07c-1.96-2.09-5.52-0.22-4.57,2.6c0.1,0.28,0.24,0.52,0.41,0.72c-0.21,0.9,0.02,1.87,1.01,2.28
				c1.18,0.49,2.83-0.7,3.45-1.62C144.89,226.8,144.79,225.18,143.75,224.07z"/>
			<path class="st15" d="M121.2,230.48c-0.57-1.72-1.89-2.98-3.64-3.5c-0.44-0.13-0.97,0.23-1.04,0.67
				c-0.28,1.66,0.05,3.23,1.03,4.61c0.23,0.33,0.64,0.47,1.02,0.36c0.27-0.08,0.48-0.23,0.67-0.38c0.15,0.84,0.79,1.58,1.76,1.44
				C122.63,233.44,122.82,230.82,121.2,230.48z"/>
			<path class="st15" d="M106.62,253.55c-0.23-0.3-0.66-0.52-1.04-0.36c-0.51,0.21-0.96,0.54-1.28,0.95
				c-0.17-0.02-0.31-0.08-0.49-0.07c-0.37,0.02-0.72,0.31-0.8,0.68c-0.09,0.45-0.04,0.98,0.1,1.5c-0.2,1.14,0.04,2.25,0.74,3.23
				c0.22,0.3,0.56,0.41,0.91,0.32c1.12-0.29,1.74-1.01,2.01-1.84c0.33-0.48,0.54-1.1,0.61-1.55
				C107.53,255.38,107.25,254.36,106.62,253.55z"/>
			<path class="st15" d="M89.37,278.86c0.07-0.47-0.29-0.83-0.69-0.89c-0.01-0.76-0.42-1.45-1.38-1.57
				c-1.94-0.25-3.36,1.87-2.35,3.54c0.17,0.27,0.4,0.49,0.65,0.67c0.14,0.32,0.53,0.54,0.86,0.51c0.1-0.01,0.2-0.04,0.3-0.06
				c0.53,0.06,1.03-0.09,1.38-0.49C88.76,280.2,89.26,279.64,89.37,278.86z"/>
			<path class="st15" d="M72.29,265.81c-0.04-0.07-0.11-0.11-0.15-0.17c0-0.01,0-0.02,0-0.04c-0.11-0.35-0.28-0.58-0.46-0.74
				c-0.14-0.32-0.34-0.62-0.6-0.83c-2.23-1.81-5.33,1.57-3.75,3.77c0.46,0.64,1.19,0.88,1.94,0.88c0.86,0.38,1.94,0.32,2.75-0.13
				C72.98,268,72.84,266.64,72.29,265.81z"/>
			<path class="st15" d="M82.19,245.04c-0.07-0.38-0.35-0.72-0.8-0.65c-2.62,0.43-4.22,3.97-2.09,5.96
				c1.97,1.85,5.78,0.86,5.97-2.03C85.39,246.49,83.72,244.83,82.19,245.04z"/>
			<path class="st15" d="M98.92,243.68c-0.1-0.21-0.26-0.37-0.45-0.49c-0.17-0.23-0.36-0.45-0.59-0.63
				c-0.54-0.44-1.38-0.08-1.36,0.65c0.01,0.39,0.03,0.78,0.04,1.17c-0.31,0.68-0.35,1.46,0.14,2.02c0.19,0.5,0.8,0.75,1.27,0.44
				C99.02,246.16,99.47,244.83,98.92,243.68z"/>
			<path class="st15" d="M50.58,256.07c0.07-0.61,0-1.23-0.29-1.71c-0.24-0.4-0.57-0.68-0.94-0.87c-0.3-0.29-0.62-0.56-1.01-0.76
				c-0.39-0.2-0.84-0.09-1.14,0.21c-0.2,0.2-0.35,0.43-0.48,0.67c-0.43,0.26-0.79,0.63-1,1.12c-0.67,1.55,0.5,2.87,1.9,3.15
				c0.06,0.66,0.53,1.34,1.23,1.59c0.28,0.1,0.68-0.05,0.86-0.28C50.43,258.28,50.7,257.15,50.58,256.07z"/>
			<path class="st15" d="M23.12,270.99c-1.12-0.65-2.53-0.5-2.97,0.62l0,0c-2.14,1.35-1.4,5.17,1.39,4.84
				c0.54-0.06,0.95-0.29,1.29-0.57C24.5,274.95,25.14,272.17,23.12,270.99z"/>
			<path class="st15" d="M47.13,276.63c-0.12-1.62-1.7-2.72-3.25-2.14c-0.3,0.11-0.56,0.29-0.81,0.5c0,0,0,0,0,0
				c-1.24,0.51-1.57,1.87-1.16,3.04c-0.53,0.61-0.46,1.45-0.2,2.18c0.57,1.61,2.89,1.01,3.97,0.25c0.97-0.68,1.51-1.81,1.37-2.95
				C47.11,277.22,47.15,276.94,47.13,276.63z"/>
			<path class="st15" d="M20.07,292.32c-0.31,0.07-0.52,0.38-0.6,0.67c-0.23,0.83-0.25,1.66-0.08,2.46
				c-0.24,0.2-0.45,0.46-0.57,0.81c-0.09,0.26,0.05,0.62,0.25,0.79c0.41,0.33,0.89,0.52,1.4,0.6c0.31,0.29,0.77,0.4,1.15,0.14
				c0.12-0.08,0.23-0.18,0.35-0.27c0.75-0.26,1.39-0.79,1.67-1.61C24.41,293.69,22.12,291.86,20.07,292.32z"/>
			<path class="st15" d="M7.03,308.85c-0.11-0.11-0.23-0.2-0.35-0.28c-0.09-0.15-0.22-0.27-0.37-0.34
				c-0.33-0.16-0.63-0.17-0.91-0.13c-0.68-0.06-1.35,0.18-1.77,0.83c-0.33,0.51-0.38,1.18-0.21,1.78c-0.21,0.17-0.4,0.37-0.52,0.62
				c-1.02,2.14,2.02,2.94,3.48,3.03c0.28,0.02,0.62-0.22,0.73-0.47C7.83,312.29,8.48,310.26,7.03,308.85z"/>
			<path class="st15" d="M21.6,324.96c0.12-0.81-1.05-1.35-1.43-0.51c-0.04,0.1-0.05,0.04-0.11,0.01c-0.14-0.33-0.33-0.66-0.61-0.96
				c-0.19-0.2-0.43-0.25-0.67-0.23c-0.07-0.05-0.14-0.11-0.21-0.15c-0.45-0.26-1.05-0.03-1.28,0.41c-0.3,0.57-0.39,1.16-0.38,1.75
				c-0.17,0.05-0.35,0.13-0.51,0.25c-0.25,0.18-0.47,0.5-0.42,0.82c0.16,1.04,0.69,1.88,1.67,2.33c0.89,0.4,1.99,0.4,2.49-0.54
				c0.32-0.61,0.43-1.27,0.38-1.92C21.06,326.05,21.5,325.66,21.6,324.96z"/>
			<path class="st15" d="M43.94,303.07c-0.16-0.52-0.72-0.72-1.21-0.6c-1.7,0.4-4.29,2.05-3.37,4.07c-0.42,1.06,0.01,2.53,1.27,2.94
				c1.22,0.4,2.51-0.29,3.21-1.3C44.91,306.64,44.43,304.73,43.94,303.07z"/>
			<path class="st15" d="M58.32,284.81c-0.16-0.36-0.45-0.57-0.76-0.61c-0.36-0.37-0.81-0.66-1.37-0.77c-1.26-0.25-1.83,0.6-2,1.75
				c-0.12,0.8,0.05,1.54,0.43,2.17c0.15,1.12,0.98,2.13,2.2,2.32c0.31,0.05,0.69-0.02,0.9-0.29
				C58.73,288.04,59.02,286.38,58.32,284.81z"/>
			<path class="st15" d="M153.21,246.78c-0.27-1.45-1.47-1.67-2.8-2.23c-0.57-0.24-1.22,0.01-1.37,0.64c-0.07,0.3-0.08,0.6-0.04,0.9
				c-0.92,1.59,0.62,3.22,1.86,4.12c0.41,0.29,0.88,0.3,1.25-0.07c0.53-0.53,0.88-1.19,1.05-1.91c0.11-0.08,0.23-0.13,0.33-0.23
				C153.89,247.6,153.64,246.99,153.21,246.78z"/>
			<path class="st15" d="M178.53,241.07c0.09-0.53,0.07-1.09-0.1-1.64c-0.09-0.27-0.34-0.51-0.62-0.56
				c-1.55-0.28-3.41,0.66-3.48,2.4c-0.04,0.8,0.38,1.48,0.99,1.91c0.13,0.39,0.6,0.61,0.98,0.49c0.05-0.02,0.1-0.04,0.15-0.06
				c0.27,0.03,0.54,0.03,0.82-0.03C178.45,243.29,178.99,242.06,178.53,241.07z"/>
			<path class="st15" d="M173.46,214.45c-0.29-0.27-0.79-0.31-1.11-0.08c-1.03,0.73-1.39,1.9-1.02,3.03
				c-0.95,1.08-0.96,3.08,0.7,3.46c1.28,0.3,2.33-1.51,2.57-2.54C174.94,216.91,174.52,215.44,173.46,214.45z"/>
			<path class="st15" d="M145.14,197.62c0-0.81-1.06-1.1-1.58-0.56c-0.21,0.22-0.42,0.44-0.63,0.66c-0.14-0.07-0.29-0.1-0.47-0.02
				c-2.68,1.2-0.55,5.42,2.09,4.62c0.38-0.11,0.59-0.49,0.59-0.87C145.15,200.17,145.14,198.9,145.14,197.62z"/>
			<path class="st15" d="M127.37,203.81c-0.19-0.4-0.44-0.73-0.72-1.02c-0.17-0.31-0.38-0.59-0.64-0.84c0-0.05,0.02-0.1,0.01-0.15
				c-0.07-0.68-0.69-0.93-1.23-0.72c-0.14-0.07-0.27-0.15-0.4-0.22c-1.01-0.48-1.87,0.08-2.28,1.07c-0.5,1.21-0.01,2.89,1.1,3.53
				c0.13,0.23,0.29,0.44,0.54,0.62c1.42,1.01,2.76-0.11,3.11-1.49C127.24,204.53,127.57,204.24,127.37,203.81z"/>
			<path class="st15" d="M172.38,192.62c-0.18-0.68-0.67-1.27-1.27-1.67c-0.02-0.05-0.03-0.09-0.06-0.14
				c-0.21-0.4-0.68-0.43-1.05-0.3c-0.8-0.15-1.62,0.07-2.15,0.92c-0.04,0.06-0.05,0.13-0.09,0.19c-0.04,0.05-0.09,0.07-0.13,0.13
				c-0.93,1.36-0.19,3.31,0.75,4.4c0.17,0.2,0.59,0.29,0.83,0.17c0.14-0.07,0.26-0.16,0.39-0.23c0.63,0.02,1.32-0.26,1.78-0.64
				C172.2,194.79,172.66,193.67,172.38,192.62z"/>
			<path class="st15" d="M141.93,168.88c-0.01-0.06,0-0.11-0.01-0.17c-0.11-0.53-0.73-0.67-1.17-0.59c-0.14,0.03-0.26,0.1-0.39,0.15
				c-2.34,0.04-3.56,4.06-1.13,5.18c0.18,0.08,0.39,0.09,0.58,0.06C142.14,173.78,143.5,170.36,141.93,168.88z"/>
			<path class="st15" d="M169.85,168.7c-0.07-0.25-0.22-0.45-0.35-0.65c-0.57-1.04-1.74-1.63-2.96-1.56
				c-1.73,0.1-3.18,1.48-3.1,3.26c0.07,1.62,1.45,3.49,3.22,3.3c0.29-0.03,0.48-0.22,0.61-0.44c0.21-0.03,0.42-0.09,0.65-0.18
				c0.85-0.36,1.45-1.13,1.74-2C169.89,169.88,170,169.27,169.85,168.7z"/>
			<path class="st15" d="M168.95,138.16c-0.3,0-0.6-0.02-0.9-0.02c-0.42-0.46-0.98-0.49-1.46-0.07c-0.01,0.01-0.02,0.02-0.03,0.03
				c-0.49-0.01-0.98,0-1.46-0.03c-0.36-0.02-0.67,0.32-0.75,0.64c-0.21,0.83-0.41,1.65-0.59,2.48c-0.07,0.31,0.03,0.65,0.27,0.86
				c0.96,0.81,2.05,0.87,2.96,0.49c0.21,0.03,0.43,0.03,0.68-0.05c0.39-0.13,0.53-0.48,0.49-0.82c0.25-0.31,0.44-0.66,0.54-1.04
				c0.07-0.17,0.09-0.35,0.08-0.54c0.01-0.23-0.01-0.46-0.06-0.69c0.1-0.01,0.2-0.02,0.3-0.03
				C169.79,139.31,169.72,138.16,168.95,138.16z"/>
			<path class="st15" d="M195.39,196.75c-0.34-0.32-0.98-0.31-1.28,0.07c-0.46,0.58-0.7,1.37-0.67,2.11
				c-2.03,0.43-1.86,3.9,0.47,4.11c1.27,0.11,2.51-0.77,2.93-1.96C197.42,199.46,196.55,197.84,195.39,196.75z"/>
			<path class="st15" d="M184.02,264.36c-0.03-0.31-0.3-0.58-0.6-0.68c-0.05-0.31-0.13-0.61-0.28-0.9c-0.21-0.38-0.71-0.49-1.1-0.38
				c-1.22,0.34-1.98,1.62-1.84,2.83c-0.01,0.01-0.02,0.01-0.03,0.02c-0.59,0.6-0.02,1.51,0.73,1.52c0.06,0,0.11-0.02,0.16-0.02
				c0.5,0.32,1.08,0.22,1.61-0.09c0.01,0,0.01-0.01,0.02-0.01c0.07-0.04,0.13-0.07,0.19-0.12c0,0,0,0,0.01,0
				C183.58,266.02,184.1,265.14,184.02,264.36z"/>
			<path class="st15" d="M198.02,222.63c-0.46-0.76-1.45-0.39-1.69,0.31c-0.16,0.45-0.32,0.91-0.46,1.36
				c-1.27-0.46-2.04,1.13-1.47,2.17c0.82,1.51,2.41,1.27,3.38,0.08C198.7,225.43,198.77,223.86,198.02,222.63z"/>
			<path class="st15" d="M225.01,191.32c-0.87-0.37-1.77-0.21-2.4,0.52c-0.41,0.47-0.57,1.1-0.41,1.65
				c-1.57,0.61-2.32,2.22-1.27,3.79c0.2,0.3,0.67,0.52,1.03,0.36c2.24-1,3.58-3.08,3.55-5.54
				C225.5,191.79,225.29,191.44,225.01,191.32z"/>
			<path class="st15" d="M200.26,172.83c-1.13-1.47-3.59-1.91-4.79-0.29c-1.02,1.36-0.59,3.58,1.06,4.19
				c0.4,0.15,0.78,0.14,1.13,0.06c-0.07,0.37-0.07,0.76,0.11,1.14c0.21,0.46,0.82,0.85,1.31,0.45
				C200.71,177.07,201.67,174.68,200.26,172.83z"/>
			<path class="st15" d="M193.82,147.9c-0.29,0.13-0.55,0.31-0.8,0.5c-0.23-0.65-1.05-1.15-1.81-1.02
				c-0.72,0.13-1.16,0.76-1.21,1.46c-0.09,1.07,0.67,1.9,1.34,2.64c0.35,0.38,0.97,0.25,1.29-0.07c0.76-0.73,1.71-1.43,2.14-2.41
				C195.02,148.45,194.5,147.58,193.82,147.9z"/>
			<path class="st15" d="M189.94,118.45c-1.23-0.82-3.05,0.21-3.45,1.48c-0.02,0.06-0.02,0.11-0.03,0.16
				c-0.97,0.87-1.17,2.05-0.56,3.29c0.13,0.27,0.51,0.43,0.79,0.4c0.46-0.04,0.85-0.21,1.18-0.43c0.93-0.01,1.79-0.49,2.36-1.36
				C190.89,120.98,191.1,119.22,189.94,118.45z"/>
			<path class="st15" d="M229.07,149.16c-0.28-0.27-0.62-0.45-0.98-0.57c-0.15-0.3-0.39-0.55-0.71-0.67
				c-0.8-0.29-1.53,0.42-1.62,1.18c-0.27,0.31-0.45,0.72-0.45,1.24c0,0.21,0.1,0.4,0.24,0.56c-0.16,0.72-0.22,1.46-0.18,2.21
				c0.04,0.61,0.65,1.03,1.23,0.84C228.37,153.39,231.01,151.06,229.07,149.16z"/>
			<path class="st15" d="M249.55,170.1c-0.44-0.18-0.88-0.27-1.33-0.32c0.1-0.75-0.02-1.53-0.47-2.18
				c-0.85-1.21-2.12-1.16-3.09-0.15c-1.15,1.2-1.48,2.82-1.15,4.42c0.07,0.35,0.43,0.58,0.74,0.67c0.67,0.19,1.34,0.1,1.92-0.17
				c0.61,0.01,1.21-0.02,1.79-0.18c0.5-0.14,0.6-0.55,0.5-0.93c0.21,0.02,0.42,0.04,0.64,0.09
				C249.82,171.53,250.27,170.39,249.55,170.1z"/>
			<path class="st15" d="M265.08,146.85c0.08-0.89-0.25-1.72-0.79-2.34c-0.02-0.1-0.01-0.19-0.03-0.28
				c-0.13-0.58-0.67-0.69-1.14-0.55c-0.64-0.25-1.37-0.3-2.11,0.01c-0.33,0.14-0.5,0.4-0.55,0.74c-0.59,0.32-1.01,0.87-0.98,1.64
				c0.03,0.72,0.44,1.36,1,1.77c0.01,0.03,0.03,0.05,0.05,0.08c-0.28,0.78-0.12,1.66,0.85,2.04c0.29,0.11,0.66,0.17,0.92-0.05
				c0.66-0.54,1.13-1.2,1.48-1.9c0.41,0.02,0.67-0.31,0.72-0.68C264.79,147.31,265.06,147.18,265.08,146.85z"/>
			<path class="st15" d="M221.38,127.13c-0.25-0.81-0.99-1.45-1.79-1.73c-0.22-0.43-0.47-0.83-0.72-1.19
				c-0.27-0.38-0.9-0.6-1.3-0.27c-1.19,0.97-1.9,2.69-1.52,4.11c-0.24,0.26-0.34,0.64-0.1,1.04c0.46,0.77,1.27,1.01,2.06,0.89
				C219.81,130.49,222.04,129.27,221.38,127.13z"/>
			<path class="st15" d="M249.34,124.09c-1.31,0.53-1.63,2.56-0.85,3.42c0.01,0.11-0.02,0.2,0.01,0.31c0.5,2.44,4.06,2.06,4.96,0.13
				C254.57,125.57,251.57,123.19,249.34,124.09z"/>
			<path class="st15" d="M285.44,120.56c-0.12-0.13-0.27-0.23-0.46-0.25c-1.09-0.12-2,0.33-2.59,1.15c-0.05,0.06-0.1,0.12-0.15,0.18
				c-0.4,0.37-0.6,0.96-0.63,1.57c-0.01,0.05,0,0.11,0,0.16c0,0.11,0,0.22,0.01,0.34c0.03,0.79,0.31,1.59,0.98,2.24
				c0.11,0.11,0.28,0.19,0.46,0.23c1.14,0.8,2.7,0.85,3.81-0.41C288.43,123.98,287.72,121.11,285.44,120.56z"/>
			<path class="st15" d="M244.62,106.75c-0.23-0.75-0.77-1.39-1.49-1.71c-0.6-0.35-1.29-0.54-2-0.54c-0.55,0-0.86,0.5-0.89,0.99
				c-0.01,0.1,0.01,0.19,0.01,0.28c-0.05,0.06-0.09,0.13-0.13,0.19c-2.09,1.45-0.69,5.59,2.29,4.84c1.48-0.37,2.6-1.77,2.41-3.32
				C244.79,107.24,244.71,106.99,244.62,106.75z"/>
			<path class="st15" d="M217.19,103.68c-0.65-1.24-2.73-2.16-3.78-0.99c-1.21,0.5-2.05,1.82-1.5,3.4c0.88,2.49,3.02,1.62,4.09-0.05
				C216.96,105.81,217.72,104.69,217.19,103.68z"/>
			<path class="st15" d="M194.05,103.94c-0.53-0.44-1.28-0.35-1.79,0.08c-0.1,0.08-0.18,0.18-0.26,0.29
				c0.01-0.09,0.01-0.17,0.03-0.25c0.12-0.64-0.6-0.91-1.03-0.53c-0.9,0.78-0.7,2.14-0.08,3.03c0.7,1.01,1.8,1.43,2.99,1.19
				c0.37-0.08,0.6-0.52,0.59-0.87C194.47,106.03,194.78,104.54,194.05,103.94z"/>
			<path class="st15" d="M193,87.31c-0.4-0.48-1.01-0.57-1.47-0.11c-0.66,0.65-1.06,1.45-1.22,2.3c-0.14-0.01-0.29,0-0.44,0.04
				c-1.65,0.43-1.47,2.72-0.57,3.74c1.22,1.38,3.28,0.91,4.32-0.44C194.94,91.11,194.28,88.86,193,87.31z"/>
			<path class="st15" d="M196.9,71.63c0-0.15,0.01-0.3,0.01-0.45c0.01-0.51-0.52-0.93-0.99-0.89c-0.02,0-0.03,0.01-0.05,0.01
				c-1.47-0.52-3.61,1.37-2.96,3.16c0.2,1.31,1.92,1.64,3.07,1.64c0.51,0,0.84-0.48,0.85-0.94c0.01-0.66,0.04-1.31,0.06-1.97
				C196.92,72,196.93,71.82,196.9,71.63z"/>
			<path class="st15" d="M178.57,83.06c-0.84-0.17-1.71,0.25-2.33,0.89c-1.27,0.04-2.33,1-2.58,2.33c-0.07,0.38,0.1,0.77,0.45,0.95
				c2.34,1.28,5.33-0.67,5.2-3.3C179.29,83.53,178.97,83.14,178.57,83.06z"/>
			<path class="st15" d="M217.52,87.04c0.05-0.81-0.46-1.58-1.17-2.01c-0.05-0.13-0.07-0.27-0.13-0.4
				c-0.27-0.67-1.01-0.77-1.52-0.32c-0.32,0.28-0.56,0.61-0.76,0.96c-0.21,0.24-0.32,0.54-0.37,0.85c-0.16,0.54-0.22,1.11-0.14,1.69
				c0,0.01,0,0.01,0.01,0.01c-0.38,1.14,1.15,2.06,2.11,2.37c0.44,0.14,0.89-0.23,1-0.64c0.11-0.42,0.19-0.84,0.23-1.26
				C217.19,88,217.48,87.58,217.52,87.04z"/>
			<path class="st15" d="M222.89,72.1c-0.11-0.17-0.25-0.32-0.45-0.46c-0.29-0.2-0.62-0.27-0.93-0.27
				c-1.08-0.45-2.79-0.28-3.34,0.91c-0.52,1.13,0.78,2.84,1.74,3.33C222.41,76.9,224.38,73.37,222.89,72.1z"/>
			<path class="st15" d="M173.67,57.87c-1.55-1.05-4.59,0.23-3.93,2.32c-1.16,0.93-1.67,2.81,0.05,3.94
				c1.22,0.8,2.99,0.66,3.98-0.44c0.72-0.79,0.91-1.81,0.8-2.81C174.95,59.81,174.79,58.63,173.67,57.87z"/>
			<path class="st15" d="M168.63,35.04c-0.3-0.4-0.68-0.67-1.1-0.86c-0.28-0.54-0.78-0.98-1.43-1.05c-0.52-0.06-1.03,0.18-1.16,0.74
				c-0.02,0.09-0.02,0.18-0.03,0.27c-0.12,0.05-0.25,0.06-0.37,0.13c-0.39,0.2-0.47,0.71-0.38,1.09c0.06,0.23,0.17,0.43,0.3,0.61
				c-0.8,1.79,1.16,4.39,3.39,2.89C169.11,38.02,169.54,36.29,168.63,35.04z"/>
			<path class="st15" d="M189.49,40.21c0-0.01,0-0.01,0-0.02c-0.03-0.32-0.22-0.6-0.49-0.76c-0.26-0.34-0.56-0.65-0.92-0.91
				c-0.4-0.29-0.83-0.35-1.26-0.1c-1.58,0.91-1.5,3.5-0.18,4.49c0.26,0.81,0.87,1.52,1.8,1.82c0.1,0.03,0.21,0.04,0.32,0.03
				c0.42,0.11,0.91-0.09,0.89-0.68c0-0.05,0-0.1,0-0.15C190.12,42.7,190.06,41.35,189.49,40.21z"/>
			<path class="st15" d="M207.3,49.79c0.02-0.32-0.24-0.66-0.51-0.8c-1.57-0.77-4.92-0.01-4.55,2.29c0.11,0.71,0.88,1.01,1.41,0.5
				c0.53-0.51,0.95-1.21,1.65-1.23c-0.09,0.87-0.28,1.71-0.56,2.53c-0.08,0.02-0.15,0-0.24,0.03c-1.11,0.5-0.79,2.01,0.16,2.46
				c0.43,0.2,0.97,0.06,1.2-0.38c0.03-0.05,0.04-0.1,0.07-0.15c0.18-0.07,0.34-0.2,0.37-0.46c0.01-0.1-0.03-0.2-0.03-0.3
				C206.87,52.85,207.21,51.37,207.3,49.79z"/>
			<path class="st15" d="M196.05,18.88c-0.07-0.25-0.17-0.5-0.29-0.74c-0.19-0.38-0.75-0.52-1.13-0.39
				c-0.89,0.3-1.41,1.01-1.63,1.83c-1.29,1.12-1.1,2.97,0.32,3.92c0.27,0.18,0.63,0.09,0.89-0.05c0.13-0.07,0.23-0.15,0.34-0.23
				c0.53,0.24,1.11,0.24,1.62-0.27C197.19,21.95,197.22,19.81,196.05,18.88z"/>
			<path class="st15" d="M169.33,7.84c-1.46,0.92-1.52,2.73-0.68,3.86c0.09,0.18,0.19,0.35,0.31,0.51c1.48,1.84,3.96,0.5,4.36-1.49
				C173.8,8.37,171.47,6.5,169.33,7.84z"/>
			<path class="st15" d="M150.56,6.55c-0.74-0.07-1.2,0.36-1.39,0.9c-0.29,0.31-0.51,0.71-0.55,1.2c-0.14,1.51,1.25,2.3,2.45,1.39
				C152.24,9.15,152.43,6.73,150.56,6.55z"/>
			<path class="st15" d="M298.69,135.78c-0.02,0.02-0.06,0.04-0.08,0.06c-0.03-0.14-0.04-0.28-0.09-0.43
				c-0.1-0.31-0.39-0.59-0.72-0.65c-0.31-0.05-0.62-0.05-0.92,0c-1.52-0.17-3.34,0.48-3.11,2.27c0.06,0.44,0.2,0.85,0.41,1.23
				c0.04,0.23,0.09,0.47,0.19,0.7c0.07,0.17,0.18,0.3,0.29,0.4c0.13,0.88,0.74,1.74,1.63,2.01c0.34,0.1,0.82-0.12,0.96-0.45
				c0.1-0.23,0.16-0.47,0.24-0.7c0.21-0.08,0.39-0.22,0.52-0.43c0.33-0.54,0.53-1.12,0.65-1.7c0.56-0.28,1.04-0.73,1.37-1.4
				C300.44,135.85,299.34,135.15,298.69,135.78z"/>
			<path class="st15" d="M316.03,118.78c-0.67,0.08-1.3,0.49-1.7,1.03c-0.54-0.21-1.13-0.15-1.67,0.43
				c-0.99,1.06-0.73,2.94,0.31,3.88c0.9,0.81,1.82,0.76,2.55,0.28c0.5,0.26,1.06,0.39,1.63,0.28c1.14-0.21,1.41-0.93,1.51-1.98
				C318.81,121.03,318.2,118.54,316.03,118.78z"/>
			<path class="st15" d="M277.2,102.23c0-0.48-0.38-0.79-0.79-0.93c-0.41-0.14-0.77-0.09-1.1,0.04c-0.65-0.22-1.38-0.09-1.82,0.51
				c-0.21,0.28-0.33,0.65-0.36,1.03c-0.44,0-0.72,0.35-0.85,0.72c-0.58,1.7,0.87,3.41,2.54,3.66c0.7,0.11,1.74-0.09,2.15-0.74
				c0.31-0.49,0.18-1.19,0.19-1.74C277.18,103.93,277.19,103.08,277.2,102.23z"/>
			<path class="st15" d="M345.24,137.84c-1.44,1.02-1.88,3.04-0.82,4.48c0.97,1.31,3.13,1.89,4.45,0.78
				c0.27-0.23,0.35-0.64,0.25-0.97c0.04-0.04,0.08-0.08,0.12-0.12C351.27,139.46,347.9,135.95,345.24,137.84z"/>
			<path class="st15" d="M380.02,144.33c-1.28-1.27-3.6-0.42-3.96,1.17c-0.44,0.64-0.61,1.41-0.42,2.23
				c0.29,1.2,1.33,1.46,2.46,1.34c0.05-0.01,0.09-0.03,0.14-0.04c0.13,0,0.24-0.04,0.35-0.09
				C380.51,148.37,381.62,145.93,380.02,144.33z"/>
			<path class="st15" d="M389.64,166.95c-0.26,0.05-0.46,0.18-0.6,0.34c-0.16,0-0.32,0.03-0.49,0.12c-2.62,1.5,0.13,6.07,2.8,4.8
				C393.94,171,392.42,166.46,389.64,166.95z"/>
			<path class="st15" d="M364.53,159.66c-0.33-0.17-0.68-0.23-1.04-0.23c-0.32-0.13-0.65-0.22-0.99-0.25
				c-1.15-0.09-1.95,0.88-2.21,1.93c-0.19,0.79-0.07,1.63,0.29,2.33c0,0.51,0.01,1.01,0.02,1.52c0.01,0.4,0.32,0.7,0.68,0.8
				c2.07,0.6,4.18-0.97,4.34-2.96C365.98,161.63,365.73,160.31,364.53,159.66z M362.42,162.82c0-0.01,0-0.01,0-0.02
				c-0.09-0.44,0.32-1.17,0.75-1.38c0.04,0.03,0.07,0.05,0.11,0.09c0.3,0.28,0.45,0.59,0.49,0.9
				C363.52,162.92,362.87,163.26,362.42,162.82z"/>
			<path class="st15" d="M331.33,152c-0.48-0.22-1.03-0.06-1.29,0.41c-0.01,0.03-0.02,0.05-0.03,0.08
				c-0.69,0.01-1.11,0.46-1.28,1.07c-0.55,0.27-1.05,0.69-1.39,1.26c-1.01,1.67-0.04,3.63,1.71,4.24c1.78,0.63,3.84-0.1,4.52-1.92
				C334.3,155.16,333.2,152.87,331.33,152z M330.04,157.4c-1.33-0.18-1.38-1.08-0.95-1.75c0.11,0.14,0.25,0.25,0.4,0.35
				c0.03,0.16,0.04,0.32,0.09,0.48c0.13,0.48,0.76,0.8,1.23,0.61c0.42-0.17,0.72-0.46,0.95-0.8
				C331.63,157.01,331.11,157.55,330.04,157.4z"/>
			<path class="st15" d="M316.86,141.09c-0.78-1.09-2.91-0.92-3.82,0.23c-0.33,0.42-0.31,0.95,0.07,1.34
				c0.04,0.04,0.09,0.08,0.13,0.13c-0.09,0.23-0.16,0.48-0.17,0.75c-0.03,0.77,0.32,1.93,1.14,2.21c0.82,0.28,1.92-0.45,2.46-1
				c0.75-0.77,1.09-1.79,1.02-2.85C317.66,141.45,317.3,141.13,316.86,141.09z"/>
			<path class="st15" d="M288.08,153.74c-0.4-0.37-0.98-0.28-1.35,0.07c-0.24,0.23-0.43,0.48-0.59,0.74
				c-0.21,0.09-0.43,0.23-0.65,0.46c-0.36,0.39-0.51,0.88-0.5,1.37c-0.04,0.02-0.08,0.03-0.12,0.04c-0.37,0.15-0.7,0.6-0.51,1.02
				c0.37,0.81,1.02,1.74,1.92,2.03c0.83,0.27,1.68-0.37,2.17-1.01C289.56,157.05,289.4,154.95,288.08,153.74z"/>
			<path class="st15" d="M305.14,164.96c-1.13-0.07-1.81,0.52-2.22,1.34c-0.45-0.16-0.94-0.18-1.41,0.09
				c-1.65,0.92-0.77,3.57,0.62,4.2c0.3,0.14,0.65,0.05,0.9-0.15c0.07,0.05,0.13,0.12,0.21,0.16c1.52,0.77,3.42-1.03,3.79-2.37
				C307.45,166.75,306.85,165.08,305.14,164.96z"/>
			<path class="st15" d="M333.79,171.45c-0.87-0.52-2.04-0.15-2.86,0.43c-0.78,0.15-1.44,0.63-1.61,1.56
				c-0.04,0.22,0.03,0.42,0.15,0.59c-0.14,0.58-0.14,1.19,0.08,1.76c0.2,0.51,0.52,0.81,0.89,1.02c0,0.06,0,0.11,0,0.17
				c0,0.57,0.6,0.88,1.1,0.75c1.35-0.38,2.38-1.41,2.83-2.73C334.69,174.03,334.85,172.09,333.79,171.45z"/>
			<path class="st15" d="M352.87,174.1c-0.64-0.16-1.23,0.4-1.21,1.03c0.02,0.65,0.01,1.33,0.06,1.99
				c-0.02,0.02-0.02,0.05-0.04,0.08c-0.04,0.04-0.08,0.06-0.11,0.1c-0.49,0.56-0.64,1.24-0.52,1.86c-0.03,0.29-0.04,0.58-0.02,0.88
				c0.03,0.32,0.2,0.64,0.5,0.78c0.12,0.05,0.24,0.11,0.36,0.17c0.13,0.27,0.45,0.43,0.77,0.36c0.45,0.19,0.91,0.36,1.38,0.42
				c0.71,0.09,1.27-0.75,0.7-1.29c0.79-0.45,1.4-1.21,1.55-2.1C356.65,176.24,354.73,174.58,352.87,174.1z"/>
			<path class="st15" d="M311.82,192.08c-0.1-0.03-0.21-0.03-0.32-0.01c-0.33-0.09-0.66-0.17-1.02-0.16
				c-1.86,0.05-3.24,1.53-3.41,3.34c-0.1,1.08,0.25,2.16,0.94,2.91c0.09,0.37,0.19,0.73,0.3,1.05c0.25,0.68,0.94,0.83,1.54,0.53
				c0.27-0.13,0.48-0.31,0.7-0.49c0,0.29,0.01,0.58,0.01,0.87c0.01,0.58,0.6,0.9,1.11,0.76
				C316.26,199.63,316.09,193.59,311.82,192.08z"/>
			<path class="st15" d="M280.16,190.4c-0.22,0.08-0.42,0.22-0.6,0.38c-0.19-0.01-0.38,0.03-0.52,0.13
				c-1.49,1.1-1.85,3.37-0.35,4.66c0.65,0.56,1.57,0.79,2.41,0.67c1.14-0.16,1.61-0.76,1.76-1.87
				C283.08,192.83,282.36,189.58,280.16,190.4z"/>
			<path class="st15" d="M261.8,175.14c-0.23-0.11-0.47-0.19-0.72-0.28c0.01-0.05,0.03-0.1,0.04-0.15c0.2-0.7-0.94-1.12-1.21-0.44
				c-0.03,0.09-0.07,0.18-0.1,0.27c-1.01-0.14-2.04-0.03-2.91,0.62c-1.08,0.81-1.58,2.39-1.09,3.66c0.43,1.09,1.38,1.49,2.31,1.43
				c0.04,0.09,0.06,0.18,0.11,0.26c0.48,0.82,1.53,0.22,1.5-0.57c0.63,0.03,1.28-0.09,1.77-0.48c0.86-0.68,0.69-2.25,0.8-3.25
				C262.35,175.79,262.21,175.34,261.8,175.14z"/>
			<path class="st15" d="M254.29,201.94c0.04-0.15,0.06-0.32,0.05-0.51c-0.07-1.38-1.12-2.08-2.29-2.23
				c-0.14-0.06-0.28-0.1-0.42-0.14c-0.11-0.15-0.2-0.31-0.33-0.45c-0.31-0.33-0.78-0.26-1.13-0.09c-0.02,0.01-0.04,0.03-0.05,0.04
				c-0.4-0.23-1-0.1-1.31,0.21c-0.19,0.19-0.35,0.4-0.5,0.62c-0.14,0.05-0.26,0.15-0.34,0.3c-0.26,0.49-0.35,1.02-0.34,1.55
				c-0.1,0.89,0.11,1.81,0.71,2.56c0.13,0.17,0.31,0.27,0.5,0.32c0.2,0.23,0.42,0.44,0.65,0.62c0.12,0.09,0.26,0.13,0.4,0.16
				c1.37,1.18,3.77,1.11,4.41-0.92C254.49,203.32,254.47,202.61,254.29,201.94z"/>
			<path class="st15" d="M225.83,212.51c0.09-0.31,0.02-0.66-0.31-0.78c-3.97-1.48-6.54,4.71-2.32,6.04
				c1.59,0.5,3.58-0.14,4.03-1.88C227.57,214.61,226.9,213.25,225.83,212.51z"/>
			<path class="st15" d="M257.37,222.01c-1.35-1.2-3.49-1.32-4.69,0.14c-0.55,0.67-0.8,1.58-0.74,2.46c-0.1,0.48-0.07,0.99,0.12,1.5
				c0.38,0.99,1.21,1.62,2.14,1.83c1.07,0.76,2.65,0.4,3.57-0.61C259.2,225.77,258.91,223.39,257.37,222.01z"/>
			<path class="st15" d="M279.05,228.52c-0.7-0.93-1.85-1.29-2.7-0.74c-0.89,0.14-1.67,0.66-1.93,1.66
				c-0.32,1.26,0.39,2.67,1.47,3.34c0.21,0.13,0.41,0.18,0.62,0.25c0.34,0.21,0.7,0.24,1.05,0.15
				C279.4,232.95,280.37,230.28,279.05,228.52z"/>
			<path class="st15" d="M223.49,235.99c-1.79,0.68-2.85,2.74-2.24,4.54c-0.1,0.2-0.19,0.41-0.21,0.66c-0.19,2,2.26,2.74,3.76,2.01
				c0.09-0.04,0.17-0.11,0.26-0.16c0.55-0.04,1.09-0.19,1.58-0.52c0.41-0.27,0.44-0.66,0.27-0.97
				C229.25,239.57,226.91,234.7,223.49,235.99z M225.17,240.28c-0.61,0.13-1.6-0.53-1.51-1.2c0.08-0.58,0.82-0.68,1.29-0.55
				C225.89,238.77,225.58,239.63,225.17,240.28z"/>
			<path class="st15" d="M255.24,258.57c-0.1-0.16-0.24-0.29-0.36-0.43c0.21-0.96,0.2-1.99-0.26-2.85c-0.69-1.3-2.23-1.83-3.58-1.23
				c-1.06,0.47-1.75,1.53-1.92,2.65c-1.14,1.66-0.65,4.53,1.5,4.98c0.01,0.01,0.02,0.01,0.03,0.01c0.04,0.01,0.07,0.03,0.11,0.04
				c0.01,0,0.03,0,0.04,0c0.22,0.09,0.45,0.18,0.71,0.18c0.62,0.01,1.16-0.26,1.62-0.66c0.2-0.05,0.39-0.14,0.52-0.28
				c0.34-0.36,0.51-0.78,0.63-1.21c0.05-0.1,0.1-0.2,0.15-0.3C254.96,259.69,255.63,259.16,255.24,258.57z"/>
			<path class="st15" d="M224.76,271.96c-0.39-1.17-2.12-1.59-3.18-1.43c-0.08,0.01-0.16,0.05-0.24,0.07
				c-0.45-0.19-1.07-0.12-1.26,0.39c-0.04,0.1-0.07,0.2-0.11,0.31c-0.27,0.25-0.48,0.55-0.65,0.89c-1.45,0.75-1.58,2.68-0.57,3.9
				c0.52,0.63,1.31,1.07,2.15,1.04c0.25-0.01,0.47-0.09,0.67-0.2c0.11,0.03,0.2,0.09,0.31,0.1c0.48,0.08,0.83-0.13,1.09-0.51
				c0.56-0.82,1.01-1.66,1.36-2.59C224.55,273.37,224.97,272.58,224.76,271.96z"/>
			<path class="st15" d="M202.5,260.44c-0.07-0.18-0.15-0.37-0.25-0.56c-0.07-0.3-0.2-0.6-0.45-0.87c-0.12-0.13-0.26-0.2-0.4-0.29
				c-0.17-0.17-0.36-0.33-0.55-0.47c-0.15-0.6-0.47-1.16-1.01-1.56c-0.32-0.24-0.86-0.39-1.21-0.09c-0.5,0.42-0.89,0.94-1.12,1.51
				c-1.23,0.88-1.85,2.58-1.19,4.05c0.18,0.42,0.62,0.73,1.1,0.55c0.39-0.15,0.74-0.37,1.05-0.63c0.12,0.01,0.25,0,0.36-0.03
				c0.09-0.03,0.16-0.08,0.24-0.11c0.06,0.17,0.18,0.32,0.37,0.41c0.96,0.42,1.9-0.01,2.44-0.74
				C202.36,261.45,202.7,261,202.5,260.44z"/>
			<path class="st15" d="M197.05,293.12c0.02-0.23,0.04-0.46,0-0.7c-0.01-0.03-0.02-0.05-0.03-0.08c-0.03-0.63-0.2-1.26-0.58-1.84
				c-0.71-1.08-1.67-1.04-2.47-0.51c-0.59-0.29-1.32-0.29-2.07,0.3c-1.18,0.92-1.29,2.79-0.53,4c0.5,0.79,1.34,1.33,2.27,1.61
				c0.02,0.03,0.04,0.05,0.06,0.08c0.21,0.24,0.7,0.35,0.99,0.21c0.02-0.01,0.04-0.02,0.06-0.03c0.03,0,0.06,0.03,0.09,0.03
				c0.18,0,0.35-0.05,0.51-0.09c0.31-0.01,0.62-0.01,0.91-0.09c0.41-0.11,0.56-0.57,0.47-0.96
				C197.08,294.47,197.2,293.76,197.05,293.12z"/>
			<path class="st15" d="M239.97,289.36c-0.12-0.23-0.28-0.42-0.44-0.61c-0.04-0.06-0.08-0.11-0.12-0.17c0,0,0,0-0.01-0.01
				c-0.27-0.39-0.63-0.72-1.12-0.91c-0.21-0.08-0.41-0.09-0.6-0.07c-0.2-0.03-0.38-0.02-0.57,0.01c-1.21-0.02-2.36,0.67-2.6,2.23
				c-0.08,0.5-0.01,1,0.15,1.48c0,0.41,0.09,0.82,0.22,1.22c0,0.13-0.01,0.27-0.01,0.4c-0.01,0.45,0.36,0.73,0.73,0.86
				C238.23,294.72,241.37,292.09,239.97,289.36z"/>
			<path class="st15" d="M219.38,306.43c0.25-2.86-2.5-5.42-5.3-4.69c-0.45,0.12-0.71,0.6-0.71,1.04c0,0.3,0.01,0.61,0.01,0.91
				c-1.3,0.2-2.32,0.92-2.09,2.42c0.17,1.1,0.88,2.01,1.78,2.64c0.45,0.8,1.15,1.42,2.04,1.75c0.13,0.06,0.25,0.14,0.39,0.18
				c0.04,0.01,0.08,0,0.13,0.01c0.02,0,0.03,0.01,0.05,0.02c0.17,0.03,0.33,0,0.48-0.06c0.18,0.05,0.34,0.12,0.53,0.15
				c0.47,0.05,0.86-0.1,1.1-0.52c0.33-0.54,0.48-1.11,0.56-1.68C218.9,308.06,219.3,307.36,219.38,306.43z"/>
			<path class="st15" d="M233.98,332.41c-0.08-0.14-0.18-0.27-0.3-0.39c0.03-0.38-0.01-0.76-0.08-1.14
				c-0.01-0.05-0.01-0.1-0.03-0.15c-0.03-0.11-0.02-0.23-0.06-0.34c-0.4-1.14-1.51-1.94-2.69-2.08c-1.1-0.13-2.14,0.39-2.54,1.45
				c-0.24,0.64-0.16,1.26,0.11,1.8c-0.02,0.22,0.02,0.44,0.03,0.66c0,0.01,0,0.02,0,0.04l0,0c0.04,0.57,0.17,1.13,0.46,1.68
				c0.18,0.35,0.74,0.53,1.1,0.38c0.1-0.04,0.18-0.1,0.27-0.15c0.21,0.58,0.57,1.1,0.99,1.44c0.42,0.34,1.1,0.28,1.36-0.25
				c0.31-0.63,0.6-1.32,0.82-2.03C233.86,333.34,234.27,332.9,233.98,332.41z"/>
			<path class="st15" d="M192.82,325.48c-1.12-3.27-5.66-0.17-5.25,2.72c-0.06,0.04-0.12,0.07-0.18,0.12
				c-1.28,1.1-1.17,3.25,0.12,4.3c1.45,1.17,3.54,0.49,4.61-0.85C193.41,330.18,193.46,327.34,192.82,325.48z"/>
			<path class="st15" d="M210.97,342.63c-1.82-0.47-3.02-0.03-3.3,1.86c-1.05,0.87-1.23,2.32-0.76,3.46
				c0.01,0.34,0.06,0.67,0.14,0.98c0.88,3.21,4.85,3.2,6.74,0.92C216.06,347.15,214.11,343.45,210.97,342.63z M210.87,349.63
				c-0.46,0.11-0.86,0.04-1.19-0.14c0.29-0.08,0.47-0.26,0.56-0.48c0.28-0.03,0.55-0.19,0.68-0.49c0.24-0.54,0.35-1.21,0.32-1.87
				c0.14,0.08,0.28,0.16,0.39,0.21c0.75,0.34,1.26-0.69,0.58-1.13c-0.43-0.27-0.96-0.7-1.52-1.03c-0.04-0.06-0.07-0.11-0.11-0.17
				c0.95,0.24,1.8,0.81,2.19,1.77C213.34,347.73,212.32,349.3,210.87,349.63z"/>
			<path class="st15" d="M228.84,366.7c-0.23,0-0.42,0.07-0.61,0.14c-0.52-0.29-1.1-0.46-1.71-0.37c-1.09,0.16-1.76,1.3-1.9,2.31
				c-0.32,2.3,1.87,4.73,4.2,3.43c1.06-0.59,1.75-1.78,1.8-2.99C230.66,368.14,230.1,366.69,228.84,366.7z"/>
			<path class="st15" d="M203.34,370.81c0.14-1.06-0.17-2.16-1.16-2.88c-0.48-0.35-0.97-0.47-1.45-0.51
				c-0.32-0.19-0.8-0.11-1.09,0.14c-1.77,0.61-3.05,2.87-2.1,4.73c0.06,0.11,0.14,0.19,0.22,0.26c0.21,0.87,0.68,1.67,1.41,2.26
				c0.9,0.74,2.89,1.56,3.76,0.4C203.87,373.94,203.87,372.3,203.34,370.81z"/>
			<path class="st15" d="M180.74,357.6c-0.13,0.1-0.21,0.22-0.31,0.33c-0.29,0.09-0.58,0.25-0.86,0.48
				c-1.67,1.42-0.44,4.91,1.65,4.76c0.02,0.02,0.03,0.04,0.05,0.05c0.67,0.61,1.58,0.94,2.48,0.73c1.29-0.3,1.42-2.12,1.44-3.24
				C185.21,358.57,182.93,356.01,180.74,357.6z"/>
			<path class="st15" d="M221.75,389.33c-0.9-1.21-2.48-1.59-3.89-1.78c-0.37-0.05-0.86,0.08-1.01,0.48
				c-0.13,0.32-0.21,0.64-0.27,0.96c-0.4,0.08-0.78,0.22-1.1,0.47c-0.51,0.41-0.44,0.95-0.46,1.56c-0.03,1-0.06,1.99-0.08,2.99
				c-0.02,0.57,0.54,0.91,1.04,0.94c0.78,0.04,1.55,0.08,2.34,0.05c0.51-0.02,0.81-0.43,0.86-0.87c0.23,0.12,0.47,0.24,0.73,0.32
				c0.36,0.12,0.92-0.13,1.05-0.49c0.06-0.15,0.08-0.3,0.11-0.45c0.41-0.16,0.77-0.43,1.02-0.87
				C222.69,391.6,222.44,390.25,221.75,389.33z"/>
			<path class="st15" d="M238.94,405.1c-0.37,0.05-0.85,0.32-0.89,0.75c-0.08,0.89,0.06,1.7,0.5,2.4c-0.26,0.81-0.11,1.75,0.66,2.26
				c0.09,0.06,0.2,0.11,0.3,0.15c0.88,1.13,2.4,1.67,3.23-0.34C243.73,407.91,241.6,404.77,238.94,405.1z"/>
			<path class="st15" d="M196.99,391.53c-1.16-0.72-2.82-0.49-3.4,0.85c-0.01,0.01,0,0.03-0.01,0.04c-0.83,0.08-1.59,0.72-1.69,1.63
				c-0.17,1.51,1.28,2.66,2.64,2.86c0.55,0.08,1.06-0.02,1.54-0.18c0.04,0,0.06,0,0.1,0c0.16-0.02,0.31-0.09,0.43-0.19
				C198.47,395.56,199.29,392.96,196.99,391.53z"/>
		</g>
		<path class="st16" d="M507.51,275c0,0-1.17-35.71,37.46-57.95c38.63-22.24,92.49-5.85,117.66,32.78
			c25.17,38.63,33.37,100.68-12.29,126.44c-45.66,25.76-86.63-51.51-86.63-51.51s-1.7-17.91-21.66-42.73
			C518.05,252.17,507.51,275,507.51,275z"/>
		<path class="st9" d="M631.3,244.05c0.13-0.92-0.05-1.86-0.69-2.64c-4.1-4.99-8.93-8.82-14.31-11.32
			c-0.16-2.06-1.63-4.19-4.25-4.39c-2.1-0.16-4.38-0.34-6.77-0.53c-6.04-1.9-12.6-2.67-19.19-2.42c-1.39-0.67-3.18-0.65-4.47,0.31
			c-2.76,0.29-5.5,0.76-8.19,1.4c-0.29,0.03-0.58,0.09-0.88,0.21c-0.01,0-0.02,0.01-0.03,0.01c-0.58,0.15-1.16,0.29-1.74,0.45
			c-0.34,0.04-0.67,0.1-1.01,0.15c-1.05-1.2-2.77-1.75-4.5-0.57c-0.13,0.09-0.24,0.19-0.37,0.28c-0.74-0.24-1.59-0.17-2.44,0.39
			c-1.1,0.73-2.15,1.49-3.19,2.27c-7.63,2.49-13.98,6.66-17.72,13.37c-1.15,0.99-2.23,2.08-3.26,3.22
			c-1.44,1.15-2.54,2.56-3.26,4.11c-0.64,0.94-1.26,1.92-1.86,2.95c-1.37,2.37-0.2,4.43,1.67,5.33c1.06,2.47,3.16,4.7,6.54,6.12
			c1.01,0.43,1.97,0.46,2.83,0.25c1.57,2.04,4.87,2.63,6.21-0.37c0.16-0.35,0.32-0.71,0.47-1.06c1.52-0.5,3.01-1.18,4.42-1.81
			c0.88-0.39,1.76-0.75,2.64-1.13c0.32,0.06,0.65,0.1,1.02,0.09c1.27-0.04,2.52-0.13,3.76-0.28c1.48,1.53,4.08,1.74,5.84,0
			c0.46-0.45,0.91-0.9,1.37-1.35c5.98-1.48,11.79-3.63,17.91-5.07c12.73-3,25.78-3.56,38.77-2.25
			C630.2,250.14,632.5,246.75,631.3,244.05z"/>
		<path class="st5" d="M510.1,400.37c0,0,2.78-41.35,54.07-77.13l-2.78-9.14C561.39,314.1,510.5,344.31,510.1,400.37z"/>
		<path class="st17" d="M674.67,270.46c2.77,14.5,2.55,30.38-3.95,46.62c-9.54,23.86-27.83,23.06-27.83,23.06l-6.92,38.08
			c4.71-0.63,9.51-2.19,14.36-4.93C687.5,352.32,688.98,307.31,674.67,270.46z"/>
		<g>
			<path class="st3" d="M723.87,401.74c-2.85-2.84-5.31-1.23-7.33-5.39c-1.06-2.18-1.07-3.67-3.23-5.2
				c-2.35-1.67-5.29-1.72-8.04-2.07c-5.58-0.7-10.01-2.33-13.27-6.1c-2.35-10.23-5.66-21.01-18.04-21.94
				c-6.21-0.46-16.49,4.81-17.81,11.56c-2.02-0.53-4.1-0.85-6.15-1.02c-1.61-0.13-3.52-0.33-5.28-0.11
				c0.02-0.04,0.05-0.08,0.06-0.12c6-15.16,2.69-32.89-9.51-44.12c-14.1-12.98-38.78-15.46-56.68-9.25c0,0-1.91,0.48-2.85,0.82
				c-23.83,8.43-42.98,27.32-54.61,49.46c-8.58,16.34-18.4,45.27-5.53,61.92c1.93,3.46,4.45,6.41,7.61,8.61
				c11.05,12.06,33.15,14.3,47.95,14.51c12.49,0.18,25.47-0.39,37.8-2.51c5.7-0.98,12.08-2.51,17.5-5.4
				c6.85-2.57,13.54-6.13,19.57-9.21c10.23-5.23,19.61-13.04,30.66-15.9c10.76,2.17,25.98,0.06,33.82-7.62
				c3.72,1.22,7.97,1.24,11.15-0.47C725.29,410.21,727.12,404.97,723.87,401.74z"/>
			<path class="st9" d="M516.27,397.39c0,0-2.98,14.31,5.37,21.47c8.35,7.16,13.12-13.72,21.47-26.84
				c8.35-13.12,31.01-36.38,54.27-45.92c23.26-9.54,16.7-20.87-3.58-22.07c-20.28-1.19-40.55,13.72-56.06,31.01
				C522.23,372.34,519.85,382.18,516.27,397.39z"/>
			<path class="st18" d="M676.77,365.02c-3.1-0.84-7.53,0.56-7.77,4.2c0.09-0.43,0.19-0.86,0.28-1.3c-0.05,0.1-0.09,0.19-0.14,0.29
				c-0.82,1.72,0.88,4.36,2.92,3.41c0.05-0.02,0.11-0.05,0.16-0.07c0.24-0.03,0.48-0.07,0.75-0.13c0.6-0.14-0.23-0.06,0.45-0.11
				c0.12-0.01,0.89,0.13,1.21,0.23c-0.02,0.02,0.5,0.29,0.56,0.29c0.2,0.2,0.46,0.47,0.16,0.09c0.57,0.75,0.94,1.47,1.68,2.12
				c1.47,1.31,3.89,0.9,4.79-0.87C683.68,369.45,680.18,365.94,676.77,365.02z"/>
			<path class="st18" d="M701.92,391.48c0,0.01,0.01,0.02,0.01,0.03c-1.14,0.05-1.12,2,0.09,1.83c0.71-0.1,1.35-0.08,1.96,0
				c0.25,0.12,0.5,0.26,0.69,0.4c0.24,0.16,0.46,0.07,0.63-0.09c1.74,0.63,3.11,1.97,4.41,3.62c0.56,0.7,1.62,0.21,1.41-0.68
				C710.2,392.81,705.43,390.93,701.92,391.48z"/>
		</g>
		<g class="st14">
			<path class="st15" d="M520.51,254.13c-0.37-0.44-0.82-0.54-1.34-0.28c-0.52,0.26-0.83,0.69-1.03,1.16
				c-1.75,0.04-3.69,2.04-1.89,3.91c1.07,1.11,2.98,1.31,4.15,0.25C521.84,257.87,521.71,255.55,520.51,254.13z"/>
			<path class="st15" d="M537.74,233.06c-0.43-0.65-1.45-0.77-2.13-0.6c-0.61,0.15-1.19,0.57-1.6,1.1
				c-1.42,1.14-2.11,3.05-1.56,4.99c0.11,0.37,0.52,0.64,0.9,0.61c1.97-0.14,3.62-1.43,4.31-3.28
				C537.95,235.13,538.23,233.8,537.74,233.06z"/>
			<path class="st15" d="M558.37,216.3c-0.59-0.75-1.84-0.84-2.69-0.59c-1.74,0.5-3.17,2.4-2.77,4.23
				c-0.09,0.32-0.14,0.65-0.12,1.01c0.04,0.47,0.35,0.78,0.78,0.92c0.56,0.18,1.1,0.33,1.68,0.43c0.85,0.14,1.4-0.9,0.86-1.46
				c0.07-0.06,0.13-0.14,0.2-0.21c0.75-0.05,1.47-0.41,1.97-1.17C558.86,218.58,559.05,217.18,558.37,216.3z"/>
			<path class="st15" d="M591.91,210.35c-0.29-0.32-0.77-0.25-1.1-0.08c-1.6,0.79-2.66,2.25-3.01,3.99
				c-0.07,0.37,0.1,0.87,0.48,1.02c0.86,0.35,1.77,0.23,2.45-0.37c0.03-0.01,0.05,0,0.07-0.01
				C592.68,214.22,593.16,211.77,591.91,210.35z"/>
			<path class="st15" d="M623.09,218.96c-0.07-1.8-1.86-3.2-3.58-2.28c-1.48,0.8-2.17,3.03-1.2,4.46c0.05,0.08,0.12,0.11,0.17,0.18
				c-0.01,0.3,0.04,0.61,0.2,0.93c0.05,0.1,0.12,0.18,0.18,0.27c-0.18,1.04,0.53,2.13,1.71,1.77c0.43-0.13,0.66-0.69,0.49-1.09
				c0.22-0.1,0.44-0.25,0.6-0.47c0.25-0.33,0.34-0.85,0.1-1.22C622.6,220.98,623.14,219.99,623.09,218.96z"/>
			<path class="st15" d="M557.15,237.84c-0.34-1.71-2.19-2.89-3.78-1.84c-1.54,1.02-1.73,3.36-0.38,4.59
				c0.04,0.04,0.1,0.06,0.15,0.09c0.31,0.91,1.2,1.5,2.23,1.52c0.42,0.01,0.74-0.35,0.85-0.72c0.11-0.4,0.15-0.8,0.15-1.2
				C557,239.72,557.34,238.78,557.15,237.84z"/>
			<path class="st15" d="M541.24,256.67c0.01-0.05,0.03-0.09,0.03-0.14c0.06-0.47-0.11-0.83-0.51-1.08
				c-1.18-0.76-2.91-0.36-3.63,0.86c-0.29,0.49-0.3,0.96-0.17,1.39c-0.08,0.05-0.17,0.08-0.25,0.15c-0.42,0.35-0.57,0.98-0.1,1.38
				c0.13,0.12,0.29,0.18,0.43,0.28c0.04,0.14,0.07,0.28,0.14,0.42c0.07,0.14,0.15,0.25,0.24,0.35c0.05,0.1,0.09,0.2,0.15,0.29
				c1.2,1.67,3.26,0.28,3.79-1.22C541.64,258.58,541.62,257.51,541.24,256.67z"/>
			<path class="st15" d="M563.04,258.33c-0.01-0.22-0.05-0.44-0.12-0.67c-0.42-1.34-1.9-2.43-3.29-1.79
				c-1.29,0.59-1.57,2.21-1.03,3.42c0.16,0.35,0.39,0.65,0.65,0.91c0.07,0.56,0.21,1.13,0.5,1.68c0.11,0.21,0.31,0.32,0.53,0.37
				c0.59,0.49,1.37,0.58,2.09-0.05C563.51,261.2,563.63,259.59,563.04,258.33z"/>
			<path class="st15" d="M578.93,227.07c-0.34-0.79-1.22-1.81-2.18-1.76c-0.43,0.02-0.76,0.29-1.03,0.64
				c-1.23,0.19-2.49,0.42-2.81,1.79c-0.25,1.08,0.18,2.22,0.92,3.02c1.53,1.66,4.19,1.49,5.12-0.69
				C579.35,229.13,579.33,228,578.93,227.07z M574.74,227.93c0.14-0.06,0.28-0.13,0.42-0.18c0.06,0.97,0.6,1.88,1.58,2.11
				C575.68,230.6,574.45,229.03,574.74,227.93z"/>
			<path class="st15" d="M605.84,228.67c-0.72-2.68-4.48-3.81-5.96-1.12c-0.02,0.04-0.03,0.09-0.05,0.14
				c-0.67,1.2-0.64,2.81,0.58,3.84c-0.31,0.5,0.01,1.14,0.56,1.31C603.48,233.62,606.59,231.46,605.84,228.67z M601.68,229.99
				c-0.87-1.08,0.56-2.72,1.57-1.36C604.04,229.71,602.41,230.61,601.68,229.99z"/>
			<path class="st15" d="M587.58,246.86c-0.86-1.57-3.12-1.64-4.38-0.49c-0.94,0.85-0.94,2.52,0.04,3.25
				c-0.12,0.97,0.16,1.98,1.01,2.63c0.34,0.26,0.75,0.31,1.12,0.09C587.17,251.29,588.71,248.93,587.58,246.86z"/>
			<path class="st15" d="M557.09,284.17c0.24-1.55-0.58-3.41-1.67-4.41c-0.38-0.35-0.98-0.29-1.33,0.07
				c-0.71,0.74-1.41,1.76-1.58,2.81c-0.09,0-0.18-0.02-0.27-0.02c-0.42,0-0.72,0.34-0.84,0.71c-0.72,2.3,2.27,3.85,4.14,2.94
				c0.72-0.35,1.15-0.89,1.38-1.5C557.04,284.57,557.08,284.37,557.09,284.17z"/>
			<path class="st15" d="M583.06,270.11c-0.4-0.34-0.99-0.32-1.36,0.07c-0.11,0.11-0.16,0.25-0.25,0.37
				c-0.42-0.05-0.85-0.01-1.28,0.25c-1.48,0.91-1.18,2.74-0.13,3.75c-0.03,0.53,0.08,1.07,0.42,1.53c0.17,0.23,0.49,0.46,0.8,0.4
				C584.13,275.97,585.37,272.07,583.06,270.11z"/>
			<path class="st15" d="M612.07,258.08c-0.01,0-0.02,0-0.03-0.01c0.06-0.63-0.02-1.26-0.29-1.84c-0.47-1.01-1.58-1.8-2.69-1.39
				c-0.62,0.03-1.23,0.33-1.58,0.89c-1.69,0.74-1.9,3.13-0.89,4.57c1.1,1.57,3.02,1.33,4.25,0.22c0.34-0.17,0.63-0.41,0.77-0.78
				c0.11,0,0.21,0.01,0.32,0.01C612.92,259.69,612.95,258.35,612.07,258.08z"/>
			<path class="st15" d="M638.93,234.7c-0.21-1.78-2.26-2.49-3.58-1.34c-0.03,0.03-0.05,0.07-0.08,0.1
				c-1.64,0.7-2.77,2.75-1.35,4.29c1.18,1.28,2.95,0.72,3.89-0.44C638.59,236.74,639.04,235.6,638.93,234.7z"/>
			<path class="st15" d="M632.91,253.06c-1.84-0.51-2.6,0.8-2.55,2.1c-0.75,0.77-1.13,1.74-1.15,2.83c-0.01,0.41,0.36,0.8,0.74,0.88
				c1.75,0.38,3.91-0.09,4.71-1.87C635.33,255.54,634.5,253.5,632.91,253.06z"/>
			<path class="st15" d="M658.85,254.02c0.08-0.87-0.2-1.75-1.02-2.36c-0.23-0.17-0.48-0.21-0.73-0.18
				c-0.08-0.08-0.14-0.16-0.22-0.23c-0.45-0.34-0.97-0.32-1.38,0.07c-0.81,0.76-1.05,1.94-0.71,2.91c-0.07,0.39-0.1,0.79-0.05,1.2
				c0.06,0.49,0.45,0.87,0.92,0.89c0.17,0.26,0.52,0.47,0.8,0.42c0.63-0.11,1.15-0.44,1.56-0.87c0.06,0.19,0.11,0.4,0.11,0.61
				c0.02,0.78,1.26,0.9,1.38,0.11C659.64,255.73,659.41,254.73,658.85,254.02z"/>
			<path class="st15" d="M648.63,274.64c0-0.25,0.03-0.49-0.01-0.74c-0.11-0.69-0.63-1.06-1.33-0.9c-1.25,0.28-2.48,1.08-2.79,2.37
				c-0.04,0.17-0.02,0.34,0.05,0.49c-0.14,0.92,0.07,1.9,0.75,2.66c0.29,0.32,0.86,0.31,1.2,0.09c0.3-0.19,0.54-0.44,0.79-0.69
				c0.08-0.05,0.17-0.09,0.24-0.16C648.42,276.94,648.77,275.79,648.63,274.64z"/>
			<path class="st15" d="M623.57,278.81c-0.66-0.81-1.85-0.7-2.75-0.2c-0.36-0.01-0.72,0.21-0.88,0.51
				c-0.11,0.2-0.18,0.41-0.23,0.63c-0.22,0.48-0.28,0.99-0.19,1.48c-0.56,0.68-0.8,1.64-0.45,2.55c0.11,0.28,0.34,0.54,0.66,0.59
				c1.47,0.23,2.79-0.4,3.62-1.62C624.08,281.7,624.47,279.91,623.57,278.81z"/>
			<path class="st15" d="M599.84,282.93c-1.11-0.7-2.72,0.1-2.75,1.45c0,0.22,0.05,0.41,0.12,0.59c-0.6,1.64,1.11,4.06,3.04,3.25
				c0.35-0.15,0.67-0.5,0.62-0.92C600.71,285.81,601.41,283.91,599.84,282.93z"/>
			<path class="st15" d="M578.82,289.26c-0.23-0.41-0.94-0.59-1.32-0.27c-0.7,0.6-1.17,1.38-1.39,2.22
				c-0.37,0.06-0.73,0.19-1.06,0.51c-0.6,0.59-0.69,1.4-0.47,2.12c-0.19,0.34-0.31,0.71-0.32,1.14c-0.05,1.47,1.14,2.43,2.55,2.44
				c1.35,0,2.72-0.75,3.27-2.01C580.99,293.34,579.84,291.04,578.82,289.26z"/>
			<path class="st15" d="M595.67,302.63c-1.02-0.35-2.15-0.01-2.73,0.75c-0.2,0.14-0.38,0.34-0.52,0.64
				c-0.65,1.3,0.39,3.83,2.08,3.3c0.1,0.52,0.77,0.78,1.13,0.2c0.07-0.11,0.09-0.23,0.13-0.34c0.39-0.13,0.75-0.34,1.04-0.63
				C598.14,305.22,597.31,303.19,595.67,302.63z"/>
			<path class="st15" d="M572.04,311.67c-0.33-0.47-0.89-0.7-1.44-0.71c-1.05-2.3-4.53-3.36-6.47-0.74
				c-2.62,3.56,1.94,7.69,5.35,5.42c1.03-0.01,1.82-0.72,2.16-1.63C572.32,313.48,572.63,312.52,572.04,311.67z"/>
			<path class="st15" d="M621.06,300.69c-0.07-0.09-0.16-0.17-0.24-0.26c0.04-0.49,0-0.98-0.14-1.41c-0.13-0.42-0.56-0.68-0.98-0.67
				c-0.88,0.02-1.71,0.43-2.29,1.06c-0.45,0.21-0.8,0.58-0.93,1.18c-0.09,0.43-0.02,0.93,0.17,1.4c0,0.83,0.35,1.67,1.05,2.16
				c0.33,0.23,0.7,0.3,1.06,0.08c0.28-0.17,0.57-0.43,0.84-0.72c0.25-0.06,0.48-0.15,0.69-0.31c0.42-0.32,0.42-0.78,0.19-1.12
				c0.05-0.14,0.1-0.27,0.12-0.41C621,301.58,621.37,301.1,621.06,300.69z"/>
			<path class="st15" d="M644.89,298.59c-0.21-0.1-0.43-0.13-0.64-0.18c0.11-0.28,0.22-0.57,0.33-0.85c0.08-0.2,0.09-0.38,0.07-0.56
				c0.21-1.17-0.23-2.45-1.57-2.82c-1.83-0.5-2.97,1.09-2.99,2.68c-0.02,0.02-0.06,0.03-0.08,0.05c-0.47,0.44-0.51,1.07-0.36,1.71
				c-0.06,1.4,0.6,2.8,2.08,3.34c0.45,0.16,1.09,0.12,1.29-0.41c0.18-0.47,0.37-0.94,0.55-1.42c0.24-0.04,0.5-0.05,0.76-0.01
				C645.21,300.26,645.79,299,644.89,298.59z"/>
			<path class="st15" d="M663.82,288.35c-1.42-0.07-2.78,1.02-2.88,2.46c-0.02,0.25,0.01,0.5,0.07,0.75
				c-0.07,0.59,0.01,1.22,0.17,1.7c0.14,0.42,0.54,0.66,0.97,0.66c0.46,0,0.88-0.13,1.28-0.31c0.15-0.01,0.3-0.02,0.46-0.07
				c0.34-0.1,0.5-0.37,0.54-0.65c0.39-0.4,0.71-0.87,0.88-1.43C665.68,290.21,665.39,288.42,663.82,288.35z"/>
			<path class="st15" d="M669.9,274.64c0,0-0.02-0.01-0.03-0.02c0.3-0.61,0.26-1.33-0.38-1.81c-0.12-0.09-0.25-0.15-0.39-0.19
				c-0.03-0.1-0.04-0.2-0.08-0.29c-0.28-0.66-1.13-0.92-1.65-0.34c-0.06,0.07-0.11,0.15-0.16,0.23c-0.16-0.01-0.33,0.02-0.49,0.07
				c-0.74,0.27-1.12,1.04-1.15,1.79c-0.04,1.12,0.79,1.92,0.89,2.98c0.08,0.8,1.06,1.19,1.62,0.57c0.39-0.42,0.67-0.9,0.89-1.41
				c0.42,0.13,0.9,0.11,1.4-0.14C671.16,275.71,670.59,274.67,669.9,274.64z"/>
			<path class="st15" d="M678.25,304.31c-0.43-0.16-0.81-0.11-1.15,0.21c-1.06,1.01-1.38,2.56-0.77,3.9
				c0.27,0.59,0.87,0.84,1.46,0.51c0.04-0.02,0.08-0.05,0.11-0.07c0.17-0.02,0.34-0.06,0.51-0.12c0.37,0.12,0.84,0.01,0.92-0.44
				c0.01-0.07,0.01-0.15,0.02-0.22c0.09-0.09,0.18-0.19,0.26-0.29C680.67,306.38,679.76,304.86,678.25,304.31z"/>
			<path class="st15" d="M659.56,314.17c-0.12-0.5-0.76-0.78-1.22-0.61c-0.42,0.15-0.76,0.37-1.06,0.64
				c-0.05,0.01-0.09-0.01-0.14,0.01c-0.7,0.17-1.12,0.77-1.27,1.43c-0.2,0.27-0.37,0.57-0.46,0.91c-0.42,1.64,0.69,3.12,2.21,3.61
				c0.28,0.09,0.71-0.04,0.88-0.28C659.69,318.14,660.07,316.21,659.56,314.17z"/>
			<path class="st15" d="M635.99,317.12c-0.34-0.61-1.13-0.52-1.58-0.12c-0.59,0.53-1.18,1.31-1.38,2.1
				c-0.41-0.19-0.97-0.06-1.17,0.38c-0.83,1.85,1.26,3.55,3.05,2.99C637.22,321.75,636.92,318.77,635.99,317.12z"/>
			<path class="st15" d="M655.74,339.37c0.3-1.22,0.14-2.52-0.51-3.64c-0.27-0.46-0.92-0.54-1.34-0.28c-0.7,0.43-1.41,1.15-1.7,1.92
				c-1.45,0.4-1.32,2.79-0.67,3.77c0.36,0.55,1.04,1.13,1.73,1.16c0.72,0.03,1.36-0.69,1.76-1.28c0.34,0.69,1.39,0.3,1.21-0.49
				C656.12,340.15,655.96,339.76,655.74,339.37z"/>
			<path class="st15" d="M674.03,328.39c-1.26-0.59-2.12,0.18-2.44,1.41c-0.12,0.47-0.12,0.94-0.07,1.4
				c-0.12,0.4-0.18,0.82-0.12,1.25c0.14,0.99,0.92,2.11,2.03,1.82c1.01-0.27,1.63-1.02,1.92-1.9
				C676,330.99,675.52,329.09,674.03,328.39z"/>
			<path class="st15" d="M669.04,349.09c-0.23-0.51-0.67-0.74-1.23-0.61c-1.56,0.36-1.95,2.36-1.34,3.61
				c-0.45,0.34-0.7,0.91-0.32,1.71c0.25,0.52,0.83,0.84,1.38,0.48c0.16-0.11,0.3-0.23,0.45-0.36c0.34,0.08,0.75-0.04,0.85-0.44
				c0.06-0.24,0.04-0.43,0.02-0.62c0.21-0.17,0.3-0.4,0.29-0.64C669.49,351.22,669.5,350.1,669.04,349.09z"/>
			<path class="st15" d="M654.82,359.62c-0.11-0.49-0.75-0.76-1.2-0.6c-0.56,0.2-1.02,0.54-1.38,0.96
				c-0.01,0.01-0.03,0.01-0.04,0.02c-0.58,0.41-0.82,1.11-0.72,1.74c-0.01,0.07-0.01,0.14-0.01,0.21c-0.13,0.12-0.27,0.25-0.39,0.44
				c-0.55,0.82-0.56,1.81-0.01,2.63c0.3,0.44,0.83,0.5,1.27,0.26C654.42,364.19,655.33,361.85,654.82,359.62z"/>
		</g>
	</g>
</g>
</svg>
