<?xml version="1.0" encoding="utf-8"?>
<!-- Generator: Adobe Illustrator 21.0.0, SVG Export Plug-In . SVG Version: 6.00 Build 0)  -->
<svg version="1.1" id="Layer_1" xmlns="http://www.w3.org/2000/svg" xmlns:xlink="http://www.w3.org/1999/xlink" x="0px" y="0px"
	 viewBox="0 0 1400 644.62" style="enable-background:new 0 0 1400 644.62;" xml:space="preserve">
<style type="text/css">
	.st0{clip-path:url(#SVGID_2_);fill:url(#SVGID_3_);}
	.st1{opacity:0.07;clip-path:url(#SVGID_2_);}
	.st2{fill:#171F24;}
	.st3{opacity:0.1;clip-path:url(#SVGID_2_);}
	.st4{fill:#F0F4FC;}
</style>
<g>
	<defs>
		<path id="SVGID_1_" d="M1400,476c-127.08,39.83-267.36,76.26-420,105c-375.63,70.72-710.88,73.11-980,52C0,448.67,0,184.33,0,0
			h1400C1400,158.67,1400,317.33,1400,476z"/>
	</defs>
	<clipPath id="SVGID_2_">
		<use xlink:href="#SVGID_1_"  style="overflow:visible;"/>
	</clipPath>
	<linearGradient id="SVGID_3_" gradientUnits="userSpaceOnUse" x1="700" y1="515.6147" x2="700" y2="-26.8794">
		<stop  offset="0" style="stop-color:#07C4E6"/>
		<stop  offset="1" style="stop-color:#006BFF"/>
	</linearGradient>
	<path class="st0" d="M0,720C0,513.59,0,206.41,0,0h1400c0,186.25,0,533.75,0,720"/>
	<g class="st1">
		<g>
			<path class="st2" d="M962.91,594.92c7.18-58.8-31.22-118.71-88.17-138.09c5.08-59.53-30.96-121.59-78.61-155.68
				c-25.95-18.56-58.16-30.05-90.38-33.16c-1.8-4.1-3.71-8.17-5.84-12.17c-19.43-36.64-50.37-66.18-85.8-87.44
				c-37.91-31.76-82.82-54.33-130.79-66.51c-83.7-21.26-171.99-7.15-235.97,46.87c-14.59-8.75-29.91-15.89-43.99-21.44
				c-40.62-16.01-84.9-14.36-126.85-4.41c-40.14,9.52-72.98,32.67-95.18,67.41c-2.66,4.16-5.1,8.46-7.39,12.87
				c-78.66-8.86-162.61,45.62-180.57,125.6V689H962.91C962.91,689,962.71,603.59,962.91,594.92z"/>
		</g>
	</g>
	<g class="st3">
		<g>
			<path class="st4" d="M794.86,582.98c9.49,28.27,31.29,50.6,59.37,60.24c12.28,4.21,25.58,5.49,38.56,3.99
				c3.92,6.06,8.85,11.55,14.85,16.18c18.67,14.4,43.41,20.63,66.7,18.28c22.07-2.23,43.47-9.82,60.76-23.98
				c2.44-2,4.75-4.07,6.97-6.21c4.03,3.24,8.32,6.15,12.69,8.69c24.2,14.06,53.88,16.76,80.74,10.36
				c26.26-6.26,50.78-23.09,67.34-44.32c7.99-10.23,15.13-21.22,20.39-33.13c28.78,16.22,63.53,12.29,94.32-1.58
				c20.7-9.33,32.94-25.37,40.28-46.6c0.18-0.53,0.37-1.08,0.55-1.64c3.23-0.34,6.45-0.89,9.62-1.72c2.4-0.28,4.77-0.66,7.1-1.14
				c11.53-0.7,22.97-4.47,33.04-11.45c21.55-14.95,31.94-40.76,32.78-66.46c8.86-3.46,17.12-8.76,24.35-16.14
				c19.14-19.56,25.44-50.05,16.35-75.88c-1.79-5.09-4-9.91-6.59-14.44c-14.61-32.48-52.85-51.35-87.96-43.6
				c-15.91-32.2-53.61-52.91-88.54-55.62c-19.03-1.47-39.05,2.64-56.48,11.06c-2.2-1.55-4.44-3.05-6.77-4.45
				c-21.31-12.8-46.3-18.37-71.01-18.28c-29.24-4.54-59.19-2.18-87.48,6.48c-49.36,15.1-90.08,49.83-105.97,97.53
				c-10.17,0.04-20.22,1.13-29.14,2.66c-25.72,4.4-47.83,19.03-66.17,37.2c-17.55,17.39-27.12,39.51-27.67,64.29
				c-0.06,2.97,0.02,5.94,0.23,8.92C805.12,482.11,779.17,536.26,794.86,582.98z"/>
		</g>
	</g>
	<g class="st3">
		<g>
			<path class="st4" d="M1407.45,326.67c-2.17-3.98-4.45-7.92-6.93-11.78c-22.73-35.3-56.47-62.44-94.03-80.85
				c-40.96-28.79-88.19-47.7-137.61-55.89c-86.24-14.28-174.08,7.51-234,67.48c-15.46-7.57-31.53-13.47-46.21-17.86
				c-42.34-12.67-86.86-7.21-128.32,6.41c-39.67,13.04-70.81,39.2-90.23,76.14c-2.32,4.42-4.42,8.97-6.35,13.61
				c-80.1-2.2-160.11,59.93-171.37,142.14c-6.81,49.73,9.5,99.75,44.88,135.36c15.46,15.57,34.7,27.47,55.52,34.95H1407
				L1407.45,326.67z"/>
		</g>
	</g>
</g>
</svg>
